<?xml version="1.0" standalone="no"?>
<!DOCTYPE svg PUBLIC "-//W3C//DTD SVG 1.1//EN" "http://www.w3.org/Graphics/SVG/1.1/DTD/svg11.dtd" >
<svg xmlns="http://www.w3.org/2000/svg" xmlns:xlink="http://www.w3.org/1999/xlink" version="1.1">
<metadata>
Created by FontForge 20170731 at Fri Jul 31 19:47:56 2015
 By Aleksey,,,
Copyright 2015 Dalton Maag Ltd. Modification of this file requires prior written permission from Dalton Maag Ltd.
</metadata>
<defs>
<font id="AktivGroteskCdTrial-Black" horiz-adv-x="352" >
  <font-face 
    font-family="Aktiv Grotesk Cd Trial Black"
    font-weight="900"
    font-stretch="condensed"
    units-per-em="1000"
    panose-1="2 11 9 6 2 2 3 2 2 4"
    ascent="714"
    descent="-286"
    x-height="528"
    cap-height="714"
    bbox="-197 -251 1220 999"
    underline-thickness="68"
    underline-position="-201"
    unicode-range="U+0008-FEFF"
  />
<missing-glyph horiz-adv-x="390" 
d="M35 0v750h320v-750h-320zM305 700h-220v-650h220v650z" />
    <glyph glyph-name="f_i" unicode="fi" horiz-adv-x="614" 
d="M77 0v371h-69v135h69v23q0 92 48.5 142.5t136.5 50.5q60 0 114 -20l-21 -123q-22 7 -44 7q-49 0 -49 -55v-25h85v-135h-85v-371h-185zM393 0v528h185v-528h-185zM393 585v129h185v-129h-185z" />
    <glyph glyph-name="f_l" unicode="fl" horiz-adv-x="614" 
d="M77 0v371h-69v135h69v23q0 92 48.5 142.5t136.5 50.5q60 0 114 -20l-21 -123q-22 7 -44 7q-49 0 -49 -55v-25h85v-135h-85v-371h-185zM393 0v714h185v-714h-185z" />
    <glyph glyph-name="f_f" unicode="ff" horiz-adv-x="714" 
d="M77 0v371h-69v135h69v23q0 92 48.5 142.5t136.5 50.5q60 0 114 -20l-21 -123q-22 7 -44 7q-49 0 -49 -55v-25h85v-135h-85v-371h-185zM434 0v371h-69v135h69v23q0 92 48.5 142.5t136.5 50.5q60 0 114 -20l-21 -123q-22 7 -44 7q-49 0 -49 -55v-25h85v-135h-85v-371h-185z
" />
    <glyph glyph-name="f_f_i" unicode="ffi" horiz-adv-x="971" 
d="M77 0v371h-69v135h69v23q0 92 48.5 142.5t136.5 50.5q60 0 114 -20l-21 -123q-22 7 -44 7q-49 0 -49 -55v-25h85v-135h-85v-371h-185zM434 0v371h-69v135h69v23q0 92 48.5 142.5t136.5 50.5q60 0 114 -20l-21 -123q-22 7 -44 7q-49 0 -49 -55v-25h85v-135h-85v-371h-185z
M750 0v528h185v-528h-185zM750 585v129h185v-129h-185z" />
    <glyph glyph-name="f_f_l" unicode="ffl" horiz-adv-x="971" 
d="M77 0v371h-69v135h69v23q0 92 48.5 142.5t136.5 50.5q60 0 114 -20l-21 -123q-22 7 -44 7q-49 0 -49 -55v-25h85v-135h-85v-371h-185zM434 0v371h-69v135h69v23q0 92 48.5 142.5t136.5 50.5q60 0 114 -20l-21 -123q-22 7 -44 7q-49 0 -49 -55v-25h85v-135h-85v-371h-185z
M750 0v714h185v-714h-185z" />
    <glyph glyph-name=".notdef" horiz-adv-x="390" 
d="M35 0v750h320v-750h-320zM305 700h-220v-650h220v650z" />
    <glyph glyph-name=".null" horiz-adv-x="0" 
 />
    <glyph glyph-name=".null" horiz-adv-x="0" 
 />
    <glyph glyph-name=".null" horiz-adv-x="0" 
 />
    <glyph glyph-name="nonmarkingreturn" unicode="&#x9;" horiz-adv-x="167" 
 />
    <glyph glyph-name="nonmarkingreturn" unicode="&#xd;" horiz-adv-x="167" 
 />
    <glyph glyph-name="space" unicode=" " horiz-adv-x="167" 
 />
    <glyph glyph-name="exclam" unicode="!" horiz-adv-x="238" 
d="M39 228l-22 486h204l-22 -486h-160zM34 0v177h170v-177h-170z" />
    <glyph glyph-name="quotedbl" unicode="&#x22;" horiz-adv-x="415" 
d="M30 422l-7 292h164l-7 -292h-150zM235 422l-7 292h164l-7 -292h-150z" />
    <glyph glyph-name="numbersign" unicode="#" horiz-adv-x="500" 
d="M235 0l20 153h-60l-19 -153h-136l19 153h-38v131h55l16 123h-46v131h63l20 153h136l-20 -153h60l19 153h136l-19 -153h38v-131h-55l-16 -123h46v-131h-63l-20 -153h-136zM288 407h-60l-16 -123h60z" />
    <glyph glyph-name="dollar" unicode="$" horiz-adv-x="500" 
d="M215 -126v110q-100 8 -150 67.5t-54 172.5h185q2 -44 16.5 -64.5t42.5 -20.5q49 0 49 54q0 49 -47 64l-75 25q-85 28 -126 81t-41 135q0 90 53 145.5t147 64.5v99h68v-99q84 -8 131 -60t61 -152l-181 -18q-7 43 -18.5 59.5t-34.5 16.5q-20 0 -31 -14t-11 -39
q0 -24 10 -37t35 -21l69 -24q92 -32 133.5 -84t41.5 -134q0 -97 -53.5 -153.5t-151.5 -63.5v-110h-68z" />
    <glyph glyph-name="percent" unicode="%" horiz-adv-x="888" 
d="M218 0l299 691h152l-299 -691h-152zM710 -13q-76 0 -115 55t-39 161q0 107 40.5 163t117.5 56q76 0 115 -55t39 -161q0 -107 -40.5 -163t-117.5 -56zM711 112q14 0 20 21t6 71q0 52 -5 72.5t-19 20.5t-20 -21t-6 -71q0 -52 5 -72.5t19 -20.5zM174 269q-76 0 -115 55
t-39 161q0 107 40.5 163t117.5 56q76 0 115 -55t39 -161q0 -107 -40.5 -163t-117.5 -56zM175 394q14 0 20 21t6 71q0 52 -5 72.5t-19 20.5t-20 -21t-6 -71q0 -52 5 -72.5t19 -20.5z" />
    <glyph glyph-name="ampersand" unicode="&#x26;" horiz-adv-x="607" 
d="M436 0l-16 21q-67 -39 -154 -39q-74 0 -130.5 25.5t-88 73.5t-31.5 114q0 65 30.5 114.5t97.5 89.5q-31 49 -43 81t-12 66q0 81 55.5 130.5t144.5 49.5q85 0 136 -46t51 -123q0 -59 -32.5 -105.5t-99.5 -85.5l78 -106q8 58 8 109h154q0 -142 -60 -244l94 -125h-182z
M225 281q-28 -28 -28 -71q0 -40 24 -64t63 -24q29 0 53 9zM274 472q43 33 43 73q0 47 -32 47q-35 0 -35 -49q0 -17 5.5 -32.5t18.5 -38.5z" />
    <glyph glyph-name="quotesingle" unicode="'" horiz-adv-x="210" 
d="M30 422l-7 292h164l-7 -292h-150z" />
    <glyph glyph-name="parenleft" unicode="(" horiz-adv-x="329" 
d="M159 -124q-118 210 -118 429t118 429h167q-97 -219 -97 -429t97 -429h-167z" />
    <glyph glyph-name="parenright" unicode=")" horiz-adv-x="329" 
d="M3 -124q97 219 97 429t-97 429h167q118 -210 118 -429t-118 -429h-167z" />
    <glyph glyph-name="asterisk" unicode="*" horiz-adv-x="398" 
d="M248 344l-49 99l-49 -99l-118 87l78 76l-105 14l53 143l85 -53l-20 103h152l-20 -103l85 53l53 -143l-105 -14l78 -76z" />
    <glyph glyph-name="plus" unicode="+" horiz-adv-x="500" 
d="M164 108v148h-127v169h127v148h172v-148h127v-169h-127v-148h-172z" />
    <glyph glyph-name="comma" unicode="," horiz-adv-x="238" 
d="M-4 -114l38 317h172l-67 -317h-143z" />
    <glyph glyph-name="hyphen" unicode="-" horiz-adv-x="332" 
d="M20 210v184h292v-184h-292z" />
    <glyph glyph-name="period" unicode="." horiz-adv-x="238" 
d="M34 0v203h170v-203h-170z" />
    <glyph glyph-name="slash" unicode="/" horiz-adv-x="383" 
d="M2 0l201 734h178l-201 -734h-178z" />
    <glyph glyph-name="zero" unicode="0" horiz-adv-x="500" 
d="M248 -18q-119 0 -174 86.5t-55 274.5q0 191 55.5 279t177.5 88q119 0 174 -86.5t55 -274.5q0 -191 -55.5 -279t-177.5 -88zM250 150q20 0 29.5 18.5t13.5 60t4 117.5q0 83 -4.5 124t-14.5 56.5t-28 15.5q-20 0 -29.5 -18.5t-13.5 -60t-4 -117.5q0 -83 4.5 -124
t14.5 -56.5t28 -15.5z" />
    <glyph glyph-name="one" unicode="1" horiz-adv-x="500" 
d="M222 0v480l-96 -72l-92 139l215 144h155v-691h-182z" />
    <glyph glyph-name="two" unicode="2" horiz-adv-x="500" 
d="M35 0v139q85 83 150 156q55 61 76.5 101.5t21.5 83.5q0 66 -39 66q-22 0 -33 -19t-16 -66l-171 18q10 110 71 170.5t161 60.5q96 0 152 -57.5t56 -155.5q0 -61 -21.5 -113.5t-72.5 -115.5q-47 -58 -91 -102h199l-15 -166h-428z" />
    <glyph glyph-name="three" unicode="3" horiz-adv-x="500" 
d="M196 283v141h42q24 0 37 16.5t13 45.5t-11 45.5t-31 16.5q-23 0 -35 -19.5t-16 -60.5l-163 17q7 107 66 166t160 59q60 0 107 -24t74 -68t27 -101q0 -49 -22.5 -88t-64.5 -62q48 -20 75 -64.5t27 -103.5q0 -62 -28 -111t-80 -77.5t-120 -28.5q-228 0 -228 257h167
q0 -95 56 -95q48 0 48 70q0 33 -15.5 51t-43.5 18h-41z" />
    <glyph glyph-name="four" unicode="4" horiz-adv-x="500" 
d="M263 0v128h-239v150l216 413h188v-420h56l-12 -143h-44v-128h-165zM263 465l-95 -194h95v194z" />
    <glyph glyph-name="five" unicode="5" horiz-adv-x="500" 
d="M210 206q3 -32 13 -47t30 -15q45 0 45 82q0 79 -49 79q-18 0 -28 -7.5t-17 -24.5h-161l25 418h377v-166h-230l-7 -98q37 30 92 30q84 0 130 -60t46 -169q0 -117 -58.5 -181.5t-164.5 -64.5q-208 0 -220 224h177z" />
    <glyph glyph-name="six" unicode="6" horiz-adv-x="500" 
d="M304 491q-4 32 -14.5 47t-30.5 15q-26 0 -39 -30.5t-18 -104.5l-1 -16q20 19 47.5 30.5t54.5 11.5q81 0 127.5 -58.5t46.5 -159.5q0 -115 -59 -179.5t-163 -64.5q-118 0 -172.5 81t-54.5 257q0 390 240 390q177 0 200 -201zM255 137q50 0 50 86q0 79 -48 79
q-51 0 -51 -79q0 -86 49 -86z" />
    <glyph glyph-name="seven" unicode="7" horiz-adv-x="500" 
d="M106 0q16 125 59.5 263t106.5 262h-238v166h430v-150q-69 -137 -109.5 -267.5t-59.5 -273.5h-189z" />
    <glyph glyph-name="eight" unicode="8" horiz-adv-x="500" 
d="M383 357q99 -49 99 -174q0 -95 -61.5 -148t-172.5 -53q-110 0 -170 52.5t-60 148.5q0 125 99 174q-84 52 -84 157q0 89 59.5 142.5t159.5 53.5q99 0 157 -53t58 -143q0 -105 -84 -157zM249 131q28 0 42.5 19t14.5 56t-14 56.5t-41 19.5t-42 -20t-15 -56q0 -75 55 -75z
M249 423q53 0 53 70t-51 70q-26 0 -39.5 -18t-13.5 -52q0 -36 12.5 -53t38.5 -17z" />
    <glyph glyph-name="nine" unicode="9" horiz-adv-x="500" 
d="M299 290q-20 -19 -47.5 -30.5t-54.5 -11.5q-81 0 -127.5 58.5t-46.5 159.5q0 115 59 179.5t163 64.5q117 0 172 -82t55 -256q0 -197 -58 -293.5t-176 -96.5q-92 0 -144 53.5t-62 158.5h164q7 -55 45 -55q28 0 40.5 29.5t16.5 105.5zM243 390q51 0 51 79q0 86 -49 86
q-50 0 -50 -86q0 -79 48 -79z" />
    <glyph glyph-name="colon" unicode=":" horiz-adv-x="238" 
d="M34 325v203h170v-203h-170zM34 0v203h170v-203h-170z" />
    <glyph glyph-name="semicolon" unicode=";" horiz-adv-x="238" 
d="M-4 -114l38 317h172l-67 -317h-143zM34 325v203h170v-203h-170z" />
    <glyph glyph-name="less" unicode="&#x3c;" horiz-adv-x="500" 
d="M32 258v165l406 176v-177l-232 -78l232 -76v-186z" />
    <glyph glyph-name="equal" unicode="=" horiz-adv-x="500" 
d="M62 142v164h376v-164h-376zM62 375v164h376v-164h-376z" />
    <glyph glyph-name="greater" unicode="&#x3e;" horiz-adv-x="500" 
d="M62 82v177l232 78l-232 76v186l406 -176v-165z" />
    <glyph glyph-name="question" unicode="?" horiz-adv-x="457" 
d="M152 228v25q0 57 13 92t48 74q32 34 42.5 52.5t10.5 40.5q0 51 -41 51q-24 0 -37 -18t-16 -56l-168 15q8 107 69 164.5t166 57.5q62 0 110 -22t75 -63t27 -96q0 -47 -18 -85.5t-61 -83.5q-33 -35 -46 -65t-13 -70v-13h-161zM147 0v177h170v-177h-170z" />
    <glyph glyph-name="at" unicode="@" horiz-adv-x="840" 
d="M671 -52q-53 -85 -134.5 -132t-176.5 -47q-101 0 -177.5 47t-118.5 137t-42 213q0 152 57 277.5t161.5 200t237.5 74.5q97 0 174 -45t121.5 -128t44.5 -191q0 -99 -31 -181.5t-87.5 -132.5t-127.5 -50q-67 0 -102 60q-8 14 -16 33q-24 -48 -51 -70.5t-61 -22.5
q-55 0 -86 50t-31 139q0 78 21.5 145.5t60.5 109.5t87 42q28 0 49.5 -14.5t32.5 -41.5l7 46h148l-47 -286q-3 -21 -3 -30q0 -40 23 -40q22 0 42.5 32t34 88t13.5 119q0 121 -59.5 185.5t-170.5 64.5q-91 0 -162 -51.5t-111.5 -148.5t-40.5 -227q0 -135 59 -209.5t166 -74.5
q83 0 134 60h162zM442 256q5 45 5 56q0 32 -16 32q-17 0 -31 -45.5t-14 -102.5q0 -34 5 -48.5t15 -14.5q11 0 18 18.5t13 64.5z" />
    <glyph glyph-name="A" unicode="A" horiz-adv-x="613" 
d="M412 0l-25 130h-166l-26 -130h-190l184 714h243l176 -714h-196zM305 559l-54 -276h107z" />
    <glyph glyph-name="B" unicode="B" horiz-adv-x="582" 
d="M58 0v714h249q109 0 170 -48t61 -135q0 -98 -98 -152q57 -25 87.5 -68t30.5 -99q0 -101 -67.5 -156.5t-189.5 -55.5h-243zM291 151q38 0 59.5 20t21.5 55q0 37 -21 56t-61 19h-54v-150h55zM286 439q31 0 48.5 16t17.5 46q0 29 -17 45.5t-47 16.5h-52v-124h50z" />
    <glyph glyph-name="C" unicode="C" horiz-adv-x="601" 
d="M584 286q-6 -145 -77 -224.5t-194 -79.5q-137 0 -208 94.5t-71 275.5q0 185 73 282.5t211 97.5q111 0 178.5 -73t82.5 -210l-193 -21q-7 70 -23 98.5t-47 28.5q-43 0 -61 -45t-18 -151q0 -107 19.5 -153.5t63.5 -46.5q34 0 51.5 30t22.5 97h190z" />
    <glyph glyph-name="D" unicode="D" horiz-adv-x="636" 
d="M58 0v714h230q155 0 234.5 -89.5t79.5 -262.5q0 -175 -80 -268.5t-231 -93.5h-233zM304 177q49 0 72.5 45t23.5 137q0 91 -24 134.5t-74 43.5h-52v-360h54z" />
    <glyph glyph-name="E" unicode="E" horiz-adv-x="532" 
d="M58 0v714h433v-166h-239v-105h224v-166h-224v-111h255l-15 -166h-434z" />
    <glyph glyph-name="F" unicode="F" horiz-adv-x="496" 
d="M58 0v714h414v-166h-220v-133h205v-166h-205v-249h-194z" />
    <glyph glyph-name="G" unicode="G" horiz-adv-x="629" 
d="M410 260h-72v148h252v-348q-54 -38 -119.5 -58t-136.5 -20q-148 0 -224 93.5t-76 277.5q0 186 75 282.5t220 96.5q228 0 258 -237l-197 -19q-6 43 -22 63t-45 20q-46 0 -67 -48t-21 -151q0 -106 26.5 -155.5t83.5 -49.5q37 0 65 16v89z" />
    <glyph glyph-name="H" unicode="H" horiz-adv-x="648" 
d="M394 0v279h-140v-279h-196v714h196v-255h140v255h196v-714h-196z" />
    <glyph glyph-name="I" unicode="I" horiz-adv-x="312" 
d="M58 0v714h196v-714h-196z" />
    <glyph glyph-name="J" unicode="J" horiz-adv-x="551" 
d="M309 714h196v-448q0 -135 -65 -209.5t-183 -74.5q-240 0 -246 287h192q2 -60 14.5 -85t40.5 -25q27 0 39 22.5t12 73.5v459z" />
    <glyph glyph-name="K" unicode="K" horiz-adv-x="631" 
d="M423 0l-128 303l-47 -54v-249h-190v714h190v-243l170 243h201l-194 -270l205 -444h-207z" />
    <glyph glyph-name="L" unicode="L" horiz-adv-x="496" 
d="M58 0v714h196v-538h232l-16 -176h-412z" />
    <glyph glyph-name="M" unicode="M" horiz-adv-x="787" 
d="M551 0v402l-100 -402h-121l-99 402v-402h-173v714h230l106 -452l105 452h230v-714h-178z" />
    <glyph glyph-name="N" unicode="N" horiz-adv-x="642" 
d="M410 0l-172 359v-359h-180v714h174l172 -359v359h180v-714h-174z" />
    <glyph glyph-name="O" unicode="O" horiz-adv-x="651" 
d="M323 -18q-143 0 -216 94t-73 277q0 186 74.5 282.5t219.5 96.5q143 0 216 -94t73 -277q0 -186 -74.5 -282.5t-219.5 -96.5zM325 159q48 0 68.5 45.5t20.5 153.5q0 107 -20 152t-68 45t-68.5 -45.5t-20.5 -153.5q0 -107 20 -152t68 -45z" />
    <glyph glyph-name="P" unicode="P" horiz-adv-x="564" 
d="M58 0v714h228q120 0 188.5 -65.5t68.5 -179.5q0 -73 -31 -128.5t-89 -87t-136 -31.5h-41v-222h-188zM286 386q82 0 82 82t-82 82h-40v-164h40z" />
    <glyph glyph-name="Q" unicode="Q" horiz-adv-x="651" 
d="M471 -104l-62 99q-36 -13 -86 -13q-142 0 -215.5 94.5t-73.5 277.5q0 186 74.5 282t219.5 96q143 0 216 -94t73 -277q0 -91 -24 -165.5t-70 -125.5l63 -103zM278 221l94 59l37 -63q9 47 9 140q0 105 -22 151.5t-71 46.5t-70.5 -47t-21.5 -151q0 -111 21 -160t70 -49h4z
" />
    <glyph glyph-name="R" unicode="R" horiz-adv-x="595" 
d="M380 0l-89 240h-49v-240h-184v714h248q120 0 186.5 -61t66.5 -171q0 -58 -25 -106.5t-71 -81.5l121 -294h-204zM295 395q39 0 59.5 21.5t20.5 61.5q0 39 -20 60t-58 21h-55v-164h53z" />
    <glyph glyph-name="S" unicode="S" horiz-adv-x="552" 
d="M210 288q-94 25 -137.5 77.5t-43.5 144.5q0 102 67 162t183 60q110 0 169 -53.5t72 -165.5l-188 -18q-7 46 -19.5 63t-40.5 17q-25 0 -38.5 -15t-13.5 -42t12 -41t40 -21l73 -20q101 -28 145 -79.5t44 -140.5q0 -111 -66.5 -172.5t-187.5 -61.5q-247 0 -259 251h192
q4 -50 21 -72t50 -22q28 0 43.5 16.5t15.5 46.5q0 26 -13 41.5t-41 23.5z" />
    <glyph glyph-name="T" unicode="T" horiz-adv-x="512" 
d="M158 0v538h-148v176h492v-176h-148v-538h-196z" />
    <glyph glyph-name="U" unicode="U" horiz-adv-x="620" 
d="M378 714h196v-444q0 -141 -67.5 -214.5t-196.5 -73.5t-196.5 73.5t-67.5 214.5v444h196v-459q0 -50 16 -73t52 -23t52 23t16 73v459z" />
    <glyph glyph-name="V" unicode="V" horiz-adv-x="593" 
d="M171 0l-166 714h209l88 -529l83 529h203l-166 -714h-251z" />
    <glyph glyph-name="W" unicode="W" horiz-adv-x="836" 
d="M488 0l-70 409l-70 -409h-204l-136 714h200l57 -449l73 446h165l72 -446l57 449h196l-136 -714h-204z" />
    <glyph glyph-name="X" unicode="X" horiz-adv-x="607" 
d="M389 0l-93 213l-91 -213h-203l189 372l-177 342h216l81 -192l79 192h203l-176 -350l188 -364h-216z" />
    <glyph glyph-name="Y" unicode="Y" horiz-adv-x="570" 
d="M187 0v263l-185 451h210l76 -271l76 271h204l-185 -451v-263h-196z" />
    <glyph glyph-name="Z" unicode="Z" horiz-adv-x="511" 
d="M21 0v148l245 395h-237v171h454v-148l-245 -395h258l-15 -171h-460z" />
    <glyph glyph-name="bracketleft" unicode="[" horiz-adv-x="350" 
d="M58 -124v858h286v-156h-104v-546h104v-156h-286z" />
    <glyph glyph-name="backslash" unicode="\" horiz-adv-x="383" 
d="M381 0h-178l-201 734h178z" />
    <glyph glyph-name="bracketright" unicode="]" horiz-adv-x="350" 
d="M292 -124h-286v156h104v546h-104v156h286v-858z" />
    <glyph glyph-name="asciicircum" unicode="^" horiz-adv-x="500" 
d="M303 284l-55 226l-56 -226h-177l155 430h160l155 -430h-182z" />
    <glyph glyph-name="underscore" unicode="_" horiz-adv-x="400" 
d="M0 -175v52h400v-52h-400z" />
    <glyph glyph-name="grave" unicode="`" horiz-adv-x="507" 
d="M253 583l-146 177h185l108 -177h-147z" />
    <glyph glyph-name="a" unicode="a" horiz-adv-x="474" 
d="M278 0v51q-23 -32 -54.5 -48.5t-67.5 -16.5q-65 0 -101.5 42t-36.5 117q0 162 201 178l51 4v39q0 30 -7.5 44t-24.5 14t-26 -14.5t-12 -48.5l-164 11q10 87 61 129.5t145 42.5q101 0 149.5 -48.5t48.5 -150.5v-345h-162zM270 221l-28 -3q-28 -2 -44 -18t-16 -42
q0 -45 37 -45q24 0 37.5 21.5t13.5 59.5v27z" />
    <glyph glyph-name="b" unicode="b" horiz-adv-x="505" 
d="M36 0v714h185v-235q46 65 109 65q153 0 153 -271q0 -289 -159 -289q-30 0 -59.5 17.5t-50.5 46.5v-48h-178zM221 254q0 -60 3.5 -88t11.5 -38.5t23 -10.5q16 0 23.5 13t10.5 44.5t3 89.5q0 65 -3.5 95t-11 41t-22.5 11q-17 0 -24.5 -12t-10.5 -41t-3 -84v-20z" />
    <glyph glyph-name="c" unicode="c" horiz-adv-x="466" 
d="M449 222q-9 -238 -207 -238q-220 0 -220 276q0 284 222 284q96 0 146 -55.5t57 -168.5l-170 -14q-2 61 -9 81.5t-25 20.5q-15 0 -22 -13t-9.5 -43.5t-2.5 -90.5q0 -62 3.5 -91t11 -39.5t21.5 -10.5q18 0 25.5 23.5t8.5 78.5h170z" />
    <glyph glyph-name="d" unicode="d" horiz-adv-x="505" 
d="M291 0v58q-26 -38 -54 -56t-62 -18q-153 0 -153 271q0 289 159 289q28 0 57 -15.5t46 -40.5v226h185v-714h-178zM284 274q0 60 -3.5 88t-11.5 38.5t-23 10.5q-16 0 -23.5 -13t-10.5 -44.5t-3 -89.5q0 -65 3.5 -95t11 -41t22.5 -11q17 0 24.5 12t10.5 41t3 84v20z" />
    <glyph glyph-name="e" unicode="e" horiz-adv-x="477" 
d="M458 174q-14 -190 -212 -190q-117 0 -170.5 65t-53.5 208q0 145 56 216t171 71q209 0 209 -264v-57h-259q1 -67 11 -91.5t35 -24.5q21 0 31 16t11 51h171zM290 318q-1 61 -10.5 83t-32.5 22q-24 0 -34.5 -23t-12.5 -82h90z" />
    <glyph glyph-name="f" unicode="f" horiz-adv-x="357" 
d="M77 0v371h-69v135h69v23q0 92 48.5 142.5t136.5 50.5q60 0 114 -20l-21 -123q-22 7 -44 7q-49 0 -49 -55v-25h85v-135h-85v-371h-185z" />
    <glyph glyph-name="g" unicode="g" horiz-adv-x="505" 
d="M284 82q-45 -54 -107 -54q-74 0 -114.5 66t-40.5 187q0 125 42.5 194t119.5 69q34 0 59 -14t48 -46v44h178v-471q0 -127 -58.5 -194.5t-167.5 -67.5q-102 0 -152.5 46t-57.5 145h177q2 -28 10.5 -39.5t25.5 -11.5q21 0 29.5 23t8.5 79v45zM284 296q0 65 -8 90t-28 25
q-22 0 -30.5 -26t-8.5 -99t8.5 -99t30.5 -26q21 0 28.5 23.5t7.5 89.5v22z" />
    <glyph glyph-name="h" unicode="h" horiz-adv-x="507" 
d="M288 0v382q0 13 -7.5 21t-19.5 8q-18 0 -29 -10t-11 -26v-375h-185v714h185v-229q51 59 121 59q62 0 96.5 -38.5t34.5 -108.5v-397h-185z" />
    <glyph glyph-name="i" unicode="i" horiz-adv-x="257" 
d="M36 0v528h185v-528h-185zM36 585v129h185v-129h-185z" />
    <glyph glyph-name="j" unicode="j" horiz-adv-x="257" 
d="M36 528h185v-546q0 -88 -43 -137.5t-121 -49.5q-57 0 -116 17l22 127q24 -5 35 -5q20 0 29 12.5t9 39.5v542zM36 585v129h185v-129h-185z" />
    <glyph glyph-name="k" unicode="k" horiz-adv-x="515" 
d="M325 0l-77 199l-36 -40v-159h-176v714h176v-356l118 170h175l-141 -190l150 -338h-189z" />
    <glyph glyph-name="l" unicode="l" horiz-adv-x="257" 
d="M36 0v714h185v-714h-185z" />
    <glyph glyph-name="m" unicode="m" horiz-adv-x="743" 
d="M524 0v382q0 13 -7 21t-18 8q-13 0 -23.5 -10t-10.5 -24v-377h-185v382q0 13 -7 21t-18 8q-13 0 -23.5 -10t-10.5 -24v-377h-185v528h178v-51q27 32 59.5 49.5t66.5 17.5q37 0 65 -20t43 -56q56 76 132 76q60 0 94.5 -44t34.5 -121v-379h-185z" />
    <glyph glyph-name="n" unicode="n" horiz-adv-x="507" 
d="M288 0v382q0 13 -7.5 21t-19.5 8q-18 0 -29 -10t-11 -26v-375h-185v528h178v-51q57 67 128 67q62 0 96.5 -38.5t34.5 -108.5v-397h-185z" />
    <glyph glyph-name="o" unicode="o" horiz-adv-x="494" 
d="M245 -16q-115 0 -169 67.5t-54 210.5t56 212.5t171 69.5t169 -67.5t54 -210.5t-56 -212.5t-171 -69.5zM246 117q17 0 25 13.5t11 45t3 89.5q0 89 -7 117.5t-30 28.5q-17 0 -25 -13.5t-11 -45t-3 -89.5q0 -89 7 -117.5t30 -28.5z" />
    <glyph glyph-name="p" unicode="p" horiz-adv-x="505" 
d="M36 -194v722h178v-57q28 38 56 55.5t60 17.5q153 0 153 -271q0 -289 -159 -289q-28 0 -57 15.5t-46 39.5v-233h-185zM221 254q0 -60 3.5 -88t11.5 -38.5t23 -10.5q16 0 23.5 13t10.5 44.5t3 89.5q0 65 -3.5 95t-11 41t-22.5 11q-17 0 -24.5 -12t-10.5 -41t-3 -84v-20z
" />
    <glyph glyph-name="q" unicode="q" horiz-adv-x="505" 
d="M284 -194v242q-46 -64 -109 -64q-153 0 -153 271q0 289 159 289q30 0 60 -17t50 -45v46h178v-722h-185zM284 274q0 60 -3.5 88t-11.5 38.5t-23 10.5q-16 0 -23.5 -13t-10.5 -44.5t-3 -89.5q0 -65 3.5 -95t11 -41t22.5 -11q17 0 24.5 12t10.5 41t3 84v20z" />
    <glyph glyph-name="r" unicode="r" horiz-adv-x="365" 
d="M36 0v528h178v-68q21 38 49.5 57.5t62.5 19.5q19 0 37 -5l-17 -167q-24 5 -46 5q-38 0 -58.5 -24.5t-20.5 -69.5v-276h-185z" />
    <glyph glyph-name="s" unicode="s" horiz-adv-x="427" 
d="M176 208q-88 22 -124.5 60.5t-36.5 109.5q0 77 54 121.5t148 44.5q88 0 133 -39t57 -126l-154 -14q-4 33 -13.5 47.5t-27.5 14.5q-32 0 -32 -39q0 -20 8.5 -31.5t27.5 -16.5l40 -11q48 -13 79 -29t49 -36.5t26 -47t8 -61.5q0 -80 -54 -125.5t-149 -45.5q-101 0 -150 44.5
t-56 139.5h158q5 -32 16 -46.5t32 -14.5q16 0 25.5 11.5t9.5 31.5q0 41 -33 48z" />
    <glyph glyph-name="t" unicode="t" horiz-adv-x="362" 
d="M357 11q-66 -20 -120 -20q-86 0 -125.5 41.5t-39.5 131.5v229h-68v135h68v137h185v-137h94v-135h-94v-216q0 -45 38 -45q20 0 44 7z" />
    <glyph glyph-name="u" unicode="u" horiz-adv-x="501" 
d="M287 0v54q-24 -33 -56.5 -51.5t-66.5 -18.5q-61 0 -95.5 43.5t-34.5 121.5v379h185v-376q0 -35 27 -35q15 0 24.5 10t9.5 26v375h185v-528h-178z" />
    <glyph glyph-name="v" unicode="v" horiz-adv-x="473" 
d="M137 0l-134 528h193l44 -371l43 371h187l-134 -528h-199z" />
    <glyph glyph-name="w" unicode="w" horiz-adv-x="671" 
d="M399 0l-61 293l-60 -293h-164l-110 528h181l36 -319l56 314h124l56 -312l37 317h173l-111 -528h-157z" />
    <glyph glyph-name="x" unicode="x" horiz-adv-x="492" 
d="M294 0l-58 135l-55 -135h-180l146 259l-141 269h197l51 -124l50 124h180l-141 -249l148 -279h-197z" />
    <glyph glyph-name="y" unicode="y" horiz-adv-x="476" 
d="M170 27l-167 501h192l53 -311l43 311h182l-157 -551q-28 -97 -69.5 -139.5t-107.5 -42.5q-57 0 -115 19l26 133q28 -7 51 -7q25 0 38 12.5t23 46.5z" />
    <glyph glyph-name="z" unicode="z" horiz-adv-x="408" 
d="M12 0v121l182 256h-172v151h376v-121l-182 -256h188l-14 -151h-378z" />
    <glyph glyph-name="braceleft" unicode="{" horiz-adv-x="355" 
d="M258 -124q-172 0 -172 182v106q0 32 -12 47.5t-37 15.5h-12v156h12q25 0 37 15.5t12 47.5v106q0 182 172 182h92v-156h-45q-44 0 -44 -52v-106q0 -45 -18.5 -73t-57.5 -42q39 -14 57.5 -42t18.5 -73v-106q0 -52 44 -52h45v-156h-92z" />
    <glyph glyph-name="bar" unicode="|" horiz-adv-x="290" 
d="M58 -124v858h174v-858h-174z" />
    <glyph glyph-name="braceright" unicode="}" horiz-adv-x="355" 
d="M269 58q0 -182 -172 -182h-92v156h45q44 0 44 52v106q0 45 18.5 73t57.5 42q-39 14 -57.5 42t-18.5 73v106q0 52 -44 52h-45v156h92q172 0 172 -182v-106q0 -32 12 -47.5t37 -15.5h12v-156h-12q-25 0 -37 -15.5t-12 -47.5v-106z" />
    <glyph glyph-name="asciitilde" unicode="~" horiz-adv-x="500" 
d="M490 465q0 -131 -32.5 -193t-101.5 -62q-28 0 -53.5 10.5t-60.5 35.5q-21 15 -30 19.5t-17 4.5q-19 0 -27 -15t-8 -49h-150q0 131 32.5 193t101.5 62q28 0 53.5 -10.5t60.5 -35.5q21 -15 30 -19.5t17 -4.5q19 0 27 15t8 49h150z" />
    <glyph glyph-name="uni00A0" unicode="&#xa0;" horiz-adv-x="167" 
 />
    <glyph glyph-name="exclamdown" unicode="&#xa1;" horiz-adv-x="238" 
d="M221 -186h-204l22 486h160zM204 351h-170v177h170v-177z" />
    <glyph glyph-name="cent" unicode="&#xa2;" horiz-adv-x="500" 
d="M211 -11v94q-95 10 -144 79.5t-49 195.5q0 127 49 198.5t144 83.5v93h68v-93q80 -8 124 -60t50 -145l-167 -14q-4 47 -13 66t-29 19q-24 0 -33 -31.5t-9 -115.5q0 -79 9.5 -109.5t34.5 -30.5q19 0 29 21t13 65h167q-4 -97 -49.5 -153.5t-126.5 -67.5v-95h-68z" />
    <glyph glyph-name="sterling" unicode="&#xa3;" horiz-adv-x="500" 
d="M43 0v131q27 39 39.5 70.5t14.5 64.5h-74v144h50q-11 44 -11 79q0 103 57 162t156 59q94 0 146.5 -54t59.5 -156l-166 -19q-4 62 -39 62q-22 0 -32 -17t-10 -53q0 -31 7 -63h170v-144h-151q-8 -54 -41 -107h274l-15 -159h-435z" />
    <glyph glyph-name="currency" unicode="&#xa4;" horiz-adv-x="500" 
d="M376 88l-51 58q-36 -13 -75 -13t-75 13l-51 -58l-112 97l50 56q-28 50 -28 107t28 107l-50 56l112 97l51 -58q36 13 75 13t75 -13l51 58l112 -97l-50 -56q28 -50 28 -107t-28 -107l50 -56zM250 250q74 0 74 98t-74 98t-74 -98t74 -98z" />
    <glyph glyph-name="yen" unicode="&#xa5;" horiz-adv-x="500" 
d="M161 0v121h-114v88h114v60h-114v88h81l-125 334h197l54 -232l52 232h191l-124 -334h82v-88h-114v-60h114v-88h-114v-121h-180z" />
    <glyph glyph-name="brokenbar" unicode="&#xa6;" horiz-adv-x="290" 
d="M58 -124v353h174v-353h-174zM58 397v337h174v-337h-174z" />
    <glyph glyph-name="section" unicode="&#xa7;" horiz-adv-x="482" 
d="M203 128q-94 22 -134 61.5t-40 109.5q0 79 71 121q-69 47 -69 136q0 82 57.5 129t155.5 47q88 0 137.5 -42.5t64.5 -129.5l-154 -14q-5 37 -17 53t-36 16q-40 0 -40 -49q0 -54 44 -63l40 -11q98 -27 135.5 -64.5t37.5 -108.5q0 -81 -68 -123q35 -25 51 -58t16 -78
q0 -85 -56.5 -133t-156.5 -48q-102 0 -154.5 47.5t-61.5 148.5h156q7 -37 21 -54t39 -17q22 0 33.5 13t11.5 38q0 53 -43 63zM239 258q4 -1 7.5 -1.5t6.5 -0.5q21 0 35 15t14 37q0 20 -13 34t-35 19l-9 2q-4 1 -7 1.5t-7 0.5q-21 0 -34.5 -15t-13.5 -37q0 -42 47 -53z" />
    <glyph glyph-name="dieresis" unicode="&#xa8;" horiz-adv-x="507" 
d="M72 585v129h158v-129h-158zM278 585v129h158v-129h-158z" />
    <glyph glyph-name="copyright" unicode="&#xa9;" horiz-adv-x="700" 
d="M350 0q-89 0 -160.5 44t-113.5 125.5t-42 187.5q0 101 39 181.5t111 128t166 47.5q89 0 160.5 -44t113.5 -125.5t42 -187.5q0 -101 -39 -181.5t-111 -128t-166 -47.5zM350 85q65 0 116 33t80 94.5t29 144.5q0 79 -27 140.5t-78 96.5t-120 35q-65 0 -116 -33t-80 -94.5
t-29 -144.5q0 -79 27 -140.5t78 -96.5t120 -35zM508 317q-5 -78 -43.5 -118.5t-108.5 -40.5q-79 0 -120.5 50t-41.5 145q0 97 42 150.5t119 53.5q134 0 150 -145l-112 -14q-3 23 -11.5 34t-24.5 11q-23 0 -33.5 -20.5t-10.5 -67.5q0 -45 10 -64t34 -19q33 0 40 45h111z" />
    <glyph glyph-name="ordfeminine" unicode="&#xaa;" horiz-adv-x="366" 
d="M210 334v35q-35 -45 -88 -45q-49 0 -77.5 31t-28.5 85q0 60 40.5 94t116.5 39l32 2v27q0 37 -22 37q-11 0 -17 -9.5t-8 -31.5l-122 8q15 126 153 126q74 0 110 -36t36 -110v-252h-125zM205 496l-16 -1q-21 -2 -32 -13.5t-11 -30.5q0 -29 25 -29q15 0 24.5 14.5t9.5 37.5
v22z" />
    <glyph glyph-name="guillemotleft" unicode="&#xab;" horiz-adv-x="559" 
d="M110 28l-92 228l91 230h188l-90 -229l90 -229h-187zM348 28l-92 228l91 230h188l-90 -229l90 -229h-187z" />
    <glyph glyph-name="logicalnot" unicode="&#xac;" horiz-adv-x="500" 
d="M271 157v126h-223v169h395v-295h-172z" />
    <glyph glyph-name="uni00AD" unicode="&#xad;" horiz-adv-x="332" 
d="M20 210v184h292v-184h-292z" />
    <glyph glyph-name="registered" unicode="&#xae;" horiz-adv-x="446" 
d="M223 282q-57 0 -103 27.5t-73 79t-27 118.5q0 63 25 114t71 81t107 30q57 0 103 -27.5t73 -79t27 -118.5q0 -63 -25 -114t-71 -81t-107 -30zM223 341q66 0 102 43.5t36 122.5t-36 122.5t-102 43.5t-102 -43.5t-36 -122.5t36 -122.5t102 -43.5zM251 402l-23 65h-18v-65
h-65v216h88q37 0 58.5 -20.5t21.5 -54.5q0 -40 -28 -59l34 -82h-68zM226 518q20 0 20 23t-20 23h-16v-46h16z" />
    <glyph glyph-name="macron" unicode="&#xaf;" horiz-adv-x="507" 
d="M116 600v139h276v-139h-276z" />
    <glyph glyph-name="degree" unicode="&#xb0;" horiz-adv-x="330" 
d="M318 562q0 -65 -44 -108.5t-109 -43.5t-109 43.5t-44 108.5t44 108.5t109 43.5t109 -43.5t44 -108.5zM165 519q18 0 29.5 12t11.5 31t-11.5 31t-29.5 12t-29.5 -12t-11.5 -31t11.5 -31t29.5 -12z" />
    <glyph glyph-name="plusminus" unicode="&#xb1;" horiz-adv-x="500" 
d="M47 0v169h117v87h-127v169h127v148h172v-148h127v-169h-127v-87h117v-169h-406z" />
    <glyph glyph-name="uni00B2" unicode="&#xb2;" 
d="M47 406v100q39 34 81 76q43 43 56.5 63t13.5 41q0 17 -4.5 24.5t-14.5 7.5t-15.5 -10t-9.5 -33l-115 11q24 142 149 142q59 0 94.5 -36t35.5 -95q0 -72 -73 -145q-22 -22 -37 -34h115l-9 -112h-267z" />
    <glyph glyph-name="uni00B3" unicode="&#xb3;" 
d="M154 570v88h20q22 0 22 35q0 34 -19 34q-20 0 -23 -41l-117 10q8 65 45.5 98.5t101.5 33.5q62 0 99.5 -32.5t37.5 -87.5q0 -59 -46 -88q54 -31 54 -94q0 -60 -40.5 -96.5t-107.5 -36.5q-71 0 -110 40t-40 113h119q0 -53 28 -53q12 0 17 9t5 30q0 18 -6.5 28t-17.5 10h-22
z" />
    <glyph glyph-name="acute" unicode="&#xb4;" horiz-adv-x="507" 
d="M107 583l108 177h185l-146 -177h-147z" />
    <glyph glyph-name="mu" unicode="&#xb5;" horiz-adv-x="503" 
d="M289 0v53q-13 -25 -34 -39t-46 -14h-4v-194h-169v722h185v-376q0 -35 27 -35q15 0 24.5 10t9.5 26v375h185v-528h-178z" />
    <glyph glyph-name="paragraph" unicode="&#xb6;" horiz-adv-x="633" 
d="M433 -139v693h-60v-693h-165v353q-95 14 -146 77t-51 166q0 123 73.5 190t208.5 67h305v-853h-165z" />
    <glyph glyph-name="periodcentered" unicode="&#xb7;" horiz-adv-x="238" 
d="M34 273v203h170v-203h-170z" />
    <glyph glyph-name="cedilla" unicode="&#xb8;" horiz-adv-x="507" 
d="M151 -137q32 -4 54 -4q33 0 33 22q0 23 -40 23h-31l37 107l81 -11l-15 -46q87 -15 87 -86q0 -45 -35 -70t-100 -25q-39 0 -71 7v83z" />
    <glyph glyph-name="uni00B9" unicode="&#xb9;" 
d="M157 406v268l-67 -50l-61 91l139 100h117v-409h-128z" />
    <glyph glyph-name="ordmasculine" unicode="&#xba;" horiz-adv-x="386" 
d="M191 316q-83 0 -127 53t-44 154t45.5 155t129.5 54q83 0 127 -53t44 -154t-45.5 -155t-129.5 -54zM193 441q17 0 23 18t6 64t-6.5 65t-22.5 19q-17 0 -23 -18t-6 -64t6.5 -65t22.5 -19z" />
    <glyph glyph-name="guillemotright" unicode="&#xbb;" horiz-adv-x="559" 
d="M24 28l90 229l-90 229h187l92 -228l-91 -230h-188zM262 28l90 229l-90 229h187l92 -228l-91 -230h-188z" />
    <glyph glyph-name="onequarter" unicode="&#xbc;" horiz-adv-x="888" 
d="M236 0l299 691h152l-299 -691h-152zM718 0v76h-155v92l139 241h133v-237h36l-8 -96h-28v-76h-117zM718 266l-52 -94h52v94zM157 282v268l-67 -50l-61 91l139 100h117v-409h-128z" />
    <glyph glyph-name="onehalf" unicode="&#xbd;" horiz-adv-x="888" 
d="M220 0l299 691h152l-299 -691h-152zM583 0v100q39 34 81 76q43 43 56.5 63t13.5 41q0 17 -4.5 24.5t-14.5 7.5t-15.5 -10t-9.5 -33l-115 11q24 142 149 142q59 0 94.5 -36t35.5 -95q0 -72 -73 -145q-22 -22 -37 -34h115l-9 -112h-267zM157 282v268l-67 -50l-61 91
l139 100h117v-409h-128z" />
    <glyph glyph-name="threequarters" unicode="&#xbe;" horiz-adv-x="888" 
d="M241 0l299 691h152l-299 -691h-152zM718 0v76h-155v92l139 241h133v-237h36l-8 -96h-28v-76h-117zM718 266l-52 -94h52v94zM154 446v88h20q22 0 22 35q0 34 -19 34q-20 0 -23 -41l-117 10q8 65 45.5 98.5t101.5 33.5q62 0 99.5 -32.5t37.5 -87.5q0 -59 -46 -88
q54 -31 54 -94q0 -60 -40.5 -96.5t-107.5 -36.5q-71 0 -110 40t-40 113h119q0 -53 28 -53q12 0 17 9t5 30q0 18 -6.5 28t-17.5 10h-22z" />
    <glyph glyph-name="questiondown" unicode="&#xbf;" horiz-adv-x="457" 
d="M453 24q-8 -107 -69 -164.5t-166 -57.5q-62 0 -110 22t-75 63t-27 96q0 47 18 85.5t61 83.5q33 35 46 65t13 70v13h161v-25q0 -57 -13 -92t-48 -74q-32 -34 -42.5 -52.5t-10.5 -40.5q0 -51 41 -51q24 0 37 18t16 56zM140 351v177h170v-177h-170z" />
    <glyph glyph-name="Agrave" unicode="&#xc0;" horiz-adv-x="613" 
d="M412 0l-25 130h-166l-26 -130h-190l184 714h243l176 -714h-196zM305 559l-54 -276h107zM259 772l-150 166h199l108 -166h-157z" />
    <glyph glyph-name="Aacute" unicode="&#xc1;" horiz-adv-x="613" 
d="M412 0l-25 130h-166l-26 -130h-190l184 714h243l176 -714h-196zM305 559l-54 -276h107zM196 772l108 166h199l-150 -166h-157z" />
    <glyph glyph-name="Acircumflex" unicode="&#xc2;" horiz-adv-x="613" 
d="M412 0l-25 130h-166l-26 -130h-190l184 714h243l176 -714h-196zM305 559l-54 -276h107zM345 772l-41 76l-41 -76h-148l107 166h168l107 -166h-152z" />
    <glyph glyph-name="Atilde" unicode="&#xc3;" horiz-adv-x="613" 
d="M412 0l-25 130h-166l-26 -130h-190l184 714h243l176 -714h-196zM305 559l-54 -276h107zM128 763q2 84 29.5 127t77.5 43q33 0 72 -25q27 -16 40 -16q26 0 26 43h111q-2 -84 -29.5 -127t-77.5 -43q-33 0 -72 25q-27 16 -40 16q-26 0 -26 -43h-111z" />
    <glyph glyph-name="Adieresis" unicode="&#xc4;" horiz-adv-x="613" 
d="M412 0l-25 130h-166l-26 -130h-190l184 714h243l176 -714h-196zM305 559l-54 -276h107zM112 775v150h167v-150h-167zM333 775v150h167v-150h-167z" />
    <glyph glyph-name="Aring" unicode="&#xc5;" horiz-adv-x="613" 
d="M412 0l-25 130h-166l-26 -130h-190l187 700q-13 26 -13 66q0 62 36.5 101t94.5 39t94 -39t36 -101q0 -33 -13 -63l181 -703h-196zM305 550l-53 -267h105zM310 717q35 0 35 49q0 23 -9 36t-26 13t-26.5 -13t-9.5 -36q0 -49 36 -49z" />
    <glyph glyph-name="AE" unicode="&#xc6;" horiz-adv-x="882" 
d="M427 0v152h-177l-52 -152h-193l276 714h560v-166h-220v-105h205v-166h-205v-111h236l-15 -166h-415zM427 548h-41l-83 -243h124v243z" />
    <glyph glyph-name="Ccedilla" unicode="&#xc7;" horiz-adv-x="601" 
d="M584 286q-6 -145 -77 -224.5t-194 -79.5q-137 0 -208 94.5t-71 275.5q0 185 73 282.5t211 97.5q111 0 178.5 -73t82.5 -210l-193 -21q-7 70 -23 98.5t-47 28.5q-43 0 -61 -45t-18 -151q0 -107 19.5 -153.5t63.5 -46.5q34 0 51.5 30t22.5 97h190zM221 -142q27 -4 53 -4
q16 0 25.5 6.5t9.5 17.5q0 25 -40 25h-32l36 110l88 -13l-14 -44q86 -16 86 -91q0 -47 -36.5 -72.5t-102.5 -25.5q-35 0 -73 7v84z" />
    <glyph glyph-name="Egrave" unicode="&#xc8;" horiz-adv-x="532" 
d="M58 0v714h433v-166h-239v-105h224v-166h-224v-111h255l-15 -166h-434zM228 772l-150 166h199l108 -166h-157z" />
    <glyph glyph-name="Eacute" unicode="&#xc9;" horiz-adv-x="532" 
d="M58 0v714h433v-166h-239v-105h224v-166h-224v-111h255l-15 -166h-434zM165 772l108 166h199l-150 -166h-157z" />
    <glyph glyph-name="Ecircumflex" unicode="&#xca;" horiz-adv-x="532" 
d="M58 0v714h433v-166h-239v-105h224v-166h-224v-111h255l-15 -166h-434zM314 772l-41 76l-41 -76h-148l107 166h168l107 -166h-152z" />
    <glyph glyph-name="Edieresis" unicode="&#xcb;" horiz-adv-x="532" 
d="M58 0v714h433v-166h-239v-105h224v-166h-224v-111h255l-15 -166h-434zM81 775v150h167v-150h-167zM302 775v150h167v-150h-167z" />
    <glyph glyph-name="Igrave" unicode="&#xcc;" horiz-adv-x="312" 
d="M58 0v714h196v-714h-196zM109 772l-150 166h199l108 -166h-157z" />
    <glyph glyph-name="Iacute" unicode="&#xcd;" horiz-adv-x="312" 
d="M58 0v714h196v-714h-196zM46 772l108 166h199l-150 -166h-157z" />
    <glyph glyph-name="Icircumflex" unicode="&#xce;" horiz-adv-x="312" 
d="M58 0v714h196v-714h-196zM195 772l-41 76l-41 -76h-148l107 166h168l107 -166h-152z" />
    <glyph glyph-name="Idieresis" unicode="&#xcf;" horiz-adv-x="312" 
d="M58 0v714h196v-714h-196zM-38 775v150h167v-150h-167zM183 775v150h167v-150h-167z" />
    <glyph glyph-name="Eth" unicode="&#xd0;" horiz-adv-x="644" 
d="M66 0v276h-50v165h50v273h230q155 0 234.5 -89.5t79.5 -262.5q0 -175 -80 -268.5t-231 -93.5h-233zM311 167q103 0 103 192q0 95 -26 141.5t-79 46.5h-57v-106h82v-165h-82v-109h59z" />
    <glyph glyph-name="Ntilde" unicode="&#xd1;" horiz-adv-x="642" 
d="M410 0l-172 359v-359h-180v714h174l172 -359v359h180v-714h-174zM143 763q2 84 29.5 127t77.5 43q33 0 72 -25q27 -16 40 -16q26 0 26 43h111q-2 -84 -29.5 -127t-77.5 -43q-33 0 -72 25q-27 16 -40 16q-26 0 -26 -43h-111z" />
    <glyph glyph-name="Ograve" unicode="&#xd2;" horiz-adv-x="651" 
d="M323 -18q-143 0 -216 94t-73 277q0 186 74.5 282.5t219.5 96.5q143 0 216 -94t73 -277q0 -186 -74.5 -282.5t-219.5 -96.5zM325 159q48 0 68.5 45.5t20.5 153.5q0 107 -20 152t-68 45t-68.5 -45.5t-20.5 -153.5q0 -107 20 -152t68 -45zM279 772l-150 166h199l108 -166
h-157z" />
    <glyph glyph-name="Oacute" unicode="&#xd3;" horiz-adv-x="651" 
d="M323 -18q-143 0 -216 94t-73 277q0 186 74.5 282.5t219.5 96.5q143 0 216 -94t73 -277q0 -186 -74.5 -282.5t-219.5 -96.5zM325 159q48 0 68.5 45.5t20.5 153.5q0 107 -20 152t-68 45t-68.5 -45.5t-20.5 -153.5q0 -107 20 -152t68 -45zM216 772l108 166h199l-150 -166
h-157z" />
    <glyph glyph-name="Ocircumflex" unicode="&#xd4;" horiz-adv-x="651" 
d="M323 -18q-143 0 -216 94t-73 277q0 186 74.5 282.5t219.5 96.5q143 0 216 -94t73 -277q0 -186 -74.5 -282.5t-219.5 -96.5zM325 159q48 0 68.5 45.5t20.5 153.5q0 107 -20 152t-68 45t-68.5 -45.5t-20.5 -153.5q0 -107 20 -152t68 -45zM365 772l-41 76l-41 -76h-148
l107 166h168l107 -166h-152z" />
    <glyph glyph-name="Otilde" unicode="&#xd5;" horiz-adv-x="651" 
d="M323 -18q-143 0 -216 94t-73 277q0 186 74.5 282.5t219.5 96.5q143 0 216 -94t73 -277q0 -186 -74.5 -282.5t-219.5 -96.5zM325 159q48 0 68.5 45.5t20.5 153.5q0 107 -20 152t-68 45t-68.5 -45.5t-20.5 -153.5q0 -107 20 -152t68 -45zM148 763q2 84 29.5 127t77.5 43
q33 0 72 -25q27 -16 40 -16q26 0 26 43h111q-2 -84 -29.5 -127t-77.5 -43q-33 0 -72 25q-27 16 -40 16q-26 0 -26 -43h-111z" />
    <glyph glyph-name="Odieresis" unicode="&#xd6;" horiz-adv-x="651" 
d="M323 -18q-143 0 -216 94t-73 277q0 186 74.5 282.5t219.5 96.5q143 0 216 -94t73 -277q0 -186 -74.5 -282.5t-219.5 -96.5zM325 159q48 0 68.5 45.5t20.5 153.5q0 107 -20 152t-68 45t-68.5 -45.5t-20.5 -153.5q0 -107 20 -152t68 -45zM132 775v150h167v-150h-167z
M353 775v150h167v-150h-167z" />
    <glyph glyph-name="multiply" unicode="&#xd7;" horiz-adv-x="500" 
d="M250 218l-108 -108l-123 123l108 108l-108 108l123 123l108 -108l108 108l123 -123l-108 -108l108 -108l-123 -123z" />
    <glyph glyph-name="Oslash" unicode="&#xd8;" horiz-adv-x="651" 
d="M69 -29l49 92q-84 95 -84 291q0 186 74.5 282t219.5 96q82 0 135 -28l42 79l77 -40l-49 -92q84 -94 84 -290q0 -187 -74.5 -283t-219.5 -96q-82 0 -135 28l-42 -79zM374 538q-18 17 -49 17q-48 0 -68 -44.5t-20 -153.5q0 -21 2 -69zM277 176q18 -17 48 -17
q48 0 68.5 45.5t20.5 152.5q0 38 -3 68z" />
    <glyph glyph-name="Ugrave" unicode="&#xd9;" horiz-adv-x="620" 
d="M378 714h196v-444q0 -141 -67.5 -214.5t-196.5 -73.5t-196.5 73.5t-67.5 214.5v444h196v-459q0 -50 16 -73t52 -23t52 23t16 73v459zM263 772l-150 166h199l108 -166h-157z" />
    <glyph glyph-name="Uacute" unicode="&#xda;" horiz-adv-x="620" 
d="M378 714h196v-444q0 -141 -67.5 -214.5t-196.5 -73.5t-196.5 73.5t-67.5 214.5v444h196v-459q0 -50 16 -73t52 -23t52 23t16 73v459zM200 772l108 166h199l-150 -166h-157z" />
    <glyph glyph-name="Ucircumflex" unicode="&#xdb;" horiz-adv-x="620" 
d="M378 714h196v-444q0 -141 -67.5 -214.5t-196.5 -73.5t-196.5 73.5t-67.5 214.5v444h196v-459q0 -50 16 -73t52 -23t52 23t16 73v459zM349 772l-41 76l-41 -76h-148l107 166h168l107 -166h-152z" />
    <glyph glyph-name="Udieresis" unicode="&#xdc;" horiz-adv-x="620" 
d="M378 714h196v-444q0 -141 -67.5 -214.5t-196.5 -73.5t-196.5 73.5t-67.5 214.5v444h196v-459q0 -50 16 -73t52 -23t52 23t16 73v459zM116 775v150h167v-150h-167zM337 775v150h167v-150h-167z" />
    <glyph glyph-name="Yacute" unicode="&#xdd;" horiz-adv-x="570" 
d="M187 0v263l-185 451h210l76 -271l76 271h204l-185 -451v-263h-196zM177 772l108 166h199l-150 -166h-157z" />
    <glyph glyph-name="Thorn" unicode="&#xde;" horiz-adv-x="564" 
d="M58 0v714h188v-107h40q120 0 188.5 -65.5t68.5 -179.5q0 -73 -31 -128.5t-89 -87t-136 -31.5h-41v-115h-188zM286 279q82 0 82 82t-82 82h-40v-164h40z" />
    <glyph glyph-name="germandbls" unicode="&#xdf;" horiz-adv-x="525" 
d="M252 139q9 -1 14 -1.5t8 -0.5q25 0 39.5 22.5t14.5 60.5q0 77 -69 77h-20v145h13q19 0 30 17.5t11 47.5q0 61 -40 61q-44 0 -44 -71v-497h-181v486q0 111 62 173.5t171 62.5q96 0 152.5 -50.5t56.5 -136.5t-79 -138q57 -18 87.5 -66t30.5 -122q0 -106 -50.5 -165.5
t-141.5 -59.5q-41 0 -82 13z" />
    <glyph glyph-name="agrave" unicode="&#xe0;" horiz-adv-x="474" 
d="M278 0v51q-23 -32 -54.5 -48.5t-67.5 -16.5q-65 0 -101.5 42t-36.5 117q0 162 201 178l51 4v39q0 30 -7.5 44t-24.5 14t-26 -14.5t-12 -48.5l-164 11q10 87 61 129.5t145 42.5q101 0 149.5 -48.5t48.5 -150.5v-345h-162zM270 221l-28 -3q-28 -2 -44 -18t-16 -42
q0 -45 37 -45q24 0 37.5 21.5t13.5 59.5v27zM200 583l-146 177h185l108 -177h-147z" />
    <glyph glyph-name="aacute" unicode="&#xe1;" horiz-adv-x="474" 
d="M278 0v51q-23 -32 -54.5 -48.5t-67.5 -16.5q-65 0 -101.5 42t-36.5 117q0 162 201 178l51 4v39q0 30 -7.5 44t-24.5 14t-26 -14.5t-12 -48.5l-164 11q10 87 61 129.5t145 42.5q101 0 149.5 -48.5t48.5 -150.5v-345h-162zM270 221l-28 -3q-28 -2 -44 -18t-16 -42
q0 -45 37 -45q24 0 37.5 21.5t13.5 59.5v27zM141 583l108 177h185l-146 -177h-147z" />
    <glyph glyph-name="acircumflex" unicode="&#xe2;" horiz-adv-x="474" 
d="M278 0v51q-23 -32 -54.5 -48.5t-67.5 -16.5q-65 0 -101.5 42t-36.5 117q0 162 201 178l51 4v39q0 30 -7.5 44t-24.5 14t-26 -14.5t-12 -48.5l-164 11q10 87 61 129.5t145 42.5q101 0 149.5 -48.5t48.5 -150.5v-345h-162zM270 221l-28 -3q-28 -2 -44 -18t-16 -42
q0 -45 37 -45q24 0 37.5 21.5t13.5 59.5v27zM283 583l-40 85l-42 -85h-143l109 177h151l112 -177h-147z" />
    <glyph glyph-name="atilde" unicode="&#xe3;" horiz-adv-x="474" 
d="M278 0v51q-23 -32 -54.5 -48.5t-67.5 -16.5q-65 0 -101.5 42t-36.5 117q0 162 201 178l51 4v39q0 30 -7.5 44t-24.5 14t-26 -14.5t-12 -48.5l-164 11q10 87 61 129.5t145 42.5q101 0 149.5 -48.5t48.5 -150.5v-345h-162zM270 221l-28 -3q-28 -2 -44 -18t-16 -42
q0 -45 37 -45q24 0 37.5 21.5t13.5 59.5v27zM71 580q0 83 26.5 126.5t77.5 43.5q20 0 35.5 -5.5t34.5 -19.5q25 -16 38 -16q26 0 26 43h108q0 -83 -26.5 -126.5t-77.5 -43.5q-20 0 -35.5 5.5t-34.5 19.5q-25 16 -38 16q-26 0 -26 -43h-108z" />
    <glyph glyph-name="adieresis" unicode="&#xe4;" horiz-adv-x="474" 
d="M278 0v51q-23 -32 -54.5 -48.5t-67.5 -16.5q-65 0 -101.5 42t-36.5 117q0 162 201 178l51 4v39q0 30 -7.5 44t-24.5 14t-26 -14.5t-12 -48.5l-164 11q10 87 61 129.5t145 42.5q101 0 149.5 -48.5t48.5 -150.5v-345h-162zM270 221l-28 -3q-28 -2 -44 -18t-16 -42
q0 -45 37 -45q24 0 37.5 21.5t13.5 59.5v27zM62 585v129h158v-129h-158zM268 585v129h158v-129h-158z" />
    <glyph glyph-name="aring" unicode="&#xe5;" horiz-adv-x="474" 
d="M278 0v51q-23 -32 -54.5 -48.5t-67.5 -16.5q-65 0 -101.5 42t-36.5 117q0 162 201 178l51 4v39q0 30 -7.5 44t-24.5 14t-26 -14.5t-12 -48.5l-164 11q10 87 61 129.5t145 42.5q101 0 149.5 -48.5t48.5 -150.5v-345h-162zM270 221l-28 -3q-28 -2 -44 -18t-16 -42
q0 -45 37 -45q24 0 37.5 21.5t13.5 59.5v27zM244 567q-53 0 -86.5 35t-33.5 91t33.5 91t86.5 35t86.5 -35t33.5 -91t-33.5 -91t-86.5 -35zM244 652q14 0 22.5 11t8.5 30t-8.5 30t-22.5 11t-22.5 -11t-8.5 -30t8.5 -30t22.5 -11z" />
    <glyph glyph-name="ae" unicode="&#xe6;" horiz-adv-x="718" 
d="M699 174q-7 -94 -61 -142t-153 -48q-54 0 -93.5 21.5t-55.5 58.5q-24 -38 -65 -58t-93 -20q-75 0 -117.5 42t-42.5 117q0 162 201 178l51 4v39q0 30 -7.5 44t-24.5 14t-26 -14.5t-12 -48.5l-164 11q10 87 61 129.5t145 42.5q82 0 125 -52q49 52 125 52q103 0 155 -66.5
t52 -197.5v-57h-259q1 -67 11 -91.5t35 -24.5q21 0 31 16t11 51h171zM270 221l-28 -3q-28 -3 -44 -18.5t-16 -41.5q0 -45 37 -45q24 0 37.5 21.5t13.5 59.5v27zM531 318q-1 61 -10.5 83t-32.5 22q-24 0 -34.5 -23t-12.5 -82h90z" />
    <glyph glyph-name="ccedilla" unicode="&#xe7;" horiz-adv-x="466" 
d="M449 222q-9 -238 -207 -238q-220 0 -220 276q0 284 222 284q96 0 146 -55.5t57 -168.5l-170 -14q-2 61 -9 81.5t-25 20.5q-15 0 -22 -13t-9.5 -43.5t-2.5 -90.5q0 -62 3.5 -91t11 -39.5t21.5 -10.5q18 0 25.5 23.5t8.5 78.5h170zM156 -137q32 -4 54 -4q33 0 33 22
q0 23 -40 23h-31l37 107l81 -11l-15 -46q87 -15 87 -86q0 -45 -35 -70t-100 -25q-39 0 -71 7v83z" />
    <glyph glyph-name="egrave" unicode="&#xe8;" horiz-adv-x="477" 
d="M458 174q-14 -190 -212 -190q-117 0 -170.5 65t-53.5 208q0 145 56 216t171 71q209 0 209 -264v-57h-259q1 -67 11 -91.5t35 -24.5q21 0 31 16t11 51h171zM290 318q-1 61 -10.5 83t-32.5 22q-24 0 -34.5 -23t-12.5 -82h90zM205 583l-146 177h185l108 -177h-147z" />
    <glyph glyph-name="eacute" unicode="&#xe9;" horiz-adv-x="477" 
d="M458 174q-14 -190 -212 -190q-117 0 -170.5 65t-53.5 208q0 145 56 216t171 71q209 0 209 -264v-57h-259q1 -67 11 -91.5t35 -24.5q21 0 31 16t11 51h171zM290 318q-1 61 -10.5 83t-32.5 22q-24 0 -34.5 -23t-12.5 -82h90zM146 583l108 177h185l-146 -177h-147z" />
    <glyph glyph-name="ecircumflex" unicode="&#xea;" horiz-adv-x="477" 
d="M458 174q-14 -190 -212 -190q-117 0 -170.5 65t-53.5 208q0 145 56 216t171 71q209 0 209 -264v-57h-259q1 -67 11 -91.5t35 -24.5q21 0 31 16t11 51h171zM290 318q-1 61 -10.5 83t-32.5 22q-24 0 -34.5 -23t-12.5 -82h90zM288 583l-40 85l-42 -85h-143l109 177h151
l112 -177h-147z" />
    <glyph glyph-name="edieresis" unicode="&#xeb;" horiz-adv-x="477" 
d="M458 174q-14 -190 -212 -190q-117 0 -170.5 65t-53.5 208q0 145 56 216t171 71q209 0 209 -264v-57h-259q1 -67 11 -91.5t35 -24.5q21 0 31 16t11 51h171zM290 318q-1 61 -10.5 83t-32.5 22q-24 0 -34.5 -23t-12.5 -82h90zM67 585v129h158v-129h-158zM273 585v129h158
v-129h-158z" />
    <glyph glyph-name="igrave" unicode="&#xec;" horiz-adv-x="257" 
d="M36 0v528h185v-528h-185zM84 583l-146 177h185l108 -177h-147z" />
    <glyph glyph-name="iacute" unicode="&#xed;" horiz-adv-x="257" 
d="M36 0v528h185v-528h-185zM25 583l108 177h185l-146 -177h-147z" />
    <glyph glyph-name="icircumflex" unicode="&#xee;" horiz-adv-x="257" 
d="M36 0v528h185v-528h-185zM167 583l-40 85l-42 -85h-143l109 177h151l112 -177h-147z" />
    <glyph glyph-name="idieresis" unicode="&#xef;" horiz-adv-x="257" 
d="M36 0v528h185v-528h-185zM-54 585v129h158v-129h-158zM152 585v129h158v-129h-158z" />
    <glyph glyph-name="eth" unicode="&#xf0;" horiz-adv-x="500" 
d="M142 548l43 48q-33 12 -90 16l25 139q97 -9 166 -42l66 73l54 -51l-57 -63q66 -55 97.5 -150.5t31.5 -239.5q0 -294 -230 -294q-110 0 -168 63t-58 181q0 113 51.5 180t138.5 67q60 0 98 -36q-10 79 -58 121l-56 -62zM250 115q23 0 32 25t9 90t-9 89.5t-32 24.5
t-32 -24.5t-9 -89.5t9 -90t32 -25z" />
    <glyph glyph-name="ntilde" unicode="&#xf1;" horiz-adv-x="507" 
d="M288 0v382q0 13 -7.5 21t-19.5 8q-18 0 -29 -10t-11 -26v-375h-185v528h178v-51q57 67 128 67q62 0 96.5 -38.5t34.5 -108.5v-397h-185zM82 580q0 83 26.5 126.5t77.5 43.5q20 0 35.5 -5.5t34.5 -19.5q25 -16 38 -16q26 0 26 43h108q0 -83 -26.5 -126.5t-77.5 -43.5
q-20 0 -35.5 5.5t-34.5 19.5q-25 16 -38 16q-26 0 -26 -43h-108z" />
    <glyph glyph-name="ograve" unicode="&#xf2;" horiz-adv-x="494" 
d="M245 -16q-115 0 -169 67.5t-54 210.5t56 212.5t171 69.5t169 -67.5t54 -210.5t-56 -212.5t-171 -69.5zM246 117q17 0 25 13.5t11 45t3 89.5q0 89 -7 117.5t-30 28.5q-17 0 -25 -13.5t-11 -45t-3 -89.5q0 -89 7 -117.5t30 -28.5zM203 583l-146 177h185l108 -177h-147z" />
    <glyph glyph-name="oacute" unicode="&#xf3;" horiz-adv-x="494" 
d="M245 -16q-115 0 -169 67.5t-54 210.5t56 212.5t171 69.5t169 -67.5t54 -210.5t-56 -212.5t-171 -69.5zM246 117q17 0 25 13.5t11 45t3 89.5q0 89 -7 117.5t-30 28.5q-17 0 -25 -13.5t-11 -45t-3 -89.5q0 -89 7 -117.5t30 -28.5zM144 583l108 177h185l-146 -177h-147z" />
    <glyph glyph-name="ocircumflex" unicode="&#xf4;" horiz-adv-x="494" 
d="M245 -16q-115 0 -169 67.5t-54 210.5t56 212.5t171 69.5t169 -67.5t54 -210.5t-56 -212.5t-171 -69.5zM246 117q17 0 25 13.5t11 45t3 89.5q0 89 -7 117.5t-30 28.5q-17 0 -25 -13.5t-11 -45t-3 -89.5q0 -89 7 -117.5t30 -28.5zM286 583l-40 85l-42 -85h-143l109 177h151
l112 -177h-147z" />
    <glyph glyph-name="otilde" unicode="&#xf5;" horiz-adv-x="494" 
d="M245 -16q-115 0 -169 67.5t-54 210.5t56 212.5t171 69.5t169 -67.5t54 -210.5t-56 -212.5t-171 -69.5zM246 117q17 0 25 13.5t11 45t3 89.5q0 89 -7 117.5t-30 28.5q-17 0 -25 -13.5t-11 -45t-3 -89.5q0 -89 7 -117.5t30 -28.5zM74 580q0 83 26.5 126.5t77.5 43.5
q20 0 35.5 -5.5t34.5 -19.5q25 -16 38 -16q26 0 26 43h108q0 -83 -26.5 -126.5t-77.5 -43.5q-20 0 -35.5 5.5t-34.5 19.5q-25 16 -38 16q-26 0 -26 -43h-108z" />
    <glyph glyph-name="odieresis" unicode="&#xf6;" horiz-adv-x="494" 
d="M245 -16q-115 0 -169 67.5t-54 210.5t56 212.5t171 69.5t169 -67.5t54 -210.5t-56 -212.5t-171 -69.5zM246 117q17 0 25 13.5t11 45t3 89.5q0 89 -7 117.5t-30 28.5q-17 0 -25 -13.5t-11 -45t-3 -89.5q0 -89 7 -117.5t30 -28.5zM65 585v129h158v-129h-158zM271 585v129
h158v-129h-158z" />
    <glyph glyph-name="divide" unicode="&#xf7;" horiz-adv-x="500" 
d="M37 256v169h426v-169h-426zM178 61v139h144v-139h-144zM178 481v139h144v-139h-144z" />
    <glyph glyph-name="oslash" unicode="&#xf8;" horiz-adv-x="494" 
d="M37 -33l44 78q-59 68 -59 217q0 143 56 212.5t171 69.5q55 0 101 -17l41 72l66 -38l-44 -78q59 -68 59 -217q0 -143 -56 -212.5t-171 -69.5q-55 0 -101 17l-41 -72zM284 409q-12 15 -37 15t-38 -15.5t-18.5 -50t-5.5 -94.5v-32zM210 119q12 -15 37 -15t38 15.5t18.5 50
t5.5 94.5v32z" />
    <glyph glyph-name="ugrave" unicode="&#xf9;" horiz-adv-x="501" 
d="M287 0v54q-24 -33 -56.5 -51.5t-66.5 -18.5q-61 0 -95.5 43.5t-34.5 121.5v379h185v-376q0 -35 27 -35q15 0 24.5 10t9.5 26v375h185v-528h-178zM206 583l-146 177h185l108 -177h-147z" />
    <glyph glyph-name="uacute" unicode="&#xfa;" horiz-adv-x="501" 
d="M287 0v54q-24 -33 -56.5 -51.5t-66.5 -18.5q-61 0 -95.5 43.5t-34.5 121.5v379h185v-376q0 -35 27 -35q15 0 24.5 10t9.5 26v375h185v-528h-178zM147 583l108 177h185l-146 -177h-147z" />
    <glyph glyph-name="ucircumflex" unicode="&#xfb;" horiz-adv-x="501" 
d="M287 0v54q-24 -33 -56.5 -51.5t-66.5 -18.5q-61 0 -95.5 43.5t-34.5 121.5v379h185v-376q0 -35 27 -35q15 0 24.5 10t9.5 26v375h185v-528h-178zM289 583l-40 85l-42 -85h-143l109 177h151l112 -177h-147z" />
    <glyph glyph-name="udieresis" unicode="&#xfc;" horiz-adv-x="501" 
d="M287 0v54q-24 -33 -56.5 -51.5t-66.5 -18.5q-61 0 -95.5 43.5t-34.5 121.5v379h185v-376q0 -35 27 -35q15 0 24.5 10t9.5 26v375h185v-528h-178zM68 585v129h158v-129h-158zM274 585v129h158v-129h-158z" />
    <glyph glyph-name="yacute" unicode="&#xfd;" horiz-adv-x="476" 
d="M170 27l-167 501h192l53 -311l43 311h182l-157 -551q-28 -97 -69.5 -139.5t-107.5 -42.5q-57 0 -115 19l26 133q28 -7 51 -7q25 0 38 12.5t23 46.5zM140 583l108 177h185l-146 -177h-147z" />
    <glyph glyph-name="thorn" unicode="&#xfe;" horiz-adv-x="505" 
d="M36 -194v908h185v-236q45 66 109 66q153 0 153 -271q0 -289 -159 -289q-28 0 -57 15.5t-46 39.5v-233h-185zM221 254q0 -60 3.5 -88t11.5 -38.5t23 -10.5q16 0 23.5 13t10.5 44.5t3 89.5q0 65 -3.5 95t-11 41t-22.5 11q-17 0 -24.5 -12t-10.5 -41t-3 -84v-20z" />
    <glyph glyph-name="ydieresis" unicode="&#xff;" horiz-adv-x="476" 
d="M170 27l-167 501h192l53 -311l43 311h182l-157 -551q-28 -97 -69.5 -139.5t-107.5 -42.5q-57 0 -115 19l26 133q28 -7 51 -7q25 0 38 12.5t23 46.5zM61 585v129h158v-129h-158zM267 585v129h158v-129h-158z" />
    <glyph glyph-name="Amacron" unicode="&#x100;" horiz-adv-x="613" 
d="M412 0l-25 130h-166l-26 -130h-190l184 714h243l176 -714h-196zM305 559l-54 -276h107zM165 777v140h282v-140h-282z" />
    <glyph glyph-name="amacron" unicode="&#x101;" horiz-adv-x="474" 
d="M278 0v51q-23 -32 -54.5 -48.5t-67.5 -16.5q-65 0 -101.5 42t-36.5 117q0 162 201 178l51 4v39q0 30 -7.5 44t-24.5 14t-26 -14.5t-12 -48.5l-164 11q10 87 61 129.5t145 42.5q101 0 149.5 -48.5t48.5 -150.5v-345h-162zM270 221l-28 -3q-28 -2 -44 -18t-16 -42
q0 -45 37 -45q24 0 37.5 21.5t13.5 59.5v27zM106 600v139h276v-139h-276z" />
    <glyph glyph-name="Abreve" unicode="&#x102;" horiz-adv-x="613" 
d="M412 0l-25 130h-166l-26 -130h-190l184 714h243l176 -714h-196zM305 559l-54 -276h107zM473 940q0 -81 -44 -126.5t-123 -45.5t-123 45.5t-44 126.5h127q0 -63 40 -63t40 63h127z" />
    <glyph glyph-name="abreve" unicode="&#x103;" horiz-adv-x="474" 
d="M278 0v51q-23 -32 -54.5 -48.5t-67.5 -16.5q-65 0 -101.5 42t-36.5 117q0 162 201 178l51 4v39q0 30 -7.5 44t-24.5 14t-26 -14.5t-12 -48.5l-164 11q10 87 61 129.5t145 42.5q101 0 149.5 -48.5t48.5 -150.5v-345h-162zM270 221l-28 -3q-28 -2 -44 -18t-16 -42
q0 -45 37 -45q24 0 37.5 21.5t13.5 59.5v27zM409 761q0 -85 -43.5 -132.5t-121.5 -47.5t-121.5 47.5t-43.5 132.5h126q0 -69 39 -69t39 69h126z" />
    <glyph glyph-name="Aogonek" unicode="&#x104;" horiz-adv-x="613" 
d="M412 0l-25 130h-166l-26 -130h-190l184 714h243l176 -714h-196zM305 559l-54 -276h107zM605 -205q-41 -7 -74 -7q-127 0 -127 90q0 33 22 66.5t62 61.5l120 -6q-34 -22 -47.5 -38t-13.5 -33q0 -28 33 -28q16 0 25 2v-108z" />
    <glyph glyph-name="aogonek" unicode="&#x105;" horiz-adv-x="474" 
d="M278 0v51q-23 -32 -54.5 -48.5t-67.5 -16.5q-65 0 -101.5 42t-36.5 117q0 162 201 178l51 4v39q0 30 -7.5 44t-24.5 14t-26 -14.5t-12 -48.5l-164 11q10 87 61 129.5t145 42.5q101 0 149.5 -48.5t48.5 -150.5v-345h-162zM270 221l-28 -3q-28 -2 -44 -18t-16 -42
q0 -45 37 -45q24 0 37.5 21.5t13.5 59.5v27zM436 -204q-32 -7 -70 -7q-121 0 -121 91q0 33 20 65.5t58 60.5l117 -6q-32 -23 -44.5 -38.5t-12.5 -32.5q0 -28 28 -28q12 0 25 2v-107z" />
    <glyph glyph-name="Cacute" unicode="&#x106;" horiz-adv-x="601" 
d="M584 286q-6 -145 -77 -224.5t-194 -79.5q-137 0 -208 94.5t-71 275.5q0 185 73 282.5t211 97.5q111 0 178.5 -73t82.5 -210l-193 -21q-7 70 -23 98.5t-47 28.5q-43 0 -61 -45t-18 -151q0 -107 19.5 -153.5t63.5 -46.5q34 0 51.5 30t22.5 97h190zM208 772l108 166h199
l-150 -166h-157z" />
    <glyph glyph-name="cacute" unicode="&#x107;" horiz-adv-x="466" 
d="M449 222q-9 -238 -207 -238q-220 0 -220 276q0 284 222 284q96 0 146 -55.5t57 -168.5l-170 -14q-2 61 -9 81.5t-25 20.5q-15 0 -22 -13t-9.5 -43.5t-2.5 -90.5q0 -62 3.5 -91t11 -39.5t21.5 -10.5q18 0 25.5 23.5t8.5 78.5h170zM141 583l108 177h185l-146 -177h-147z
" />
    <glyph glyph-name="Ccircumflex" unicode="&#x108;" horiz-adv-x="601" 
d="M584 286q-6 -145 -77 -224.5t-194 -79.5q-137 0 -208 94.5t-71 275.5q0 185 73 282.5t211 97.5q111 0 178.5 -73t82.5 -210l-193 -21q-7 70 -23 98.5t-47 28.5q-43 0 -61 -45t-18 -151q0 -107 19.5 -153.5t63.5 -46.5q34 0 51.5 30t22.5 97h190zM357 772l-41 76l-41 -76
h-148l107 166h168l107 -166h-152z" />
    <glyph glyph-name="ccircumflex" unicode="&#x109;" horiz-adv-x="466" 
d="M449 222q-9 -238 -207 -238q-220 0 -220 276q0 284 222 284q96 0 146 -55.5t57 -168.5l-170 -14q-2 61 -9 81.5t-25 20.5q-15 0 -22 -13t-9.5 -43.5t-2.5 -90.5q0 -62 3.5 -91t11 -39.5t21.5 -10.5q18 0 25.5 23.5t8.5 78.5h170zM283 583l-40 85l-42 -85h-143l109 177
h151l112 -177h-147z" />
    <glyph glyph-name="Cdotaccent" unicode="&#x10a;" horiz-adv-x="601" 
d="M584 286q-6 -145 -77 -224.5t-194 -79.5q-137 0 -208 94.5t-71 275.5q0 185 73 282.5t211 97.5q111 0 178.5 -73t82.5 -210l-193 -21q-7 70 -23 98.5t-47 28.5q-43 0 -61 -45t-18 -151q0 -107 19.5 -153.5t63.5 -46.5q34 0 51.5 30t22.5 97h190zM223 775v150h190v-150
h-190z" />
    <glyph glyph-name="cdotaccent" unicode="&#x10b;" horiz-adv-x="466" 
d="M449 222q-9 -238 -207 -238q-220 0 -220 276q0 284 222 284q96 0 146 -55.5t57 -168.5l-170 -14q-2 61 -9 81.5t-25 20.5q-15 0 -22 -13t-9.5 -43.5t-2.5 -90.5q0 -62 3.5 -91t11 -39.5t21.5 -10.5q18 0 25.5 23.5t8.5 78.5h170zM152 585v129h184v-129h-184z" />
    <glyph glyph-name="Ccaron" unicode="&#x10c;" horiz-adv-x="601" 
d="M584 286q-6 -145 -77 -224.5t-194 -79.5q-137 0 -208 94.5t-71 275.5q0 185 73 282.5t211 97.5q111 0 178.5 -73t82.5 -210l-193 -21q-7 70 -23 98.5t-47 28.5q-43 0 -61 -45t-18 -151q0 -107 19.5 -153.5t63.5 -46.5q34 0 51.5 30t22.5 97h190zM234 772l-107 166h152
l41 -76l41 76h148l-107 -166h-168z" />
    <glyph glyph-name="ccaron" unicode="&#x10d;" horiz-adv-x="466" 
d="M449 222q-9 -238 -207 -238q-220 0 -220 276q0 284 222 284q96 0 146 -55.5t57 -168.5l-170 -14q-2 61 -9 81.5t-25 20.5q-15 0 -22 -13t-9.5 -43.5t-2.5 -90.5q0 -62 3.5 -91t11 -39.5t21.5 -10.5q18 0 25.5 23.5t8.5 78.5h170zM170 583l-112 177h147l40 -85l42 85h143
l-109 -177h-151z" />
    <glyph glyph-name="Dcaron" unicode="&#x10e;" horiz-adv-x="636" 
d="M58 0v714h230q155 0 234.5 -89.5t79.5 -262.5q0 -175 -80 -268.5t-231 -93.5h-233zM304 177q49 0 72.5 45t23.5 137q0 91 -24 134.5t-74 43.5h-52v-360h54zM234 772l-107 166h152l41 -76l41 76h148l-107 -166h-168z" />
    <glyph glyph-name="dcaron" unicode="&#x10f;" horiz-adv-x="708" 
d="M291 0v58q-26 -38 -54 -56t-62 -18q-153 0 -153 271q0 289 159 289q28 0 57 -15.5t46 -40.5v226h185v-714h-178zM284 274q0 60 -3.5 88t-11.5 38.5t-23 10.5q-16 0 -23.5 -13t-10.5 -44.5t-3 -89.5q0 -65 3.5 -95t11 -41t22.5 -11q17 0 24.5 12t10.5 41t3 84v20zM512 430
l29 284h167l-60 -284h-136z" />
    <glyph glyph-name="Dcroat" unicode="&#x110;" horiz-adv-x="644" 
d="M66 0v276h-50v165h50v273h230q155 0 234.5 -89.5t79.5 -262.5q0 -175 -80 -268.5t-231 -93.5h-233zM311 167q103 0 103 192q0 95 -26 141.5t-79 46.5h-57v-106h82v-165h-82v-109h59z" />
    <glyph glyph-name="dcroat" unicode="&#x111;" horiz-adv-x="521" 
d="M291 0v58q-26 -38 -54 -56t-62 -18q-76 0 -114.5 63.5t-38.5 188.5q0 131 40.5 199.5t118.5 68.5q28 0 57 -15.5t46 -40.5v102h-107v107h107v57h185v-57h52v-107h-52v-550h-178zM284 255q0 68 -7.5 92t-30.5 24q-22 0 -29.5 -26t-7.5 -100q0 -57 3.5 -83t11.5 -35.5
t22 -9.5q17 0 24.5 10.5t10.5 35t3 72.5v20z" />
    <glyph glyph-name="Emacron" unicode="&#x112;" horiz-adv-x="532" 
d="M58 0v714h433v-166h-239v-105h224v-166h-224v-111h255l-15 -166h-434zM134 777v140h282v-140h-282z" />
    <glyph glyph-name="emacron" unicode="&#x113;" horiz-adv-x="477" 
d="M458 174q-14 -190 -212 -190q-117 0 -170.5 65t-53.5 208q0 145 56 216t171 71q209 0 209 -264v-57h-259q1 -67 11 -91.5t35 -24.5q21 0 31 16t11 51h171zM290 318q-1 61 -10.5 83t-32.5 22q-24 0 -34.5 -23t-12.5 -82h90zM111 600v139h276v-139h-276z" />
    <glyph glyph-name="Ebreve" unicode="&#x114;" horiz-adv-x="532" 
d="M58 0v714h433v-166h-239v-105h224v-166h-224v-111h255l-15 -166h-434zM442 940q0 -81 -44 -126.5t-123 -45.5t-123 45.5t-44 126.5h127q0 -63 40 -63t40 63h127z" />
    <glyph glyph-name="ebreve" unicode="&#x115;" horiz-adv-x="477" 
d="M458 174q-14 -190 -212 -190q-117 0 -170.5 65t-53.5 208q0 145 56 216t171 71q209 0 209 -264v-57h-259q1 -67 11 -91.5t35 -24.5q21 0 31 16t11 51h171zM290 318q-1 61 -10.5 83t-32.5 22q-24 0 -34.5 -23t-12.5 -82h90zM414 761q0 -85 -43.5 -132.5t-121.5 -47.5
t-121.5 47.5t-43.5 132.5h126q0 -69 39 -69t39 69h126z" />
    <glyph glyph-name="Edotaccent" unicode="&#x116;" horiz-adv-x="532" 
d="M58 0v714h433v-166h-239v-105h224v-166h-224v-111h255l-15 -166h-434zM180 775v150h190v-150h-190z" />
    <glyph glyph-name="edotaccent" unicode="&#x117;" horiz-adv-x="477" 
d="M458 174q-14 -190 -212 -190q-117 0 -170.5 65t-53.5 208q0 145 56 216t171 71q209 0 209 -264v-57h-259q1 -67 11 -91.5t35 -24.5q21 0 31 16t11 51h171zM290 318q-1 61 -10.5 83t-32.5 22q-24 0 -34.5 -23t-12.5 -82h90zM157 585v129h184v-129h-184z" />
    <glyph glyph-name="Eogonek" unicode="&#x118;" horiz-adv-x="532" 
d="M58 0v714h433v-166h-239v-105h224v-166h-224v-111h255l-15 -166h-434zM489 -205q-41 -7 -74 -7q-127 0 -127 90q0 33 22 66.5t62 61.5l120 -6q-34 -22 -47.5 -38t-13.5 -33q0 -28 33 -28q16 0 25 2v-108z" />
    <glyph glyph-name="eogonek" unicode="&#x119;" horiz-adv-x="477" 
d="M458 174q-14 -190 -212 -190q-117 0 -170.5 65t-53.5 208q0 145 56 216t171 71q209 0 209 -264v-57h-259q1 -67 11 -91.5t35 -24.5q21 0 31 16t11 51h171zM290 318q-1 61 -10.5 83t-32.5 22q-24 0 -34.5 -23t-12.5 -82h90zM348 -204q-32 -7 -70 -7q-121 0 -121 91
q0 70 86 126l101 -6q-49 -32 -49 -71q0 -28 28 -28q12 0 25 2v-107z" />
    <glyph glyph-name="Ecaron" unicode="&#x11a;" horiz-adv-x="532" 
d="M58 0v714h433v-166h-239v-105h224v-166h-224v-111h255l-15 -166h-434zM191 772l-107 166h152l41 -76l41 76h148l-107 -166h-168z" />
    <glyph glyph-name="ecaron" unicode="&#x11b;" horiz-adv-x="477" 
d="M458 174q-14 -190 -212 -190q-117 0 -170.5 65t-53.5 208q0 145 56 216t171 71q209 0 209 -264v-57h-259q1 -67 11 -91.5t35 -24.5q21 0 31 16t11 51h171zM290 318q-1 61 -10.5 83t-32.5 22q-24 0 -34.5 -23t-12.5 -82h90zM175 583l-112 177h147l40 -85l42 85h143
l-109 -177h-151z" />
    <glyph glyph-name="Gcircumflex" unicode="&#x11c;" horiz-adv-x="629" 
d="M410 260h-72v148h252v-348q-54 -38 -119.5 -58t-136.5 -20q-148 0 -224 93.5t-76 277.5q0 186 75 282.5t220 96.5q228 0 258 -237l-197 -19q-6 43 -22 63t-45 20q-46 0 -67 -48t-21 -151q0 -106 26.5 -155.5t83.5 -49.5q37 0 65 16v89zM368 772l-41 76l-41 -76h-148
l107 166h168l107 -166h-152z" />
    <glyph glyph-name="gcircumflex" unicode="&#x11d;" horiz-adv-x="505" 
d="M284 82q-45 -54 -107 -54q-74 0 -114.5 66t-40.5 187q0 125 42.5 194t119.5 69q34 0 59 -14t48 -46v44h178v-471q0 -127 -58.5 -194.5t-167.5 -67.5q-102 0 -152.5 46t-57.5 145h177q2 -28 10.5 -39.5t25.5 -11.5q21 0 29.5 23t8.5 79v45zM284 296q0 65 -8 90t-28 25
q-22 0 -30.5 -26t-8.5 -99t8.5 -99t30.5 -26q21 0 28.5 23.5t7.5 89.5v22zM294 583l-40 85l-42 -85h-143l109 177h151l112 -177h-147z" />
    <glyph glyph-name="Gbreve" unicode="&#x11e;" horiz-adv-x="629" 
d="M410 260h-72v148h252v-348q-54 -38 -119.5 -58t-136.5 -20q-148 0 -224 93.5t-76 277.5q0 186 75 282.5t220 96.5q228 0 258 -237l-197 -19q-6 43 -22 63t-45 20q-46 0 -67 -48t-21 -151q0 -106 26.5 -155.5t83.5 -49.5q37 0 65 16v89zM496 940q0 -81 -44 -126.5
t-123 -45.5t-123 45.5t-44 126.5h127q0 -63 40 -63t40 63h127z" />
    <glyph glyph-name="gbreve" unicode="&#x11f;" horiz-adv-x="505" 
d="M284 82q-45 -54 -107 -54q-74 0 -114.5 66t-40.5 187q0 125 42.5 194t119.5 69q34 0 59 -14t48 -46v44h178v-471q0 -127 -58.5 -194.5t-167.5 -67.5q-102 0 -152.5 46t-57.5 145h177q2 -28 10.5 -39.5t25.5 -11.5q21 0 29.5 23t8.5 79v45zM284 296q0 65 -8 90t-28 25
q-22 0 -30.5 -26t-8.5 -99t8.5 -99t30.5 -26q21 0 28.5 23.5t7.5 89.5v22zM420 761q0 -85 -43.5 -132.5t-121.5 -47.5t-121.5 47.5t-43.5 132.5h126q0 -69 39 -69t39 69h126z" />
    <glyph glyph-name="Gdotaccent" unicode="&#x120;" horiz-adv-x="629" 
d="M410 260h-72v148h252v-348q-54 -38 -119.5 -58t-136.5 -20q-148 0 -224 93.5t-76 277.5q0 186 75 282.5t220 96.5q228 0 258 -237l-197 -19q-6 43 -22 63t-45 20q-46 0 -67 -48t-21 -151q0 -106 26.5 -155.5t83.5 -49.5q37 0 65 16v89zM234 775v150h190v-150h-190z" />
    <glyph glyph-name="gdotaccent" unicode="&#x121;" horiz-adv-x="505" 
d="M284 82q-45 -54 -107 -54q-74 0 -114.5 66t-40.5 187q0 125 42.5 194t119.5 69q34 0 59 -14t48 -46v44h178v-471q0 -127 -58.5 -194.5t-167.5 -67.5q-102 0 -152.5 46t-57.5 145h177q2 -28 10.5 -39.5t25.5 -11.5q21 0 29.5 23t8.5 79v45zM284 296q0 65 -8 90t-28 25
q-22 0 -30.5 -26t-8.5 -99t8.5 -99t30.5 -26q21 0 28.5 23.5t7.5 89.5v22zM163 585v129h184v-129h-184z" />
    <glyph glyph-name="uni0122" unicode="&#x122;" horiz-adv-x="629" 
d="M410 260h-72v148h252v-348q-54 -38 -119.5 -58t-136.5 -20q-148 0 -224 93.5t-76 277.5q0 186 75 282.5t220 96.5q228 0 258 -237l-197 -19q-6 43 -22 63t-45 20q-46 0 -67 -48t-21 -151q0 -106 26.5 -155.5t83.5 -49.5q37 0 65 16v89zM158 -251l78 185h195l-118 -185
h-155z" />
    <glyph glyph-name="uni0123" unicode="&#x123;" horiz-adv-x="505" 
d="M284 82q-45 -54 -107 -54q-74 0 -114.5 66t-40.5 187q0 125 42.5 194t119.5 69q34 0 59 -14t48 -46v44h178v-471q0 -127 -58.5 -194.5t-167.5 -67.5q-102 0 -152.5 46t-57.5 145h177q2 -28 10.5 -39.5t25.5 -11.5q21 0 29.5 23t8.5 79v45zM284 296q0 65 -8 90t-28 25
q-22 0 -30.5 -26t-8.5 -99t8.5 -99t30.5 -26q21 0 28.5 23.5t7.5 89.5v22zM149 583l111 177h154l-75 -177h-190z" />
    <glyph glyph-name="Hcircumflex" unicode="&#x124;" horiz-adv-x="648" 
d="M394 0v279h-140v-279h-196v714h196v-255h140v255h196v-714h-196zM363 772l-41 76l-41 -76h-148l107 166h168l107 -166h-152z" />
    <glyph glyph-name="hcircumflex" unicode="&#x125;" horiz-adv-x="507" 
d="M288 0v382q0 13 -7.5 21t-19.5 8q-18 0 -29 -10t-11 -26v-375h-185v714h185v-229q51 59 121 59q62 0 96.5 -38.5t34.5 -108.5v-397h-185zM283 772l-41 76l-41 -76h-148l107 166h168l107 -166h-152z" />
    <glyph glyph-name="Hbar" unicode="&#x126;" horiz-adv-x="664" 
d="M402 0v258h-140v-258h-196v514h-50v130h50v70h196v-70h140v70h196v-70h50v-130h-50v-514h-196zM402 514h-140v-82h140v82z" />
    <glyph glyph-name="hbar" unicode="&#x127;" horiz-adv-x="523" 
d="M304 0v342q0 13 -7.5 21t-19.5 8q-18 0 -29 -10t-11 -26v-335h-185v550h-52v107h52v57h185v-57h107v-107h-107v-105q51 59 121 59q62 0 96.5 -38.5t34.5 -108.5v-357h-185z" />
    <glyph glyph-name="Itilde" unicode="&#x128;" horiz-adv-x="312" 
d="M58 0v714h196v-714h-196zM-22 763q2 84 29.5 127t77.5 43q33 0 72 -25q27 -16 40 -16q26 0 26 43h111q-2 -84 -29.5 -127t-77.5 -43q-33 0 -72 25q-27 16 -40 16q-26 0 -26 -43h-111z" />
    <glyph glyph-name="itilde" unicode="&#x129;" horiz-adv-x="257" 
d="M36 0v528h185v-528h-185zM-45 580q0 83 26.5 126.5t77.5 43.5q20 0 35.5 -5.5t34.5 -19.5q25 -16 38 -16q26 0 26 43h108q0 -83 -26.5 -126.5t-77.5 -43.5q-20 0 -35.5 5.5t-34.5 19.5q-25 16 -38 16q-26 0 -26 -43h-108z" />
    <glyph glyph-name="Imacron" unicode="&#x12a;" horiz-adv-x="312" 
d="M58 0v714h196v-714h-196zM15 777v140h282v-140h-282z" />
    <glyph glyph-name="imacron" unicode="&#x12b;" horiz-adv-x="257" 
d="M36 0v528h185v-528h-185zM-10 600v139h276v-139h-276z" />
    <glyph glyph-name="Ibreve" unicode="&#x12c;" horiz-adv-x="312" 
d="M58 0v714h196v-714h-196zM323 940q0 -81 -44 -126.5t-123 -45.5t-123 45.5t-44 126.5h127q0 -63 40 -63t40 63h127z" />
    <glyph glyph-name="ibreve" unicode="&#x12d;" horiz-adv-x="257" 
d="M36 0v528h185v-528h-185zM293 761q0 -85 -43.5 -132.5t-121.5 -47.5t-121.5 47.5t-43.5 132.5h126q0 -69 39 -69t39 69h126z" />
    <glyph glyph-name="Iogonek" unicode="&#x12e;" horiz-adv-x="312" 
d="M58 0v714h196v-714h-196zM251 -205q-41 -7 -74 -7q-127 0 -127 90q0 33 22 66.5t62 61.5l120 -6q-34 -22 -47.5 -38t-13.5 -33q0 -28 33 -28q16 0 25 2v-108z" />
    <glyph glyph-name="iogonek" unicode="&#x12f;" horiz-adv-x="257" 
d="M36 0v528h185v-528h-185zM36 585v129h185v-129h-185zM217 -204q-32 -7 -70 -7q-121 0 -121 91q0 33 20 65.5t58 60.5l117 -6q-32 -23 -44.5 -38.5t-12.5 -32.5q0 -28 28 -28q12 0 25 2v-107z" />
    <glyph glyph-name="Idotaccent" unicode="&#x130;" horiz-adv-x="312" 
d="M58 0v714h196v-714h-196zM61 775v150h190v-150h-190z" />
    <glyph glyph-name="dotlessi" unicode="&#x131;" horiz-adv-x="257" 
d="M36 0v528h185v-528h-185z" />
    <glyph glyph-name="IJ" unicode="&#x132;" horiz-adv-x="863" 
d="M58 0v714h196v-714h-196zM621 714h196v-448q0 -135 -65 -209.5t-183 -74.5q-240 0 -246 287h192q2 -60 14.5 -85t40.5 -25q27 0 39 22.5t12 73.5v459z" />
    <glyph glyph-name="ij" unicode="&#x133;" horiz-adv-x="514" 
d="M36 0v528h185v-528h-185zM36 585v129h185v-129h-185zM293 528h185v-546q0 -88 -43 -137.5t-121 -49.5q-57 0 -116 17l22 127q24 -5 35 -5q20 0 29 12.5t9 39.5v542zM293 585v129h185v-129h-185z" />
    <glyph glyph-name="Jcircumflex" unicode="&#x134;" horiz-adv-x="551" 
d="M309 714h196v-448q0 -135 -65 -209.5t-183 -74.5q-240 0 -246 287h192q2 -60 14.5 -85t40.5 -25q27 0 39 22.5t12 73.5v459zM446 772l-41 76l-41 -76h-148l107 166h168l107 -166h-152z" />
    <glyph glyph-name="jcircumflex" unicode="&#x135;" horiz-adv-x="257" 
d="M36 528h185v-546q0 -88 -43 -137.5t-121 -49.5q-57 0 -116 17l22 127q24 -5 35 -5q20 0 29 12.5t9 39.5v542zM167 583l-40 85l-42 -85h-143l109 177h151l112 -177h-147z" />
    <glyph glyph-name="uni0136" unicode="&#x136;" horiz-adv-x="631" 
d="M423 0l-128 303l-47 -54v-249h-190v714h190v-243l170 243h201l-194 -270l205 -444h-207zM165 -251l78 185h195l-118 -185h-155z" />
    <glyph glyph-name="uni0137" unicode="&#x137;" horiz-adv-x="515" 
d="M325 0l-77 199l-36 -40v-159h-176v714h176v-356l118 170h175l-141 -190l150 -338h-189zM107 -246l76 180h190l-112 -180h-154z" />
    <glyph glyph-name="kgreenlandic" unicode="&#x138;" horiz-adv-x="515" 
d="M327 0l-75 179l-40 -54v-125h-176v528h176v-191l123 191h169l-142 -203l152 -325h-187z" />
    <glyph glyph-name="Lacute" unicode="&#x139;" horiz-adv-x="496" 
d="M58 0v714h196v-538h232l-16 -176h-412zM46 772l108 166h199l-150 -166h-157z" />
    <glyph glyph-name="lacute" unicode="&#x13a;" horiz-adv-x="257" 
d="M36 0v714h185v-714h-185zM18 772l108 166h199l-150 -166h-157z" />
    <glyph glyph-name="uni013B" unicode="&#x13b;" horiz-adv-x="496" 
d="M58 0v714h196v-538h232l-16 -176h-412zM95 -251l78 185h195l-118 -185h-155z" />
    <glyph glyph-name="uni013C" unicode="&#x13c;" horiz-adv-x="257" 
d="M36 0v714h185v-714h-185zM-40 -246l76 180h190l-112 -180h-154z" />
    <glyph glyph-name="Lcaron" unicode="&#x13d;" horiz-adv-x="507" 
d="M58 0v714h196v-538h232l-16 -176h-412zM306 430l29 284h167l-60 -284h-136z" />
    <glyph glyph-name="lcaron" unicode="&#x13e;" horiz-adv-x="461" 
d="M36 0v714h185v-714h-185zM264 430l29 284h167l-60 -284h-136z" />
    <glyph glyph-name="Ldot" unicode="&#x13f;" horiz-adv-x="496" 
d="M58 0v714h196v-538h232l-16 -176h-412zM309 339v203h170v-203h-170z" />
    <glyph glyph-name="ldot" unicode="&#x140;" horiz-adv-x="427" 
d="M36 0v714h185v-714h-185zM257 266v203h170v-203h-170z" />
    <glyph glyph-name="Lslash" unicode="&#x141;" horiz-adv-x="504" 
d="M66 0v183l-50 -36v192l50 36v339h196v-202l126 88v-192l-126 -88v-144h231l-16 -176h-411z" />
    <glyph glyph-name="lslash" unicode="&#x142;" horiz-adv-x="272" 
d="M46 0v236l-60 -35v172l60 35v306h185v-199l60 35v-172l-60 -35v-343h-185z" />
    <glyph glyph-name="Nacute" unicode="&#x143;" horiz-adv-x="642" 
d="M410 0l-172 359v-359h-180v714h174l172 -359v359h180v-714h-174zM211 772l108 166h199l-150 -166h-157z" />
    <glyph glyph-name="nacute" unicode="&#x144;" horiz-adv-x="507" 
d="M288 0v382q0 13 -7.5 21t-19.5 8q-18 0 -29 -10t-11 -26v-375h-185v528h178v-51q57 67 128 67q62 0 96.5 -38.5t34.5 -108.5v-397h-185zM152 583l108 177h185l-146 -177h-147z" />
    <glyph glyph-name="uni0145" unicode="&#x145;" horiz-adv-x="642" 
d="M410 0l-172 359v-359h-180v714h174l172 -359v359h180v-714h-174zM145 -251l78 185h195l-118 -185h-155z" />
    <glyph glyph-name="uni0146" unicode="&#x146;" horiz-adv-x="507" 
d="M288 0v382q0 13 -7.5 21t-19.5 8q-18 0 -29 -10t-11 -26v-375h-185v528h178v-51q57 67 128 67q62 0 96.5 -38.5t34.5 -108.5v-397h-185zM87 -246l76 180h190l-112 -180h-154z" />
    <glyph glyph-name="Ncaron" unicode="&#x147;" horiz-adv-x="642" 
d="M410 0l-172 359v-359h-180v714h174l172 -359v359h180v-714h-174zM237 772l-107 166h152l41 -76l41 76h148l-107 -166h-168z" />
    <glyph glyph-name="ncaron" unicode="&#x148;" horiz-adv-x="507" 
d="M288 0v382q0 13 -7.5 21t-19.5 8q-18 0 -29 -10t-11 -26v-375h-185v528h178v-51q57 67 128 67q62 0 96.5 -38.5t34.5 -108.5v-397h-185zM181 583l-112 177h147l40 -85l42 85h143l-109 -177h-151z" />
    <glyph glyph-name="napostrophe" unicode="&#x149;" horiz-adv-x="696" 
d="M477 0v382q0 13 -7.5 21t-19.5 8q-18 0 -29 -10t-11 -26v-375h-185v528h178v-51q57 67 128 67q62 0 96.5 -38.5t34.5 -108.5v-397h-185zM12 397l38 317h172l-67 -317h-143z" />
    <glyph glyph-name="Eng" unicode="&#x14a;" horiz-adv-x="642" 
d="M238 359v-359h-180v714h174l172 -358v358h180v-682q0 -120 -47 -178.5t-144 -58.5q-31 0 -66.5 6.5t-63.5 16.5l33 155q35 -9 58 -9q46 0 50 50z" />
    <glyph glyph-name="eng" unicode="&#x14b;" horiz-adv-x="507" 
d="M288 382q0 13 -7.5 21t-19.5 8q-18 0 -29 -10t-11 -26v-375h-185v528h178v-51q57 67 128 67q62 0 96.5 -38.5t34.5 -108.5v-415q0 -88 -43 -137.5t-121 -49.5q-57 0 -116 17l22 127q24 -5 35 -5q20 0 29 12.5t9 39.5v396z" />
    <glyph glyph-name="Omacron" unicode="&#x14c;" horiz-adv-x="651" 
d="M323 -18q-143 0 -216 94t-73 277q0 186 74.5 282.5t219.5 96.5q143 0 216 -94t73 -277q0 -186 -74.5 -282.5t-219.5 -96.5zM325 159q48 0 68.5 45.5t20.5 153.5q0 107 -20 152t-68 45t-68.5 -45.5t-20.5 -153.5q0 -107 20 -152t68 -45zM185 777v140h282v-140h-282z" />
    <glyph glyph-name="omacron" unicode="&#x14d;" horiz-adv-x="494" 
d="M245 -16q-115 0 -169 67.5t-54 210.5t56 212.5t171 69.5t169 -67.5t54 -210.5t-56 -212.5t-171 -69.5zM246 117q17 0 25 13.5t11 45t3 89.5q0 89 -7 117.5t-30 28.5q-17 0 -25 -13.5t-11 -45t-3 -89.5q0 -89 7 -117.5t30 -28.5zM109 600v139h276v-139h-276z" />
    <glyph glyph-name="Obreve" unicode="&#x14e;" horiz-adv-x="651" 
d="M323 -18q-143 0 -216 94t-73 277q0 186 74.5 282.5t219.5 96.5q143 0 216 -94t73 -277q0 -186 -74.5 -282.5t-219.5 -96.5zM325 159q48 0 68.5 45.5t20.5 153.5q0 107 -20 152t-68 45t-68.5 -45.5t-20.5 -153.5q0 -107 20 -152t68 -45zM493 940q0 -81 -44 -126.5
t-123 -45.5t-123 45.5t-44 126.5h127q0 -63 40 -63t40 63h127z" />
    <glyph glyph-name="obreve" unicode="&#x14f;" horiz-adv-x="494" 
d="M245 -16q-115 0 -169 67.5t-54 210.5t56 212.5t171 69.5t169 -67.5t54 -210.5t-56 -212.5t-171 -69.5zM246 117q17 0 25 13.5t11 45t3 89.5q0 89 -7 117.5t-30 28.5q-17 0 -25 -13.5t-11 -45t-3 -89.5q0 -89 7 -117.5t30 -28.5zM412 761q0 -85 -43.5 -132.5t-121.5 -47.5
t-121.5 47.5t-43.5 132.5h126q0 -69 39 -69t39 69h126z" />
    <glyph glyph-name="Ohungarumlaut" unicode="&#x150;" horiz-adv-x="651" 
d="M323 -18q-143 0 -216 94t-73 277q0 186 74.5 282.5t219.5 96.5q143 0 216 -94t73 -277q0 -186 -74.5 -282.5t-219.5 -96.5zM325 159q48 0 68.5 45.5t20.5 153.5q0 107 -20 152t-68 45t-68.5 -45.5t-20.5 -153.5q0 -107 20 -152t68 -45zM149 772l92 166h163l-121 -166
h-134zM348 772l92 166h163l-121 -166h-134z" />
    <glyph glyph-name="ohungarumlaut" unicode="&#x151;" horiz-adv-x="494" 
d="M245 -16q-115 0 -169 67.5t-54 210.5t56 212.5t171 69.5t169 -67.5t54 -210.5t-56 -212.5t-171 -69.5zM246 117q17 0 25 13.5t11 45t3 89.5q0 89 -7 117.5t-30 28.5q-17 0 -25 -13.5t-11 -45t-3 -89.5q0 -89 7 -117.5t30 -28.5zM78 583l92 177h158l-121 -177h-129z
M273 583l92 177h158l-121 -177h-129z" />
    <glyph glyph-name="OE" unicode="&#x152;" horiz-adv-x="856" 
d="M401 0v29q-19 -22 -50 -34.5t-66 -12.5q-121 0 -186 96t-65 276q0 182 66 280t190 98q32 0 61.5 -12.5t49.5 -33.5v28h414v-166h-220v-105h206v-166h-206v-111h236l-15 -166h-415zM320 159q45 0 64.5 46t19.5 152t-19.5 152t-64.5 46t-64 -45.5t-19 -152.5
q0 -106 19.5 -152t63.5 -46z" />
    <glyph glyph-name="oe" unicode="&#x153;" horiz-adv-x="744" 
d="M725 174q-14 -190 -212 -190q-43 0 -78.5 13.5t-57.5 38.5q-21 -24 -56.5 -38t-75.5 -14q-115 0 -169 67.5t-54 210.5t56 212.5t171 69.5q40 0 77 -17t57 -44q24 28 60 44.5t75 16.5q103 0 155 -66.5t52 -197.5v-57h-259q1 -67 11 -91.5t35 -24.5q21 0 31 16t11 51h171z
M557 318q-1 61 -10.5 83t-32.5 22q-24 0 -34.5 -23t-12.5 -82h90zM246 117q17 0 25 13.5t11 45t3 89.5q0 89 -7 117.5t-30 28.5q-17 0 -25 -13.5t-11 -45t-3 -89.5q0 -89 7 -117.5t30 -28.5z" />
    <glyph glyph-name="Racute" unicode="&#x154;" horiz-adv-x="595" 
d="M380 0l-89 240h-49v-240h-184v714h248q120 0 186.5 -61t66.5 -171q0 -58 -25 -106.5t-71 -81.5l121 -294h-204zM295 395q39 0 59.5 21.5t20.5 61.5q0 39 -20 60t-58 21h-55v-164h53zM187 772l108 166h199l-150 -166h-157z" />
    <glyph glyph-name="racute" unicode="&#x155;" horiz-adv-x="365" 
d="M36 0v528h178v-68q21 38 49.5 57.5t62.5 19.5q19 0 37 -5l-17 -167q-24 5 -46 5q-38 0 -58.5 -24.5t-20.5 -69.5v-276h-185zM96 583l108 177h185l-146 -177h-147z" />
    <glyph glyph-name="Rcommaaccent" unicode="&#x156;" horiz-adv-x="595" 
d="M380 0l-89 240h-49v-240h-184v714h248q120 0 186.5 -61t66.5 -171q0 -58 -25 -106.5t-71 -81.5l121 -294h-204zM295 395q39 0 59.5 21.5t20.5 61.5q0 39 -20 60t-58 21h-55v-164h53zM145 -251l78 185h195l-118 -185h-155z" />
    <glyph glyph-name="rcommaaccent" unicode="&#x157;" horiz-adv-x="365" 
d="M36 0v528h178v-68q21 38 49.5 57.5t62.5 19.5q19 0 37 -5l-17 -167q-24 5 -46 5q-38 0 -58.5 -24.5t-20.5 -69.5v-276h-185zM-39 -246l76 180h190l-112 -180h-154z" />
    <glyph glyph-name="Rcaron" unicode="&#x158;" horiz-adv-x="595" 
d="M380 0l-89 240h-49v-240h-184v714h248q120 0 186.5 -61t66.5 -171q0 -58 -25 -106.5t-71 -81.5l121 -294h-204zM295 395q39 0 59.5 21.5t20.5 61.5q0 39 -20 60t-58 21h-55v-164h53zM213 772l-107 166h152l41 -76l41 76h148l-107 -166h-168z" />
    <glyph glyph-name="rcaron" unicode="&#x159;" horiz-adv-x="365" 
d="M36 0v528h178v-68q21 38 49.5 57.5t62.5 19.5q19 0 37 -5l-17 -167q-24 5 -46 5q-38 0 -58.5 -24.5t-20.5 -69.5v-276h-185zM125 583l-112 177h147l40 -85l42 85h143l-109 -177h-151z" />
    <glyph glyph-name="Sacute" unicode="&#x15a;" horiz-adv-x="552" 
d="M210 288q-94 25 -137.5 77.5t-43.5 144.5q0 102 67 162t183 60q110 0 169 -53.5t72 -165.5l-188 -18q-7 46 -19.5 63t-40.5 17q-25 0 -38.5 -15t-13.5 -42t12 -41t40 -21l73 -20q101 -28 145 -79.5t44 -140.5q0 -111 -66.5 -172.5t-187.5 -61.5q-247 0 -259 251h192
q4 -50 21 -72t50 -22q28 0 43.5 16.5t15.5 46.5q0 26 -13 41.5t-41 23.5zM169 772l108 166h199l-150 -166h-157z" />
    <glyph glyph-name="sacute" unicode="&#x15b;" horiz-adv-x="427" 
d="M176 208q-88 22 -124.5 60.5t-36.5 109.5q0 77 54 121.5t148 44.5q88 0 133 -39t57 -126l-154 -14q-4 33 -13.5 47.5t-27.5 14.5q-32 0 -32 -39q0 -20 8.5 -31.5t27.5 -16.5l40 -11q48 -13 79 -29t49 -36.5t26 -47t8 -61.5q0 -80 -54 -125.5t-149 -45.5q-101 0 -150 44.5
t-56 139.5h158q5 -32 16 -46.5t32 -14.5q16 0 25.5 11.5t9.5 31.5q0 41 -33 48zM114 583l108 177h185l-146 -177h-147z" />
    <glyph glyph-name="Scircumflex" unicode="&#x15c;" horiz-adv-x="552" 
d="M210 288q-94 25 -137.5 77.5t-43.5 144.5q0 102 67 162t183 60q110 0 169 -53.5t72 -165.5l-188 -18q-7 46 -19.5 63t-40.5 17q-25 0 -38.5 -15t-13.5 -42t12 -41t40 -21l73 -20q101 -28 145 -79.5t44 -140.5q0 -111 -66.5 -172.5t-187.5 -61.5q-247 0 -259 251h192
q4 -50 21 -72t50 -22q28 0 43.5 16.5t15.5 46.5q0 26 -13 41.5t-41 23.5zM318 772l-41 76l-41 -76h-148l107 166h168l107 -166h-152z" />
    <glyph glyph-name="scircumflex" unicode="&#x15d;" horiz-adv-x="427" 
d="M176 208q-88 22 -124.5 60.5t-36.5 109.5q0 77 54 121.5t148 44.5q88 0 133 -39t57 -126l-154 -14q-4 33 -13.5 47.5t-27.5 14.5q-32 0 -32 -39q0 -20 8.5 -31.5t27.5 -16.5l40 -11q48 -13 79 -29t49 -36.5t26 -47t8 -61.5q0 -80 -54 -125.5t-149 -45.5q-101 0 -150 44.5
t-56 139.5h158q5 -32 16 -46.5t32 -14.5q16 0 25.5 11.5t9.5 31.5q0 41 -33 48zM256 583l-40 85l-42 -85h-143l109 177h151l112 -177h-147z" />
    <glyph glyph-name="Scedilla" unicode="&#x15e;" horiz-adv-x="552" 
d="M210 288q-94 25 -137.5 77.5t-43.5 144.5q0 102 67 162t183 60q110 0 169 -53.5t72 -165.5l-188 -18q-7 46 -19.5 63t-40.5 17q-25 0 -38.5 -15t-13.5 -42t12 -41t40 -21l73 -20q101 -28 145 -79.5t44 -140.5q0 -111 -66.5 -172.5t-187.5 -61.5q-247 0 -259 251h192
q4 -50 21 -72t50 -22q28 0 43.5 16.5t15.5 46.5q0 26 -13 41.5t-41 23.5zM188 -142q27 -4 53 -4q16 0 25.5 6.5t9.5 17.5q0 25 -40 25h-32l36 110l88 -13l-14 -44q86 -16 86 -91q0 -47 -36.5 -72.5t-102.5 -25.5q-35 0 -73 7v84z" />
    <glyph glyph-name="scedilla" unicode="&#x15f;" horiz-adv-x="427" 
d="M176 208q-88 22 -124.5 60.5t-36.5 109.5q0 77 54 121.5t148 44.5q88 0 133 -39t57 -126l-154 -14q-4 33 -13.5 47.5t-27.5 14.5q-32 0 -32 -39q0 -20 8.5 -31.5t27.5 -16.5l40 -11q48 -13 79 -29t49 -36.5t26 -47t8 -61.5q0 -80 -54 -125.5t-149 -45.5q-101 0 -150 44.5
t-56 139.5h158q5 -32 16 -46.5t32 -14.5q16 0 25.5 11.5t9.5 31.5q0 41 -33 48zM129 -137q32 -4 54 -4q33 0 33 22q0 23 -40 23h-31l37 107l81 -11l-15 -46q87 -15 87 -86q0 -45 -35 -70t-100 -25q-39 0 -71 7v83z" />
    <glyph glyph-name="Scaron" unicode="&#x160;" horiz-adv-x="552" 
d="M210 288q-94 25 -137.5 77.5t-43.5 144.5q0 102 67 162t183 60q110 0 169 -53.5t72 -165.5l-188 -18q-7 46 -19.5 63t-40.5 17q-25 0 -38.5 -15t-13.5 -42t12 -41t40 -21l73 -20q101 -28 145 -79.5t44 -140.5q0 -111 -66.5 -172.5t-187.5 -61.5q-247 0 -259 251h192
q4 -50 21 -72t50 -22q28 0 43.5 16.5t15.5 46.5q0 26 -13 41.5t-41 23.5zM195 772l-107 166h152l41 -76l41 76h148l-107 -166h-168z" />
    <glyph glyph-name="scaron" unicode="&#x161;" horiz-adv-x="427" 
d="M176 208q-88 22 -124.5 60.5t-36.5 109.5q0 77 54 121.5t148 44.5q88 0 133 -39t57 -126l-154 -14q-4 33 -13.5 47.5t-27.5 14.5q-32 0 -32 -39q0 -20 8.5 -31.5t27.5 -16.5l40 -11q48 -13 79 -29t49 -36.5t26 -47t8 -61.5q0 -80 -54 -125.5t-149 -45.5q-101 0 -150 44.5
t-56 139.5h158q5 -32 16 -46.5t32 -14.5q16 0 25.5 11.5t9.5 31.5q0 41 -33 48zM143 583l-112 177h147l40 -85l42 85h143l-109 -177h-151z" />
    <glyph glyph-name="uni0162" unicode="&#x162;" horiz-adv-x="512" 
d="M158 0v538h-148v176h492v-176h-148v-538h-196zM164 -142q27 -4 53 -4q16 0 25.5 6.5t9.5 17.5q0 25 -40 25h-32l36 110l88 -13l-14 -44q86 -16 86 -91q0 -47 -36.5 -72.5t-102.5 -25.5q-35 0 -73 7v84z" />
    <glyph glyph-name="uni0163" unicode="&#x163;" horiz-adv-x="362" 
d="M357 11q-66 -20 -120 -20q-86 0 -125.5 41.5t-39.5 131.5v229h-68v135h68v137h185v-137h94v-135h-94v-216q0 -45 38 -45q20 0 44 7zM118 -137q32 -4 54 -4q33 0 33 22q0 23 -40 23h-31l37 107l81 -11l-15 -46q87 -15 87 -86q0 -45 -35 -70t-100 -25q-39 0 -71 7v83z" />
    <glyph glyph-name="Tcaron" unicode="&#x164;" horiz-adv-x="512" 
d="M158 0v538h-148v176h492v-176h-148v-538h-196zM172 772l-107 166h152l41 -76l41 76h148l-107 -166h-168z" />
    <glyph glyph-name="tcaron" unicode="&#x165;" horiz-adv-x="457" 
d="M357 11q-66 -20 -120 -20q-86 0 -125.5 41.5t-39.5 131.5v229h-68v135h68v137h185v-137h94v-135h-94v-216q0 -45 38 -45q20 0 44 7zM309 580l16 198h132l-42 -198h-106z" />
    <glyph glyph-name="Tbar" unicode="&#x166;" horiz-adv-x="512" 
d="M158 0v216h-80v164h80v158h-148v176h492v-176h-148v-158h80v-164h-80v-216h-196z" />
    <glyph glyph-name="tbar" unicode="&#x167;" horiz-adv-x="374" 
d="M369 11q-66 -20 -120 -20q-86 0 -125.5 41.5t-39.5 131.5v61h-68v108h68v60h-68v135h68v137h185v-137h94v-135h-94v-60h94v-108h-94v-48q0 -45 38 -45q20 0 44 7z" />
    <glyph glyph-name="Utilde" unicode="&#x168;" horiz-adv-x="620" 
d="M378 714h196v-444q0 -141 -67.5 -214.5t-196.5 -73.5t-196.5 73.5t-67.5 214.5v444h196v-459q0 -50 16 -73t52 -23t52 23t16 73v459zM132 763q2 84 29.5 127t77.5 43q33 0 72 -25q27 -16 40 -16q26 0 26 43h111q-2 -84 -29.5 -127t-77.5 -43q-33 0 -72 25q-27 16 -40 16
q-26 0 -26 -43h-111z" />
    <glyph glyph-name="utilde" unicode="&#x169;" horiz-adv-x="501" 
d="M287 0v54q-24 -33 -56.5 -51.5t-66.5 -18.5q-61 0 -95.5 43.5t-34.5 121.5v379h185v-376q0 -35 27 -35q15 0 24.5 10t9.5 26v375h185v-528h-178zM77 580q0 83 26.5 126.5t77.5 43.5q20 0 35.5 -5.5t34.5 -19.5q25 -16 38 -16q26 0 26 43h108q0 -83 -26.5 -126.5
t-77.5 -43.5q-20 0 -35.5 5.5t-34.5 19.5q-25 16 -38 16q-26 0 -26 -43h-108z" />
    <glyph glyph-name="Umacron" unicode="&#x16a;" horiz-adv-x="620" 
d="M378 714h196v-444q0 -141 -67.5 -214.5t-196.5 -73.5t-196.5 73.5t-67.5 214.5v444h196v-459q0 -50 16 -73t52 -23t52 23t16 73v459zM169 777v140h282v-140h-282z" />
    <glyph glyph-name="umacron" unicode="&#x16b;" horiz-adv-x="501" 
d="M287 0v54q-24 -33 -56.5 -51.5t-66.5 -18.5q-61 0 -95.5 43.5t-34.5 121.5v379h185v-376q0 -35 27 -35q15 0 24.5 10t9.5 26v375h185v-528h-178zM112 600v139h276v-139h-276z" />
    <glyph glyph-name="Ubreve" unicode="&#x16c;" horiz-adv-x="620" 
d="M378 714h196v-444q0 -141 -67.5 -214.5t-196.5 -73.5t-196.5 73.5t-67.5 214.5v444h196v-459q0 -50 16 -73t52 -23t52 23t16 73v459zM477 940q0 -81 -44 -126.5t-123 -45.5t-123 45.5t-44 126.5h127q0 -63 40 -63t40 63h127z" />
    <glyph glyph-name="ubreve" unicode="&#x16d;" horiz-adv-x="501" 
d="M287 0v54q-24 -33 -56.5 -51.5t-66.5 -18.5q-61 0 -95.5 43.5t-34.5 121.5v379h185v-376q0 -35 27 -35q15 0 24.5 10t9.5 26v375h185v-528h-178zM415 761q0 -85 -43.5 -132.5t-121.5 -47.5t-121.5 47.5t-43.5 132.5h126q0 -69 39 -69t39 69h126z" />
    <glyph glyph-name="Uring" unicode="&#x16e;" horiz-adv-x="620" 
d="M378 714h196v-444q0 -141 -67.5 -214.5t-196.5 -73.5t-196.5 73.5t-67.5 214.5v444h196v-459q0 -50 16 -73t52 -23t52 23t16 73v459zM310 737q-54 0 -88 36.5t-34 94.5t34 94.5t88 36.5t88 -36.5t34 -94.5t-34 -94.5t-88 -36.5zM310 822q16 0 24.5 12t8.5 34t-8.5 34
t-24.5 12t-24.5 -12t-8.5 -34t8.5 -34t24.5 -12z" />
    <glyph glyph-name="uring" unicode="&#x16f;" horiz-adv-x="501" 
d="M287 0v54q-24 -33 -56.5 -51.5t-66.5 -18.5q-61 0 -95.5 43.5t-34.5 121.5v379h185v-376q0 -35 27 -35q15 0 24.5 10t9.5 26v375h185v-528h-178zM250 567q-53 0 -86.5 35t-33.5 91t33.5 91t86.5 35t86.5 -35t33.5 -91t-33.5 -91t-86.5 -35zM250 652q14 0 22.5 11t8.5 30
t-8.5 30t-22.5 11t-22.5 -11t-8.5 -30t8.5 -30t22.5 -11z" />
    <glyph glyph-name="Uhungarumlaut" unicode="&#x170;" horiz-adv-x="620" 
d="M378 714h196v-444q0 -141 -67.5 -214.5t-196.5 -73.5t-196.5 73.5t-67.5 214.5v444h196v-459q0 -50 16 -73t52 -23t52 23t16 73v459zM133 772l92 166h163l-121 -166h-134zM332 772l92 166h163l-121 -166h-134z" />
    <glyph glyph-name="uhungarumlaut" unicode="&#x171;" horiz-adv-x="501" 
d="M287 0v54q-24 -33 -56.5 -51.5t-66.5 -18.5q-61 0 -95.5 43.5t-34.5 121.5v379h185v-376q0 -35 27 -35q15 0 24.5 10t9.5 26v375h185v-528h-178zM81 583l92 177h158l-121 -177h-129zM276 583l92 177h158l-121 -177h-129z" />
    <glyph glyph-name="Uogonek" unicode="&#x172;" horiz-adv-x="620" 
d="M378 714h196v-444q0 -141 -67.5 -214.5t-196.5 -73.5t-196.5 73.5t-67.5 214.5v444h196v-459q0 -50 16 -73t52 -23t52 23t16 73v459zM423 -205q-41 -7 -74 -7q-127 0 -127 90q0 33 23.5 66.5t67.5 61.5l109 -6q-29 -19 -43 -36t-14 -35q0 -28 33 -28q16 0 25 2v-108z" />
    <glyph glyph-name="uogonek" unicode="&#x173;" horiz-adv-x="501" 
d="M287 0v54q-24 -33 -56.5 -51.5t-66.5 -18.5q-61 0 -95.5 43.5t-34.5 121.5v379h185v-376q0 -35 27 -35q15 0 24.5 10t9.5 26v375h185v-528h-178zM461 -204q-32 -7 -70 -7q-121 0 -121 91q0 33 20 65.5t58 60.5l117 -6q-32 -23 -44.5 -38.5t-12.5 -32.5q0 -28 28 -28
q12 0 25 2v-107z" />
    <glyph glyph-name="Wcircumflex" unicode="&#x174;" horiz-adv-x="836" 
d="M488 0l-70 409l-70 -409h-204l-136 714h200l57 -449l73 446h165l72 -446l57 449h196l-136 -714h-204zM457 772l-41 76l-41 -76h-148l107 166h168l107 -166h-152z" />
    <glyph glyph-name="wcircumflex" unicode="&#x175;" horiz-adv-x="671" 
d="M399 0l-61 293l-60 -293h-164l-110 528h181l36 -319l56 314h124l56 -312l37 317h173l-111 -528h-157zM379 583l-40 85l-42 -85h-143l109 177h151l112 -177h-147z" />
    <glyph glyph-name="Ycircumflex" unicode="&#x176;" horiz-adv-x="570" 
d="M187 0v263l-185 451h210l76 -271l76 271h204l-185 -451v-263h-196zM326 772l-41 76l-41 -76h-148l107 166h168l107 -166h-152z" />
    <glyph glyph-name="ycircumflex" unicode="&#x177;" horiz-adv-x="476" 
d="M170 27l-167 501h192l53 -311l43 311h182l-157 -551q-28 -97 -69.5 -139.5t-107.5 -42.5q-57 0 -115 19l26 133q28 -7 51 -7q25 0 38 12.5t23 46.5zM282 583l-40 85l-42 -85h-143l109 177h151l112 -177h-147z" />
    <glyph glyph-name="Ydieresis" unicode="&#x178;" horiz-adv-x="570" 
d="M187 0v263l-185 451h210l76 -271l76 271h204l-185 -451v-263h-196zM93 775v150h167v-150h-167zM314 775v150h167v-150h-167z" />
    <glyph glyph-name="Zacute" unicode="&#x179;" horiz-adv-x="511" 
d="M21 0v148l245 395h-237v171h454v-148l-245 -395h258l-15 -171h-460zM145 772l108 166h199l-150 -166h-157z" />
    <glyph glyph-name="zacute" unicode="&#x17a;" horiz-adv-x="408" 
d="M12 0v121l182 256h-172v151h376v-121l-182 -256h188l-14 -151h-378zM107 583l108 177h185l-146 -177h-147z" />
    <glyph glyph-name="Zdotaccent" unicode="&#x17b;" horiz-adv-x="511" 
d="M21 0v148l245 395h-237v171h454v-148l-245 -395h258l-15 -171h-460zM160 775v150h190v-150h-190z" />
    <glyph glyph-name="zdotaccent" unicode="&#x17c;" horiz-adv-x="408" 
d="M12 0v121l182 256h-172v151h376v-121l-182 -256h188l-14 -151h-378zM118 585v129h184v-129h-184z" />
    <glyph glyph-name="Zcaron" unicode="&#x17d;" horiz-adv-x="511" 
d="M21 0v148l245 395h-237v171h454v-148l-245 -395h258l-15 -171h-460zM171 772l-107 166h152l41 -76l41 76h148l-107 -166h-168z" />
    <glyph glyph-name="zcaron" unicode="&#x17e;" horiz-adv-x="408" 
d="M12 0v121l182 256h-172v151h376v-121l-182 -256h188l-14 -151h-378zM136 583l-112 177h147l40 -85l42 85h143l-109 -177h-151z" />
    <glyph glyph-name="longs" unicode="&#x17f;" horiz-adv-x="286" 
d="M32 0v529q0 92 48.5 142.5t136.5 50.5q60 0 114 -20l-21 -123q-22 7 -44 7q-49 0 -49 -55v-531h-185z" />
    <glyph glyph-name="florin" unicode="&#x192;" horiz-adv-x="357" 
d="M77 371h-69v135h69v23q0 92 48.5 142.5t136.5 50.5q60 0 114 -20l-21 -123q-22 7 -44 7q-49 0 -49 -55v-25h85v-135h-85v-389q0 -88 -43 -137.5t-121 -49.5q-57 0 -116 17l22 127q24 -5 35 -5q20 0 29 12.5t9 39.5v385z" />
    <glyph glyph-name="uni0218" unicode="&#x218;" horiz-adv-x="552" 
d="M210 288q-94 25 -137.5 77.5t-43.5 144.5q0 102 67 162t183 60q110 0 169 -53.5t72 -165.5l-188 -18q-7 46 -19.5 63t-40.5 17q-25 0 -38.5 -15t-13.5 -42t12 -41t40 -21l73 -20q101 -28 145 -79.5t44 -140.5q0 -111 -66.5 -172.5t-187.5 -61.5q-247 0 -259 251h192
q4 -50 21 -72t50 -22q28 0 43.5 16.5t15.5 46.5q0 26 -13 41.5t-41 23.5zM104 -251l78 185h195l-118 -185h-155z" />
    <glyph glyph-name="uni0219" unicode="&#x219;" horiz-adv-x="427" 
d="M176 208q-88 22 -124.5 60.5t-36.5 109.5q0 77 54 121.5t148 44.5q88 0 133 -39t57 -126l-154 -14q-4 33 -13.5 47.5t-27.5 14.5q-32 0 -32 -39q0 -20 8.5 -31.5t27.5 -16.5l40 -11q48 -13 79 -29t49 -36.5t26 -47t8 -61.5q0 -80 -54 -125.5t-149 -45.5q-101 0 -150 44.5
t-56 139.5h158q5 -32 16 -46.5t32 -14.5q16 0 25.5 11.5t9.5 31.5q0 41 -33 48zM47 -246l76 180h190l-112 -180h-154z" />
    <glyph glyph-name="uni021A" unicode="&#x21a;" horiz-adv-x="512" 
d="M158 0v538h-148v176h492v-176h-148v-538h-196zM80 -251l78 185h195l-118 -185h-155z" />
    <glyph glyph-name="uni021B" unicode="&#x21b;" horiz-adv-x="362" 
d="M357 11q-66 -20 -120 -20q-86 0 -125.5 41.5t-39.5 131.5v229h-68v135h68v137h185v-137h94v-135h-94v-216q0 -45 38 -45q20 0 44 7zM36 -246l76 180h190l-112 -180h-154z" />
    <glyph glyph-name="uni0237" unicode="&#x237;" horiz-adv-x="257" 
d="M36 528h185v-546q0 -88 -43 -137.5t-121 -49.5q-57 0 -116 17l22 127q24 -5 35 -5q20 0 29 12.5t9 39.5v542z" />
    <glyph glyph-name="uni02BC" unicode="&#x2bc;" horiz-adv-x="507" 
d="M149 397l38 317h172l-67 -317h-143z" />
    <glyph glyph-name="circumflex" unicode="&#x2c6;" horiz-adv-x="507" 
d="M293 583l-40 85l-42 -85h-143l109 177h151l112 -177h-147z" />
    <glyph glyph-name="caron" unicode="&#x2c7;" horiz-adv-x="507" 
d="M180 583l-112 177h147l40 -85l42 85h143l-109 -177h-151z" />
    <glyph glyph-name="uni02C9" unicode="&#x2c9;" horiz-adv-x="507" 
d="M116 600v139h276v-139h-276z" />
    <glyph glyph-name="uni02CB" unicode="&#x2cb;" horiz-adv-x="507" 
d="M253 583l-146 177h185l108 -177h-147z" />
    <glyph glyph-name="breve" unicode="&#x2d8;" horiz-adv-x="507" 
d="M419 761q0 -85 -43.5 -132.5t-121.5 -47.5t-121.5 47.5t-43.5 132.5h126q0 -69 39 -69t39 69h126z" />
    <glyph glyph-name="dotaccent" unicode="&#x2d9;" horiz-adv-x="507" 
d="M162 585v129h184v-129h-184z" />
    <glyph glyph-name="ring" unicode="&#x2da;" horiz-adv-x="507" 
d="M254 567q-53 0 -86.5 35t-33.5 91t33.5 91t86.5 35t86.5 -35t33.5 -91t-33.5 -91t-86.5 -35zM254 652q14 0 22.5 11t8.5 30t-8.5 30t-22.5 11t-22.5 -11t-8.5 -30t8.5 -30t22.5 -11z" />
    <glyph glyph-name="ogonek" unicode="&#x2db;" horiz-adv-x="507" 
d="M347 -204q-32 -7 -70 -7q-121 0 -121 91q0 33 20 65.5t58 60.5l117 -6q-32 -23 -44.5 -38.5t-12.5 -32.5q0 -28 28 -28q12 0 25 2v-107z" />
    <glyph glyph-name="tilde" unicode="&#x2dc;" horiz-adv-x="507" 
d="M81 580q0 83 26.5 126.5t77.5 43.5q20 0 35.5 -5.5t34.5 -19.5q25 -16 38 -16q26 0 26 43h108q0 -83 -26.5 -126.5t-77.5 -43.5q-20 0 -35.5 5.5t-34.5 19.5q-25 16 -38 16q-26 0 -26 -43h-108z" />
    <glyph glyph-name="hungarumlaut" unicode="&#x2dd;" horiz-adv-x="507" 
d="M31 583l92 177h158l-121 -177h-129zM226 583l92 177h158l-121 -177h-129z" />
    <glyph glyph-name="gravecomb" unicode="&#x300;" horiz-adv-x="0" 
d="M-44 583l-146 177h185l108 -177h-147z" />
    <glyph glyph-name="acutecomb" unicode="&#x301;" horiz-adv-x="0" 
d="M-103 583l108 177h185l-146 -177h-147z" />
    <glyph glyph-name="uni0302" unicode="&#x302;" horiz-adv-x="0" 
d="M39 583l-40 85l-42 -85h-143l109 177h151l112 -177h-147z" />
    <glyph glyph-name="tildecomb" unicode="&#x303;" horiz-adv-x="0" 
d="M-173 580q0 83 26.5 126.5t77.5 43.5q20 0 35.5 -5.5t34.5 -19.5q25 -16 38 -16q26 0 26 43h108q0 -83 -26.5 -126.5t-77.5 -43.5q-20 0 -35.5 5.5t-34.5 19.5q-25 16 -38 16q-26 0 -26 -43h-108z" />
    <glyph glyph-name="uni0304" unicode="&#x304;" horiz-adv-x="0" 
d="M-138 600v139h276v-139h-276z" />
    <glyph glyph-name="uni0306" unicode="&#x306;" horiz-adv-x="0" 
d="M165 761q0 -85 -43.5 -132.5t-121.5 -47.5t-121.5 47.5t-43.5 132.5h126q0 -69 39 -69t39 69h126z" />
    <glyph glyph-name="uni0307" unicode="&#x307;" horiz-adv-x="0" 
d="M-92 585v129h184v-129h-184z" />
    <glyph glyph-name="uni0308" unicode="&#x308;" horiz-adv-x="0" 
d="M-182 585v129h158v-129h-158zM24 585v129h158v-129h-158z" />
    <glyph glyph-name="uni030A" unicode="&#x30a;" horiz-adv-x="0" 
d="M0 567q-53 0 -86.5 35t-33.5 91t33.5 91t86.5 35t86.5 -35t33.5 -91t-33.5 -91t-86.5 -35zM0 652q14 0 22.5 11t8.5 30t-8.5 30t-22.5 11t-22.5 -11t-8.5 -30t8.5 -30t22.5 -11z" />
    <glyph glyph-name="uni030B" unicode="&#x30b;" horiz-adv-x="0" 
d="M-169 583l92 177h158l-121 -177h-129zM26 583l92 177h158l-121 -177h-129z" />
    <glyph glyph-name="uni030C" unicode="&#x30c;" horiz-adv-x="0" 
d="M-74 583l-112 177h147l40 -85l42 85h143l-109 -177h-151z" />
    <glyph glyph-name="uni0312" unicode="&#x312;" horiz-adv-x="0" 
d="M-106 583l111 177h154l-75 -177h-190z" />
    <glyph glyph-name="uni0315" unicode="&#x315;" horiz-adv-x="0" 
d="M-98 430l29 284h167l-60 -284h-136z" />
    <glyph glyph-name="uni0326" unicode="&#x326;" horiz-adv-x="0" 
d="M-168 -246l76 180h190l-112 -180h-154z" />
    <glyph glyph-name="uni0327" unicode="&#x327;" horiz-adv-x="0" 
d="M-86 -137q32 -4 54 -4q33 0 33 22q0 23 -40 23h-31l37 107l81 -11l-15 -46q87 -15 87 -86q0 -45 -35 -70t-100 -25q-39 0 -71 7v83z" />
    <glyph glyph-name="uni0328" unicode="&#x328;" horiz-adv-x="0" 
d="M77 -204q-32 -7 -70 -7q-121 0 -121 91q0 33 20 65.5t58 60.5l117 -6q-32 -23 -44.5 -38.5t-12.5 -32.5q0 -28 28 -28q12 0 25 2v-107z" />
    <glyph glyph-name="uni0394" unicode="&#x394;" horiz-adv-x="597" 
d="M5 0l176 714h243l168 -714h-587zM297 559l-80 -406h158z" />
    <glyph glyph-name="uni03A9" unicode="&#x3a9;" horiz-adv-x="650" 
d="M351 0v161q33 37 47 87t14 130q0 92 -21 134.5t-66 42.5t-66 -42.5t-21 -134.5q0 -80 14 -130t47 -87v-161h-279v166h110q-93 102 -93 244q0 150 77 236t211 86t211 -86t77 -236q0 -142 -93 -244h110l-15 -166h-264z" />
    <glyph glyph-name="uni03BC" unicode="&#x3bc;" horiz-adv-x="503" 
d="M289 0v53q-13 -25 -34 -39t-46 -14h-4v-194h-169v722h185v-376q0 -35 27 -35q15 0 24.5 10t9.5 26v375h185v-528h-178z" />
    <glyph glyph-name="pi" unicode="&#x3c0;" horiz-adv-x="581" 
d="M566 10q-52 -19 -114 -19q-76 0 -110 41t-34 132v229h-52v-393h-185v393h-59v135h541v-135h-60v-213q0 -41 29 -41q12 0 24 4z" />
    <glyph glyph-name="Wgrave" unicode="&#x1e80;" horiz-adv-x="836" 
d="M488 0l-70 409l-70 -409h-204l-136 714h200l57 -449l73 446h165l72 -446l57 449h196l-136 -714h-204zM371 772l-150 166h199l108 -166h-157z" />
    <glyph glyph-name="wgrave" unicode="&#x1e81;" horiz-adv-x="671" 
d="M399 0l-61 293l-60 -293h-164l-110 528h181l36 -319l56 314h124l56 -312l37 317h173l-111 -528h-157zM296 583l-146 177h185l108 -177h-147z" />
    <glyph glyph-name="Wacute" unicode="&#x1e82;" horiz-adv-x="836" 
d="M488 0l-70 409l-70 -409h-204l-136 714h200l57 -449l73 446h165l72 -446l57 449h196l-136 -714h-204zM308 772l108 166h199l-150 -166h-157z" />
    <glyph glyph-name="wacute" unicode="&#x1e83;" horiz-adv-x="671" 
d="M399 0l-61 293l-60 -293h-164l-110 528h181l36 -319l56 314h124l56 -312l37 317h173l-111 -528h-157zM237 583l108 177h185l-146 -177h-147z" />
    <glyph glyph-name="Wdieresis" unicode="&#x1e84;" horiz-adv-x="836" 
d="M488 0l-70 409l-70 -409h-204l-136 714h200l57 -449l73 446h165l72 -446l57 449h196l-136 -714h-204zM224 775v150h167v-150h-167zM445 775v150h167v-150h-167z" />
    <glyph glyph-name="wdieresis" unicode="&#x1e85;" horiz-adv-x="671" 
d="M399 0l-61 293l-60 -293h-164l-110 528h181l36 -319l56 314h124l56 -312l37 317h173l-111 -528h-157zM158 585v129h158v-129h-158zM364 585v129h158v-129h-158z" />
    <glyph glyph-name="uni1E9E" unicode="&#x1e9e;" horiz-adv-x="756" 
d="M44 0v485q0 109 64.5 169t180.5 60h332v-135l-26 -15q-58 -34 -81 -56t-23 -44q0 -19 12.5 -30t49.5 -25l32 -12q82 -31 119 -80.5t37 -127.5q0 -94 -61 -150.5t-163 -56.5q-221 0 -240 230h187q6 -76 51 -76q37 0 37 49q0 26 -16.5 42t-60.5 33l-32 12q-74 28 -104.5 60
t-30.5 80q0 69 90 130h-92q-38 0 -54 -23.5t-16 -81.5v-437h-192z" />
    <glyph glyph-name="Ygrave" unicode="&#x1ef2;" horiz-adv-x="570" 
d="M187 0v263l-185 451h210l76 -271l76 271h204l-185 -451v-263h-196zM240 772l-150 166h199l108 -166h-157z" />
    <glyph glyph-name="ygrave" unicode="&#x1ef3;" horiz-adv-x="476" 
d="M170 27l-167 501h192l53 -311l43 311h182l-157 -551q-28 -97 -69.5 -139.5t-107.5 -42.5q-57 0 -115 19l26 133q28 -7 51 -7q25 0 38 12.5t23 46.5zM199 583l-146 177h185l108 -177h-147z" />
    <glyph glyph-name="uni2000" unicode="&#x2000;" horiz-adv-x="390" 
 />
    <glyph glyph-name="uni2001" unicode="&#x2001;" horiz-adv-x="780" 
 />
    <glyph glyph-name="uni2002" unicode="&#x2002;" horiz-adv-x="390" 
 />
    <glyph glyph-name="uni2003" unicode="&#x2003;" horiz-adv-x="780" 
 />
    <glyph glyph-name="uni2004" unicode="&#x2004;" horiz-adv-x="260" 
 />
    <glyph glyph-name="uni2005" unicode="&#x2005;" horiz-adv-x="195" 
 />
    <glyph glyph-name="uni2006" unicode="&#x2006;" horiz-adv-x="130" 
 />
    <glyph glyph-name="uni2007" unicode="&#x2007;" horiz-adv-x="500" 
 />
    <glyph glyph-name="uni2008" unicode="&#x2008;" horiz-adv-x="238" 
 />
    <glyph glyph-name="uni2009" unicode="&#x2009;" horiz-adv-x="156" 
 />
    <glyph glyph-name="uni200A" unicode="&#x200a;" horiz-adv-x="50" 
 />
    <glyph glyph-name="uni200B" unicode="&#x200b;" horiz-adv-x="0" 
 />
    <glyph glyph-name="uni2010" unicode="&#x2010;" horiz-adv-x="332" 
d="M20 210v184h292v-184h-292z" />
    <glyph glyph-name="uni2012" unicode="&#x2012;" horiz-adv-x="500" 
d="M55 261v174h390v-174h-390z" />
    <glyph glyph-name="endash" unicode="&#x2013;" horiz-adv-x="390" 
d="M0 215v174h390v-174h-390z" />
    <glyph glyph-name="emdash" unicode="&#x2014;" horiz-adv-x="780" 
d="M0 215v174h780v-174h-780z" />
    <glyph glyph-name="uni2015" unicode="&#x2015;" horiz-adv-x="780" 
d="M0 215v174h780v-174h-780z" />
    <glyph glyph-name="quoteleft" unicode="&#x2018;" horiz-adv-x="239" 
d="M16 397l60 317h141l-29 -317h-172z" />
    <glyph glyph-name="quoteright" unicode="&#x2019;" horiz-adv-x="239" 
d="M22 397l29 317h172l-60 -317h-141z" />
    <glyph glyph-name="quotesinglbase" unicode="&#x201a;" horiz-adv-x="239" 
d="M22 -113l29 317h172l-60 -317h-141z" />
    <glyph glyph-name="quotedblleft" unicode="&#x201c;" horiz-adv-x="445" 
d="M16 397l60 317h141l-29 -317h-172zM222 397l60 317h141l-29 -317h-172z" />
    <glyph glyph-name="quotedblright" unicode="&#x201d;" horiz-adv-x="445" 
d="M22 397l29 317h172l-60 -317h-141zM228 397l29 317h172l-60 -317h-141z" />
    <glyph glyph-name="quotedblbase" unicode="&#x201e;" horiz-adv-x="445" 
d="M22 -113l29 317h172l-60 -317h-141zM228 -113l29 317h172l-60 -317h-141z" />
    <glyph glyph-name="dagger" unicode="&#x2020;" horiz-adv-x="423" 
d="M121 -87v452h-108v180h108v169h181v-169h108v-180h-108v-452h-181z" />
    <glyph glyph-name="daggerdbl" unicode="&#x2021;" horiz-adv-x="437" 
d="M128 -87v169h-108v180h108v103h-108v180h108v169h181v-169h108v-180h-108v-103h108v-180h-108v-169h-181z" />
    <glyph glyph-name="bullet" unicode="&#x2022;" horiz-adv-x="358" 
d="M179 138q-66 0 -109.5 45.5t-43.5 116.5t43 116.5t110 45.5t110 -45.5t43 -116.5t-43.5 -116.5t-109.5 -45.5z" />
    <glyph glyph-name="ellipsis" unicode="&#x2026;" horiz-adv-x="780" 
d="M45 0v203h170v-203h-170zM305 0v203h170v-203h-170zM565 0v203h170v-203h-170z" />
    <glyph glyph-name="perthousand" unicode="&#x2030;" horiz-adv-x="1240" 
d="M218 0l299 691h152l-299 -691h-152zM710 -13q-76 0 -115 55t-39 161q0 107 40.5 163t117.5 56q76 0 115 -55t39 -161q0 -107 -40.5 -163t-117.5 -56zM711 112q14 0 20 21t6 71q0 52 -5 72.5t-19 20.5t-20 -21t-6 -71q0 -52 5 -72.5t19 -20.5zM1062 -13q-76 0 -115 55
t-39 161q0 107 40.5 163t117.5 56q76 0 115 -55t39 -161q0 -107 -40.5 -163t-117.5 -56zM1063 112q14 0 20 21t6 71q0 52 -5 72.5t-19 20.5t-20 -21t-6 -71q0 -52 5 -72.5t19 -20.5zM174 269q-76 0 -115 55t-39 161q0 107 40.5 163t117.5 56q76 0 115 -55t39 -161
q0 -107 -40.5 -163t-117.5 -56zM175 394q14 0 20 21t6 71q0 52 -5 72.5t-19 20.5t-20 -21t-6 -71q0 -52 5 -72.5t19 -20.5z" />
    <glyph glyph-name="minute" unicode="&#x2032;" horiz-adv-x="250" 
d="M23 443l31 271h173l-63 -271h-141z" />
    <glyph glyph-name="second" unicode="&#x2033;" horiz-adv-x="465" 
d="M23 443l31 271h173l-63 -271h-141zM238 443l31 271h173l-63 -271h-141z" />
    <glyph glyph-name="guilsinglleft" unicode="&#x2039;" horiz-adv-x="321" 
d="M110 28l-92 228l91 230h188l-90 -229l90 -229h-187z" />
    <glyph glyph-name="guilsinglright" unicode="&#x203a;" horiz-adv-x="321" 
d="M24 28l90 229l-90 229h187l92 -228l-91 -230h-188z" />
    <glyph glyph-name="fraction" unicode="&#x2044;" horiz-adv-x="139" 
d="M-156 0l299 691h152l-299 -691h-152z" />
    <glyph glyph-name="uni2070" unicode="&#x2070;" 
d="M174 393q-76 0 -115 55t-39 161q0 107 40.5 163t117.5 56q76 0 115 -55t39 -161q0 -107 -40.5 -163t-117.5 -56zM175 518q14 0 20 21t6 71q0 52 -5 72.5t-19 20.5t-20 -21t-6 -71q0 -52 5 -72.5t19 -20.5z" />
    <glyph glyph-name="uni2074" unicode="&#x2074;" 
d="M182 406v76h-155v92l139 241h133v-237h36l-8 -96h-28v-76h-117zM182 672l-52 -94h52v94z" />
    <glyph glyph-name="uni2075" unicode="&#x2075;" 
d="M45 561l17 254h238v-112h-143l-3 -50q23 18 57 18q52 0 80 -35t28 -99q0 -67 -38 -105.5t-103 -38.5q-63 0 -99.5 32.5t-41.5 92.5h120q1 -28 21 -28q21 0 21 45q0 39 -23 39q-12 0 -18 -13h-113z" />
    <glyph glyph-name="uni2076" unicode="&#x2076;" 
d="M202 698q-4 28 -20 28q-13 0 -19 -18t-7 -62q22 22 61 22q49 0 77.5 -35t28.5 -97q0 -67 -36.5 -105t-100.5 -38q-74 0 -112.5 52.5t-38.5 154.5q0 228 154 228q55 0 88.5 -30.5t41.5 -89.5zM182 491q25 0 25 43q0 44 -25 44q-13 0 -18.5 -10.5t-5.5 -34.5q0 -22 5.5 -32
t18.5 -10z" />
    <glyph glyph-name="uni2077" unicode="&#x2077;" 
d="M85 406q27 146 97 297h-136v112h272v-93q-38 -85 -62 -159.5t-39 -156.5h-132z" />
    <glyph glyph-name="uni2078" unicode="&#x2078;" 
d="M263 619q59 -29 59 -98q0 -62 -38.5 -95t-109.5 -33q-70 0 -107 32.5t-37 93.5q0 71 59 100q-25 16 -38 39t-13 50q0 57 36.5 88.5t103.5 31.5q65 0 100.5 -31t35.5 -87q0 -28 -13 -51.5t-38 -39.5zM175 490q25 0 25 39t-23 39q-25 0 -25 -41q0 -37 23 -37zM175 663
q22 0 22 34t-20 34q-22 0 -22 -36q0 -32 20 -32z" />
    <glyph glyph-name="uni2079" unicode="&#x2079;" 
d="M150 519q3 -24 20 -24q13 0 18 17.5t6 62.5q-22 -22 -56 -22q-51 0 -80 35t-29 97q0 67 37 105t103 38q148 0 148 -207q0 -112 -38.5 -170t-112.5 -58q-58 0 -93 33t-42 93h119zM170 643q13 0 18.5 11t5.5 34q0 22 -5.5 32t-18.5 10q-25 0 -25 -43q0 -44 25 -44z" />
    <glyph glyph-name="uni2080" unicode="&#x2080;" 
d="M174 -135q-76 0 -115 55t-39 161q0 107 40.5 163t117.5 56q76 0 115 -55t39 -161q0 -107 -40.5 -163t-117.5 -56zM175 -10q14 0 20 21t6 71q0 52 -5 72.5t-19 20.5t-20 -21t-6 -71q0 -52 5 -72.5t19 -20.5z" />
    <glyph glyph-name="uni2081" unicode="&#x2081;" 
d="M157 -122v268l-67 -50l-61 91l139 100h117v-409h-128z" />
    <glyph glyph-name="uni2082" unicode="&#x2082;" 
d="M47 -122v100q39 34 81 76q43 43 56.5 63t13.5 41q0 17 -4.5 24.5t-14.5 7.5t-15.5 -10t-9.5 -33l-115 11q24 142 149 142q59 0 94.5 -36t35.5 -95q0 -72 -73 -145q-22 -22 -37 -34h115l-9 -112h-267z" />
    <glyph glyph-name="uni2083" unicode="&#x2083;" 
d="M154 42v88h20q22 0 22 35q0 34 -19 34q-20 0 -23 -41l-117 10q8 65 45.5 98.5t101.5 33.5q62 0 99.5 -32.5t37.5 -87.5q0 -59 -46 -88q54 -31 54 -94q0 -60 -40.5 -96.5t-107.5 -36.5q-71 0 -110 40t-40 113h119q0 -53 28 -53q12 0 17 9t5 30q0 18 -6.5 28t-17.5 10h-22z
" />
    <glyph glyph-name="uni2084" unicode="&#x2084;" 
d="M182 -122v76h-155v92l139 241h133v-237h36l-8 -96h-28v-76h-117zM182 144l-52 -94h52v94z" />
    <glyph glyph-name="uni2085" unicode="&#x2085;" 
d="M45 33l17 254h238v-112h-143l-3 -50q23 18 57 18q52 0 80 -35t28 -99q0 -67 -38 -105.5t-103 -38.5q-63 0 -99.5 32.5t-41.5 92.5h120q1 -28 21 -28q21 0 21 45q0 39 -23 39q-12 0 -18 -13h-113z" />
    <glyph glyph-name="uni2086" unicode="&#x2086;" 
d="M202 170q-4 28 -20 28q-13 0 -19 -18t-7 -62q22 22 61 22q49 0 77.5 -35t28.5 -97q0 -67 -36.5 -105t-100.5 -38q-74 0 -112.5 52.5t-38.5 154.5q0 228 154 228q55 0 88.5 -30.5t41.5 -89.5zM182 -37q25 0 25 43q0 44 -25 44q-13 0 -18.5 -10.5t-5.5 -34.5q0 -22 5.5 -32
t18.5 -10z" />
    <glyph glyph-name="uni2087" unicode="&#x2087;" 
d="M85 -122q27 146 97 297h-136v112h272v-93q-38 -85 -62 -159.5t-39 -156.5h-132z" />
    <glyph glyph-name="uni2088" unicode="&#x2088;" 
d="M263 91q59 -29 59 -98q0 -62 -38.5 -95t-109.5 -33q-70 0 -107 32.5t-37 93.5q0 71 59 100q-25 16 -38 39t-13 50q0 57 36.5 88.5t103.5 31.5q65 0 100.5 -31t35.5 -87q0 -28 -13 -51.5t-38 -39.5zM175 -38q25 0 25 39t-23 39q-25 0 -25 -41q0 -37 23 -37zM175 135
q22 0 22 34t-20 34q-22 0 -22 -36q0 -32 20 -32z" />
    <glyph glyph-name="uni2089" unicode="&#x2089;" 
d="M150 -9q3 -24 20 -24q13 0 18 17.5t6 62.5q-22 -22 -56 -22q-51 0 -80 35t-29 97q0 67 37 105t103 38q148 0 148 -207q0 -112 -38.5 -170t-112.5 -58q-58 0 -93 33t-42 93h119zM170 115q13 0 18.5 11t5.5 34q0 22 -5.5 32t-18.5 10q-25 0 -25 -43q0 -44 25 -44z" />
    <glyph glyph-name="Euro" unicode="&#x20ac;" horiz-adv-x="500" 
d="M491 201q-5 -105 -59 -162t-147 -57q-102 0 -157 62.5t-68 195.5h-53l10 82h38v51h-48l10 82h44q17 128 73.5 191.5t155.5 63.5q83 0 133 -49.5t63 -145.5l-167 -21q-5 26 -13.5 37.5t-23.5 11.5q-20 0 -29.5 -19t-13.5 -69h146l-10 -82h-139v-51h135l-10 -82h-122
q4 -51 14.5 -71t32.5 -20q34 0 41 52h164z" />
    <glyph glyph-name="uni20B9" unicode="&#x20b9;" horiz-adv-x="500" 
d="M230 0l-188 215v106h73q74 0 95 70h-168v111h165q-23 61 -92 61h-73v128h444l-13 -114h-117q32 -26 48 -75h62l-13 -111h-42q-10 -61 -46.5 -101.5t-104.5 -63.5l208 -226h-238z" />
    <glyph glyph-name="uni20BA" unicode="&#x20ba;" horiz-adv-x="500" 
d="M65 0v272l-29 -12l-33 82l62 26v46l-29 -12l-33 82l62 26v181h184v-104l91 38l34 -82l-125 -52v-46l91 38l34 -82l-125 -52v-174h4q26 0 42 34.5t17 93.5h180q-16 -303 -299 -303h-128z" />
    <glyph glyph-name="afii61289" unicode="&#x2113;" horiz-adv-x="476" 
d="M483 73q-47 -48 -95.5 -69.5t-110.5 -21.5q-64 0 -110.5 26.5t-65.5 74.5l-1 3q-18 -14 -43 -31l-51 86q40 28 66 49q-3 29 -3 60v229q0 118 56.5 186t154.5 68q81 0 128 -54.5t47 -148.5q0 -81 -44 -154t-146 -161v-4q0 -79 61 -79q40 0 87 43zM265 361q37 44 53.5 82
t16.5 80q0 76 -33 76q-20 0 -28.5 -21t-8.5 -67v-150z" />
    <glyph glyph-name="trademark" unicode="&#x2122;" horiz-adv-x="776" 
d="M638 314v216l-43 -216h-88l-43 216v-216h-103v400h144l47 -254l44 254h148v-400h-106zM101 314v282h-89v118h302v-118h-89v-282h-124z" />
    <glyph glyph-name="uni2126" unicode="&#x2126;" horiz-adv-x="650" 
d="M351 0v161q33 37 47 87t14 130q0 92 -21 134.5t-66 42.5t-66 -42.5t-21 -134.5q0 -80 14 -130t47 -87v-161h-279v166h110q-93 102 -93 244q0 150 77 236t211 86t211 -86t77 -236q0 -142 -93 -244h110l-15 -166h-264z" />
    <glyph glyph-name="estimated" unicode="&#x212e;" horiz-adv-x="911" 
d="M775 129q-54 -66 -139 -103t-182 -37q-107 0 -198.5 46.5t-148.5 130t-57 186.5q0 95 51.5 178t145 135t207.5 52q106 0 198.5 -46.5t150.5 -131t58 -187.5v-10h-657q-5 0 -5 -4v-199q0 -13 9 -22q49 -53 112 -80.5t136 -27.5q75 0 142 31t119 89h58zM711 568q0 14 -9 24
q-50 50 -113 76.5t-133 26.5q-68 0 -131.5 -27.5t-115.5 -79.5q-10 -7 -10 -24v-195q0 -7 5 -7h503q4 0 4 7v199z" />
    <glyph glyph-name="oneseventh" unicode="&#x2150;" horiz-adv-x="888" 
d="M210 0l299 691h152l-299 -691h-152zM621 0q27 146 97 297h-136v112h272v-93q-38 -85 -62 -159.5t-39 -156.5h-132zM157 282v268l-67 -50l-61 91l139 100h117v-409h-128z" />
    <glyph glyph-name="oneninth" unicode="&#x2151;" horiz-adv-x="888" 
d="M216 0l299 691h152l-299 -691h-152zM686 113q3 -24 20 -24q13 0 18 17.5t6 62.5q-22 -22 -56 -22q-51 0 -80 35t-29 97q0 67 37 105t103 38q148 0 148 -207q0 -112 -38.5 -170t-112.5 -58q-58 0 -93 33t-42 93h119zM706 237q13 0 18.5 11t5.5 34q0 22 -5.5 32t-18.5 10
q-25 0 -25 -43q0 -44 25 -44zM157 282v268l-67 -50l-61 91l139 100h117v-409h-128z" />
    <glyph glyph-name="onethird" unicode="&#x2153;" horiz-adv-x="888" 
d="M221 0l299 691h152l-299 -691h-152zM690 164v88h20q22 0 22 35q0 34 -19 34q-20 0 -23 -41l-117 10q8 65 45.5 98.5t101.5 33.5q62 0 99.5 -32.5t37.5 -87.5q0 -59 -46 -88q54 -31 54 -94q0 -60 -40.5 -96.5t-107.5 -36.5q-71 0 -110 40t-40 113h119q0 -53 28 -53
q12 0 17 9t5 30q0 18 -6.5 28t-17.5 10h-22zM157 282v268l-67 -50l-61 91l139 100h117v-409h-128z" />
    <glyph glyph-name="twothirds" unicode="&#x2154;" horiz-adv-x="888" 
d="M235 0l299 691h152l-299 -691h-152zM690 164v88h20q22 0 22 35q0 34 -19 34q-20 0 -23 -41l-117 10q8 65 45.5 98.5t101.5 33.5q62 0 99.5 -32.5t37.5 -87.5q0 -59 -46 -88q54 -31 54 -94q0 -60 -40.5 -96.5t-107.5 -36.5q-71 0 -110 40t-40 113h119q0 -53 28 -53
q12 0 17 9t5 30q0 18 -6.5 28t-17.5 10h-22zM47 282v100q39 34 81 76q43 43 56.5 63t13.5 41q0 17 -4.5 24.5t-14.5 7.5t-15.5 -10t-9.5 -33l-115 11q24 142 149 142q59 0 94.5 -36t35.5 -95q0 -72 -73 -145q-22 -22 -37 -34h115l-9 -112h-267z" />
    <glyph glyph-name="onefifth" unicode="&#x2155;" horiz-adv-x="888" 
d="M216 0l299 691h152l-299 -691h-152zM581 155l17 254h238v-112h-143l-3 -50q23 18 57 18q52 0 80 -35t28 -99q0 -67 -38 -105.5t-103 -38.5q-63 0 -99.5 32.5t-41.5 92.5h120q1 -28 21 -28q21 0 21 45q0 39 -23 39q-12 0 -18 -13h-113zM157 282v268l-67 -50l-61 91
l139 100h117v-409h-128z" />
    <glyph glyph-name="twofifths" unicode="&#x2156;" horiz-adv-x="888" 
d="M230 0l299 691h152l-299 -691h-152zM581 155l17 254h238v-112h-143l-3 -50q23 18 57 18q52 0 80 -35t28 -99q0 -67 -38 -105.5t-103 -38.5q-63 0 -99.5 32.5t-41.5 92.5h120q1 -28 21 -28q21 0 21 45q0 39 -23 39q-12 0 -18 -13h-113zM47 282v100q39 34 81 76
q43 43 56.5 63t13.5 41q0 17 -4.5 24.5t-14.5 7.5t-15.5 -10t-9.5 -33l-115 11q24 142 149 142q59 0 94.5 -36t35.5 -95q0 -72 -73 -145q-22 -22 -37 -34h115l-9 -112h-267z" />
    <glyph glyph-name="threefifths" unicode="&#x2157;" horiz-adv-x="888" 
d="M219 0l299 691h152l-299 -691h-152zM581 155l17 254h238v-112h-143l-3 -50q23 18 57 18q52 0 80 -35t28 -99q0 -67 -38 -105.5t-103 -38.5q-63 0 -99.5 32.5t-41.5 92.5h120q1 -28 21 -28q21 0 21 45q0 39 -23 39q-12 0 -18 -13h-113zM154 446v88h20q22 0 22 35
q0 34 -19 34q-20 0 -23 -41l-117 10q8 65 45.5 98.5t101.5 33.5q62 0 99.5 -32.5t37.5 -87.5q0 -59 -46 -88q54 -31 54 -94q0 -60 -40.5 -96.5t-107.5 -36.5q-71 0 -110 40t-40 113h119q0 -53 28 -53q12 0 17 9t5 30q0 18 -6.5 28t-17.5 10h-22z" />
    <glyph glyph-name="fourfifths" unicode="&#x2158;" horiz-adv-x="888" 
d="M229 0l299 691h152l-299 -691h-152zM581 155l17 254h238v-112h-143l-3 -50q23 18 57 18q52 0 80 -35t28 -99q0 -67 -38 -105.5t-103 -38.5q-63 0 -99.5 32.5t-41.5 92.5h120q1 -28 21 -28q21 0 21 45q0 39 -23 39q-12 0 -18 -13h-113zM182 282v76h-155v92l139 241h133
v-237h36l-8 -96h-28v-76h-117zM182 548l-52 -94h52v94z" />
    <glyph glyph-name="onesixth" unicode="&#x2159;" horiz-adv-x="888" 
d="M226 0l299 691h152l-299 -691h-152zM738 292q-4 28 -20 28q-13 0 -19 -18t-7 -62q22 22 61 22q49 0 77.5 -35t28.5 -97q0 -67 -36.5 -105t-100.5 -38q-74 0 -112.5 52.5t-38.5 154.5q0 228 154 228q55 0 88.5 -30.5t41.5 -89.5zM718 85q25 0 25 43q0 44 -25 44
q-13 0 -18.5 -10.5t-5.5 -34.5q0 -22 5.5 -32t18.5 -10zM157 282v268l-67 -50l-61 91l139 100h117v-409h-128z" />
    <glyph glyph-name="fivesixths" unicode="&#x215a;" horiz-adv-x="888" 
d="M224 0l299 691h152l-299 -691h-152zM738 292q-4 28 -20 28q-13 0 -19 -18t-7 -62q22 22 61 22q49 0 77.5 -35t28.5 -97q0 -67 -36.5 -105t-100.5 -38q-74 0 -112.5 52.5t-38.5 154.5q0 228 154 228q55 0 88.5 -30.5t41.5 -89.5zM718 85q25 0 25 43q0 44 -25 44
q-13 0 -18.5 -10.5t-5.5 -34.5q0 -22 5.5 -32t18.5 -10zM45 437l17 254h238v-112h-143l-3 -50q23 18 57 18q52 0 80 -35t28 -99q0 -67 -38 -105.5t-103 -38.5q-63 0 -99.5 32.5t-41.5 92.5h120q1 -28 21 -28q21 0 21 45q0 39 -23 39q-12 0 -18 -13h-113z" />
    <glyph glyph-name="oneeighth" unicode="&#x215b;" horiz-adv-x="888" 
d="M217 0l299 691h152l-299 -691h-152zM799 213q59 -29 59 -98q0 -62 -38.5 -95t-109.5 -33q-70 0 -107 32.5t-37 93.5q0 71 59 100q-25 16 -38 39t-13 50q0 57 36.5 88.5t103.5 31.5q65 0 100.5 -31t35.5 -87q0 -28 -13 -51.5t-38 -39.5zM711 84q25 0 25 39t-23 39
q-25 0 -25 -41q0 -37 23 -37zM711 257q22 0 22 34t-20 34q-22 0 -22 -36q0 -32 20 -32zM157 282v268l-67 -50l-61 91l139 100h117v-409h-128z" />
    <glyph glyph-name="threeeighths" unicode="&#x215c;" horiz-adv-x="888" 
d="M221 0l299 691h152l-299 -691h-152zM799 213q59 -29 59 -98q0 -62 -38.5 -95t-109.5 -33q-70 0 -107 32.5t-37 93.5q0 71 59 100q-25 16 -38 39t-13 50q0 57 36.5 88.5t103.5 31.5q65 0 100.5 -31t35.5 -87q0 -28 -13 -51.5t-38 -39.5zM711 84q25 0 25 39t-23 39
q-25 0 -25 -41q0 -37 23 -37zM711 257q22 0 22 34t-20 34q-22 0 -22 -36q0 -32 20 -32zM154 446v88h20q22 0 22 35q0 34 -19 34q-20 0 -23 -41l-117 10q8 65 45.5 98.5t101.5 33.5q62 0 99.5 -32.5t37.5 -87.5q0 -59 -46 -88q54 -31 54 -94q0 -60 -40.5 -96.5t-107.5 -36.5
q-71 0 -110 40t-40 113h119q0 -53 28 -53q12 0 17 9t5 30q0 18 -6.5 28t-17.5 10h-22z" />
    <glyph glyph-name="fiveeighths" unicode="&#x215d;" horiz-adv-x="888" 
d="M219 0l299 691h152l-299 -691h-152zM799 213q59 -29 59 -98q0 -62 -38.5 -95t-109.5 -33q-70 0 -107 32.5t-37 93.5q0 71 59 100q-25 16 -38 39t-13 50q0 57 36.5 88.5t103.5 31.5q65 0 100.5 -31t35.5 -87q0 -28 -13 -51.5t-38 -39.5zM711 84q25 0 25 39t-23 39
q-25 0 -25 -41q0 -37 23 -37zM711 257q22 0 22 34t-20 34q-22 0 -22 -36q0 -32 20 -32zM45 437l17 254h238v-112h-143l-3 -50q23 18 57 18q52 0 80 -35t28 -99q0 -67 -38 -105.5t-103 -38.5q-63 0 -99.5 32.5t-41.5 92.5h120q1 -28 21 -28q21 0 21 45q0 39 -23 39
q-12 0 -18 -13h-113z" />
    <glyph glyph-name="seveneighths" unicode="&#x215e;" horiz-adv-x="888" 
d="M197 0l299 691h152l-299 -691h-152zM799 213q59 -29 59 -98q0 -62 -38.5 -95t-109.5 -33q-70 0 -107 32.5t-37 93.5q0 71 59 100q-25 16 -38 39t-13 50q0 57 36.5 88.5t103.5 31.5q65 0 100.5 -31t35.5 -87q0 -28 -13 -51.5t-38 -39.5zM711 84q25 0 25 39t-23 39
q-25 0 -25 -41q0 -37 23 -37zM711 257q22 0 22 34t-20 34q-22 0 -22 -36q0 -32 20 -32zM85 282q27 146 97 297h-136v112h272v-93q-38 -85 -62 -159.5t-39 -156.5h-132z" />
    <glyph glyph-name="partialdiff" unicode="&#x2202;" horiz-adv-x="508" 
d="M70 530q20 86 75.5 133t136.5 47q209 0 209 -318q0 -123 -31.5 -215.5t-91 -143.5t-140.5 -51q-95 0 -152 62.5t-57 167.5q0 64 25 118.5t70 88.5t101 34q66 0 105 -45v18q0 65 -9 96t-29 31q-16 0 -25 -11t-14 -36zM239 137q26 0 42.5 27t16.5 70q0 38 -12.5 57.5
t-36.5 19.5q-26 0 -42 -26.5t-16 -69.5q0 -78 48 -78z" />
    <glyph glyph-name="uni2206" unicode="&#x2206;" horiz-adv-x="597" 
d="M5 0l176 714h243l168 -714h-587zM297 559l-80 -406h158z" />
    <glyph glyph-name="product" unicode="&#x220f;" horiz-adv-x="646" 
d="M392 0v538h-138v-538h-196v714h530v-714h-196z" />
    <glyph glyph-name="summation" unicode="&#x2211;" horiz-adv-x="511" 
d="M18 -102v119l161 291l-161 286v120h480v-176h-250l123 -223l-130 -241h265l-16 -176h-472z" />
    <glyph glyph-name="minus" unicode="&#x2212;" horiz-adv-x="500" 
d="M47 256v169h406v-169h-406z" />
    <glyph glyph-name="uni2215" unicode="&#x2215;" horiz-adv-x="139" 
d="M-156 0l299 691h152l-299 -691h-152z" />
    <glyph glyph-name="uni2219" unicode="&#x2219;" horiz-adv-x="238" 
d="M34 239v203h170v-203h-170z" />
    <glyph glyph-name="radical" unicode="&#x221a;" horiz-adv-x="560" 
d="M176 0l-91 275h-73v165h197l53 -218l119 509h177l-206 -731h-176z" />
    <glyph glyph-name="infinity" unicode="&#x221e;" horiz-adv-x="522" 
d="M261 232q-23 -39 -51 -57.5t-64 -18.5q-62 0 -96.5 49t-34.5 136t34.5 136t96.5 49q36 0 64 -18.5t51 -57.5q23 39 51 57.5t64 18.5q62 0 96.5 -49t34.5 -136t-34.5 -136t-96.5 -49q-36 0 -64 18.5t-51 57.5zM217 341q-17 52 -41 52q-25 0 -25 -52t25 -52q24 0 41 52z
M305 341q17 -52 41 -52q25 0 25 52t-25 52q-24 0 -41 -52z" />
    <glyph glyph-name="integral" unicode="&#x222b;" horiz-adv-x="322" 
d="M22 37q20 -6 37 -6q18 0 28 11t10 31q0 15 -2 29l-43 390q-3 29 -3 49q1 83 45.5 132t118.5 49q55 0 109 -18l-22 -139q-19 6 -37 6t-28 -11t-10 -31q0 -15 2 -29l43 -390q3 -28 3 -49q-1 -83 -45.5 -132t-118.5 -49q-55 0 -109 18z" />
    <glyph glyph-name="approxequal" unicode="&#x2248;" horiz-adv-x="500" 
d="M490 317q0 -131 -32.5 -193t-101.5 -62q-28 0 -53.5 10.5t-60.5 35.5q-21 15 -30 19.5t-17 4.5q-19 0 -27 -15t-8 -49h-150q0 131 32.5 193t101.5 62q28 0 53.5 -10.5t60.5 -35.5q21 -15 30 -19.5t17 -4.5q19 0 27 15t8 49h150zM490 605q0 -131 -32.5 -193t-101.5 -62
q-28 0 -53.5 10.5t-60.5 35.5q-21 15 -30 19.5t-17 4.5q-19 0 -27 -15t-8 -49h-150q0 131 32.5 193t101.5 62q28 0 53.5 -10.5t60.5 -35.5q21 -15 30 -19.5t17 -4.5q19 0 27 15t8 49h150z" />
    <glyph glyph-name="notequal" unicode="&#x2260;" horiz-adv-x="500" 
d="M246 142l-37 -104h-133l37 104h-51v164h109l25 69h-134v164h192l37 104h133l-37 -104h51v-164h-109l-25 -69h134v-164h-192z" />
    <glyph glyph-name="lessequal" unicode="&#x2264;" horiz-adv-x="500" 
d="M47 0v169h406v-169h-406zM47 369v165l406 176v-177l-232 -78l232 -76v-186z" />
    <glyph glyph-name="greaterequal" unicode="&#x2265;" horiz-adv-x="500" 
d="M47 0v169h406v-169h-406zM47 193v177l232 78l-232 76v186l406 -176v-165z" />
    <glyph glyph-name="lozenge" unicode="&#x25ca;" horiz-adv-x="528" 
d="M172 0l-154 357l154 357h184l154 -357l-154 -357h-184zM336 357l-72 167l-72 -167l72 -167z" />
    <glyph glyph-name="twosevenths" unicode="&#xf507;" horiz-adv-x="888" 
d="M224 0l299 691h152l-299 -691h-152zM621 0q27 146 97 297h-136v112h272v-93q-38 -85 -62 -159.5t-39 -156.5h-132zM47 282v100q39 34 81 76q43 43 56.5 63t13.5 41q0 17 -4.5 24.5t-14.5 7.5t-15.5 -10t-9.5 -33l-115 11q24 142 149 142q59 0 94.5 -36t35.5 -95
q0 -72 -73 -145q-22 -22 -37 -34h115l-9 -112h-267z" />
    <glyph glyph-name="threesevenths" unicode="&#xf508;" horiz-adv-x="888" 
d="M216 0l299 691h152l-299 -691h-152zM621 0q27 146 97 297h-136v112h272v-93q-38 -85 -62 -159.5t-39 -156.5h-132zM154 446v88h20q22 0 22 35q0 34 -19 34q-20 0 -23 -41l-117 10q8 65 45.5 98.5t101.5 33.5q62 0 99.5 -32.5t37.5 -87.5q0 -59 -46 -88q54 -31 54 -94
q0 -60 -40.5 -96.5t-107.5 -36.5q-71 0 -110 40t-40 113h119q0 -53 28 -53q12 0 17 9t5 30q0 18 -6.5 28t-17.5 10h-22z" />
    <glyph glyph-name="foursevenths" unicode="&#xf509;" horiz-adv-x="888" 
d="M221 0l299 691h152l-299 -691h-152zM621 0q27 146 97 297h-136v112h272v-93q-38 -85 -62 -159.5t-39 -156.5h-132zM182 282v76h-155v92l139 241h133v-237h36l-8 -96h-28v-76h-117zM182 548l-52 -94h52v94z" />
    <glyph glyph-name="fivesevenths" unicode="&#xf50a;" horiz-adv-x="888" 
d="M208 0l299 691h152l-299 -691h-152zM621 0q27 146 97 297h-136v112h272v-93q-38 -85 -62 -159.5t-39 -156.5h-132zM45 437l17 254h238v-112h-143l-3 -50q23 18 57 18q52 0 80 -35t28 -99q0 -67 -38 -105.5t-103 -38.5q-63 0 -99.5 32.5t-41.5 92.5h120q1 -28 21 -28
q21 0 21 45q0 39 -23 39q-12 0 -18 -13h-113z" />
    <glyph glyph-name="sixsevenths" unicode="&#xf50b;" horiz-adv-x="888" 
d="M209 0l299 691h152l-299 -691h-152zM621 0q27 146 97 297h-136v112h272v-93q-38 -85 -62 -159.5t-39 -156.5h-132zM202 574q-4 28 -20 28q-13 0 -19 -18t-7 -62q22 22 61 22q49 0 77.5 -35t28.5 -97q0 -67 -36.5 -105t-100.5 -38q-74 0 -112.5 52.5t-38.5 154.5
q0 228 154 228q55 0 88.5 -30.5t41.5 -89.5zM182 367q25 0 25 43q0 44 -25 44q-13 0 -18.5 -10.5t-5.5 -34.5q0 -22 5.5 -32t18.5 -10z" />
    <glyph glyph-name="twoninths" unicode="&#xf50d;" horiz-adv-x="888" 
d="M229 0l299 691h152l-299 -691h-152zM686 113q3 -24 20 -24q13 0 18 17.5t6 62.5q-22 -22 -56 -22q-51 0 -80 35t-29 97q0 67 37 105t103 38q148 0 148 -207q0 -112 -38.5 -170t-112.5 -58q-58 0 -93 33t-42 93h119zM706 237q13 0 18.5 11t5.5 34q0 22 -5.5 32t-18.5 10
q-25 0 -25 -43q0 -44 25 -44zM47 282v100q39 34 81 76q43 43 56.5 63t13.5 41q0 17 -4.5 24.5t-14.5 7.5t-15.5 -10t-9.5 -33l-115 11q24 142 149 142q59 0 94.5 -36t35.5 -95q0 -72 -73 -145q-22 -22 -37 -34h115l-9 -112h-267z" />
    <glyph glyph-name="fourninths" unicode="&#xf50e;" horiz-adv-x="888" 
d="M228 0l299 691h152l-299 -691h-152zM686 113q3 -24 20 -24q13 0 18 17.5t6 62.5q-22 -22 -56 -22q-51 0 -80 35t-29 97q0 67 37 105t103 38q148 0 148 -207q0 -112 -38.5 -170t-112.5 -58q-58 0 -93 33t-42 93h119zM706 237q13 0 18.5 11t5.5 34q0 22 -5.5 32t-18.5 10
q-25 0 -25 -43q0 -44 25 -44zM182 282v76h-155v92l139 241h133v-237h36l-8 -96h-28v-76h-117zM182 548l-52 -94h52v94z" />
    <glyph glyph-name="fiveninths" unicode="&#xf50f;" horiz-adv-x="888" 
d="M216 0l299 691h152l-299 -691h-152zM686 113q3 -24 20 -24q13 0 18 17.5t6 62.5q-22 -22 -56 -22q-51 0 -80 35t-29 97q0 67 37 105t103 38q148 0 148 -207q0 -112 -38.5 -170t-112.5 -58q-58 0 -93 33t-42 93h119zM706 237q13 0 18.5 11t5.5 34q0 22 -5.5 32t-18.5 10
q-25 0 -25 -43q0 -44 25 -44zM45 437l17 254h238v-112h-143l-3 -50q23 18 57 18q52 0 80 -35t28 -99q0 -67 -38 -105.5t-103 -38.5q-63 0 -99.5 32.5t-41.5 92.5h120q1 -28 21 -28q21 0 21 45q0 39 -23 39q-12 0 -18 -13h-113z" />
    <glyph glyph-name="sevenninths" unicode="&#xf510;" horiz-adv-x="888" 
d="M197 0l299 691h152l-299 -691h-152zM686 113q3 -24 20 -24q13 0 18 17.5t6 62.5q-22 -22 -56 -22q-51 0 -80 35t-29 97q0 67 37 105t103 38q148 0 148 -207q0 -112 -38.5 -170t-112.5 -58q-58 0 -93 33t-42 93h119zM706 237q13 0 18.5 11t5.5 34q0 22 -5.5 32t-18.5 10
q-25 0 -25 -43q0 -44 25 -44zM85 282q27 146 97 297h-136v112h272v-93q-38 -85 -62 -159.5t-39 -156.5h-132z" />
    <glyph glyph-name="eightninths" unicode="&#xf511;" horiz-adv-x="888" 
d="M220 0l299 691h152l-299 -691h-152zM686 113q3 -24 20 -24q13 0 18 17.5t6 62.5q-22 -22 -56 -22q-51 0 -80 35t-29 97q0 67 37 105t103 38q148 0 148 -207q0 -112 -38.5 -170t-112.5 -58q-58 0 -93 33t-42 93h119zM706 237q13 0 18.5 11t5.5 34q0 22 -5.5 32t-18.5 10
q-25 0 -25 -43q0 -44 25 -44zM263 495q59 -29 59 -98q0 -62 -38.5 -95t-109.5 -33q-70 0 -107 32.5t-37 93.5q0 71 59 100q-25 16 -38 39t-13 50q0 57 36.5 88.5t103.5 31.5q65 0 100.5 -31t35.5 -87q0 -28 -13 -51.5t-38 -39.5zM175 366q25 0 25 39t-23 39q-25 0 -25 -41
q0 -37 23 -37zM175 539q22 0 22 34t-20 34q-22 0 -22 -36q0 -32 20 -32z" />
    <glyph glyph-name="zero.numr" unicode="&#xf80a;" 
d="M174 269q-76 0 -115 55t-39 161q0 107 40.5 163t117.5 56q76 0 115 -55t39 -161q0 -107 -40.5 -163t-117.5 -56zM175 394q14 0 20 21t6 71q0 52 -5 72.5t-19 20.5t-20 -21t-6 -71q0 -52 5 -72.5t19 -20.5z" />
    <glyph glyph-name="one.numr" unicode="&#xf80b;" 
d="M157 282v268l-67 -50l-61 91l139 100h117v-409h-128z" />
    <glyph glyph-name="two.numr" unicode="&#xf80c;" 
d="M47 282v100q39 34 81 76q43 43 56.5 63t13.5 41q0 17 -4.5 24.5t-14.5 7.5t-15.5 -10t-9.5 -33l-115 11q24 142 149 142q59 0 94.5 -36t35.5 -95q0 -72 -73 -145q-22 -22 -37 -34h115l-9 -112h-267z" />
    <glyph glyph-name="three.numr" unicode="&#xf80d;" 
d="M154 446v88h20q22 0 22 35q0 34 -19 34q-20 0 -23 -41l-117 10q8 65 45.5 98.5t101.5 33.5q62 0 99.5 -32.5t37.5 -87.5q0 -59 -46 -88q54 -31 54 -94q0 -60 -40.5 -96.5t-107.5 -36.5q-71 0 -110 40t-40 113h119q0 -53 28 -53q12 0 17 9t5 30q0 18 -6.5 28t-17.5 10h-22
z" />
    <glyph glyph-name="four.numr" unicode="&#xf80e;" 
d="M182 282v76h-155v92l139 241h133v-237h36l-8 -96h-28v-76h-117zM182 548l-52 -94h52v94z" />
    <glyph glyph-name="five.numr" unicode="&#xf80f;" 
d="M45 437l17 254h238v-112h-143l-3 -50q23 18 57 18q52 0 80 -35t28 -99q0 -67 -38 -105.5t-103 -38.5q-63 0 -99.5 32.5t-41.5 92.5h120q1 -28 21 -28q21 0 21 45q0 39 -23 39q-12 0 -18 -13h-113z" />
    <glyph glyph-name="six.numr" unicode="&#xf810;" 
d="M202 574q-4 28 -20 28q-13 0 -19 -18t-7 -62q22 22 61 22q49 0 77.5 -35t28.5 -97q0 -67 -36.5 -105t-100.5 -38q-74 0 -112.5 52.5t-38.5 154.5q0 228 154 228q55 0 88.5 -30.5t41.5 -89.5zM182 367q25 0 25 43q0 44 -25 44q-13 0 -18.5 -10.5t-5.5 -34.5q0 -22 5.5 -32
t18.5 -10z" />
    <glyph glyph-name="seven.numr" unicode="&#xf811;" 
d="M85 282q27 146 97 297h-136v112h272v-93q-38 -85 -62 -159.5t-39 -156.5h-132z" />
    <glyph glyph-name="eight.numr" unicode="&#xf812;" 
d="M263 495q59 -29 59 -98q0 -62 -38.5 -95t-109.5 -33q-70 0 -107 32.5t-37 93.5q0 71 59 100q-25 16 -38 39t-13 50q0 57 36.5 88.5t103.5 31.5q65 0 100.5 -31t35.5 -87q0 -28 -13 -51.5t-38 -39.5zM175 366q25 0 25 39t-23 39q-25 0 -25 -41q0 -37 23 -37zM175 539
q22 0 22 34t-20 34q-22 0 -22 -36q0 -32 20 -32z" />
    <glyph glyph-name="nine.numr" unicode="&#xf813;" 
d="M150 395q3 -24 20 -24q13 0 18 17.5t6 62.5q-22 -22 -56 -22q-51 0 -80 35t-29 97q0 67 37 105t103 38q148 0 148 -207q0 -112 -38.5 -170t-112.5 -58q-58 0 -93 33t-42 93h119zM170 519q13 0 18.5 11t5.5 34q0 22 -5.5 32t-18.5 10q-25 0 -25 -43q0 -44 25 -44z" />
    <glyph glyph-name="zero.dnom" unicode="&#xf814;" 
d="M174 -13q-76 0 -115 55t-39 161q0 107 40.5 163t117.5 56q76 0 115 -55t39 -161q0 -107 -40.5 -163t-117.5 -56zM175 112q14 0 20 21t6 71q0 52 -5 72.5t-19 20.5t-20 -21t-6 -71q0 -52 5 -72.5t19 -20.5z" />
    <glyph glyph-name="one.dnom" unicode="&#xf815;" 
d="M157 0v268l-67 -50l-61 91l139 100h117v-409h-128z" />
    <glyph glyph-name="two.dnom" unicode="&#xf816;" 
d="M47 0v100q39 34 81 76q43 43 56.5 63t13.5 41q0 17 -4.5 24.5t-14.5 7.5t-15.5 -10t-9.5 -33l-115 11q24 142 149 142q59 0 94.5 -36t35.5 -95q0 -72 -73 -145q-22 -22 -37 -34h115l-9 -112h-267z" />
    <glyph glyph-name="three.dnom" unicode="&#xf817;" 
d="M154 164v88h20q22 0 22 35q0 34 -19 34q-20 0 -23 -41l-117 10q8 65 45.5 98.5t101.5 33.5q62 0 99.5 -32.5t37.5 -87.5q0 -59 -46 -88q54 -31 54 -94q0 -60 -40.5 -96.5t-107.5 -36.5q-71 0 -110 40t-40 113h119q0 -53 28 -53q12 0 17 9t5 30q0 18 -6.5 28t-17.5 10h-22
z" />
    <glyph glyph-name="four.dnom" unicode="&#xf818;" 
d="M182 0v76h-155v92l139 241h133v-237h36l-8 -96h-28v-76h-117zM182 266l-52 -94h52v94z" />
    <glyph glyph-name="five.dnom" unicode="&#xf819;" 
d="M45 155l17 254h238v-112h-143l-3 -50q23 18 57 18q52 0 80 -35t28 -99q0 -67 -38 -105.5t-103 -38.5q-63 0 -99.5 32.5t-41.5 92.5h120q1 -28 21 -28q21 0 21 45q0 39 -23 39q-12 0 -18 -13h-113z" />
    <glyph glyph-name="six.dnom" unicode="&#xf81a;" 
d="M202 292q-4 28 -20 28q-13 0 -19 -18t-7 -62q22 22 61 22q49 0 77.5 -35t28.5 -97q0 -67 -36.5 -105t-100.5 -38q-74 0 -112.5 52.5t-38.5 154.5q0 228 154 228q55 0 88.5 -30.5t41.5 -89.5zM182 85q25 0 25 43q0 44 -25 44q-13 0 -18.5 -10.5t-5.5 -34.5q0 -22 5.5 -32
t18.5 -10z" />
    <glyph glyph-name="seven.dnom" unicode="&#xf81b;" 
d="M85 0q27 146 97 297h-136v112h272v-93q-38 -85 -62 -159.5t-39 -156.5h-132z" />
    <glyph glyph-name="eight.dnom" unicode="&#xf81c;" 
d="M263 213q59 -29 59 -98q0 -62 -38.5 -95t-109.5 -33q-70 0 -107 32.5t-37 93.5q0 71 59 100q-25 16 -38 39t-13 50q0 57 36.5 88.5t103.5 31.5q65 0 100.5 -31t35.5 -87q0 -28 -13 -51.5t-38 -39.5zM175 84q25 0 25 39t-23 39q-25 0 -25 -41q0 -37 23 -37zM175 257
q22 0 22 34t-20 34q-22 0 -22 -36q0 -32 20 -32z" />
    <glyph glyph-name="nine.dnom" unicode="&#xf81d;" 
d="M150 113q3 -24 20 -24q13 0 18 17.5t6 62.5q-22 -22 -56 -22q-51 0 -80 35t-29 97q0 67 37 105t103 38q148 0 148 -207q0 -112 -38.5 -170t-112.5 -58q-58 0 -93 33t-42 93h119zM170 237q13 0 18.5 11t5.5 34q0 22 -5.5 32t-18.5 10q-25 0 -25 -43q0 -44 25 -44z" />
    <glyph glyph-name="fi" unicode="&#xfb01;" horiz-adv-x="614" 
d="M77 0v371h-69v135h69v23q0 92 48.5 142.5t136.5 50.5q60 0 114 -20l-21 -123q-22 7 -44 7q-49 0 -49 -55v-25h85v-135h-85v-371h-185zM393 0v528h185v-528h-185zM393 585v129h185v-129h-185z" />
    <glyph glyph-name="fl" unicode="&#xfb02;" horiz-adv-x="614" 
d="M77 0v371h-69v135h69v23q0 92 48.5 142.5t136.5 50.5q60 0 114 -20l-21 -123q-22 7 -44 7q-49 0 -49 -55v-25h85v-135h-85v-371h-185zM393 0v714h185v-714h-185z" />
    <glyph glyph-name="uniFEFF" unicode="&#xfeff;" horiz-adv-x="0" 
 />
    <glyph glyph-name="zero.pnum" horiz-adv-x="522" 
d="M259 -18q-119 0 -174 86.5t-55 274.5q0 191 55.5 279t177.5 88q119 0 174 -86.5t55 -274.5q0 -191 -55.5 -279t-177.5 -88zM261 150q20 0 29.5 18.5t13.5 60t4 117.5q0 83 -4.5 124t-14.5 56.5t-28 15.5q-20 0 -29.5 -18.5t-13.5 -60t-4 -117.5q0 -83 4.5 -124
t14.5 -56.5t28 -15.5z" />
    <glyph glyph-name="one.pnum" horiz-adv-x="450" 
d="M199 0v480l-96 -72l-92 139l215 144h155v-691h-182z" />
    <glyph glyph-name="two.pnum" horiz-adv-x="484" 
d="M28 0v139q85 83 150 156q55 61 76.5 101.5t21.5 83.5q0 66 -39 66q-22 0 -33 -19t-16 -66l-171 18q10 110 71 170.5t161 60.5q96 0 152 -57.5t56 -155.5q0 -61 -21.5 -113.5t-72.5 -115.5q-47 -58 -91 -102h199l-15 -166h-428z" />
    <glyph glyph-name="three.pnum" horiz-adv-x="484" 
d="M188 283v141h42q24 0 37 16.5t13 45.5t-11 45.5t-31 16.5q-23 0 -35 -19.5t-16 -60.5l-163 17q7 107 66 166t160 59q60 0 107 -24t74 -68t27 -101q0 -49 -22.5 -88t-64.5 -62q48 -20 75 -64.5t27 -103.5q0 -62 -28 -111t-80 -77.5t-120 -28.5q-228 0 -228 257h167
q0 -95 56 -95q48 0 48 70q0 33 -15.5 51t-43.5 18h-41z" />
    <glyph glyph-name="four.pnum" horiz-adv-x="484" 
d="M257 0v128h-239v150l216 413h188v-420h56l-12 -143h-44v-128h-165zM257 465l-95 -194h95v194z" />
    <glyph glyph-name="five.pnum" horiz-adv-x="492" 
d="M205 206q3 -32 13 -47t30 -15q45 0 45 82q0 79 -49 79q-18 0 -28 -7.5t-17 -24.5h-161l25 418h377v-166h-230l-7 -98q37 30 92 30q84 0 130 -60t46 -169q0 -117 -58.5 -181.5t-164.5 -64.5q-208 0 -220 224h177z" />
    <glyph glyph-name="six.pnum" horiz-adv-x="501" 
d="M306 491q-4 32 -14.5 47t-30.5 15q-26 0 -39 -30.5t-18 -104.5l-1 -16q20 19 47.5 30.5t54.5 11.5q81 0 127.5 -58.5t46.5 -159.5q0 -115 -59 -179.5t-163 -64.5q-118 0 -172.5 81t-54.5 257q0 390 240 390q177 0 200 -201zM257 137q50 0 50 86q0 79 -48 79
q-51 0 -51 -79q0 -86 49 -86z" />
    <glyph glyph-name="seven.pnum" horiz-adv-x="464" 
d="M91 0q16 125 59.5 263t106.5 262h-238v166h430v-150q-69 -137 -109.5 -267.5t-59.5 -273.5h-189z" />
    <glyph glyph-name="eight.pnum" horiz-adv-x="496" 
d="M382 357q99 -49 99 -174q0 -95 -61.5 -148t-172.5 -53q-110 0 -170 52.5t-60 148.5q0 125 99 174q-84 52 -84 157q0 89 59.5 142.5t159.5 53.5q99 0 157 -53t58 -143q0 -105 -84 -157zM248 131q28 0 42.5 19t14.5 56t-14 56.5t-41 19.5t-42 -20t-15 -56q0 -75 55 -75z
M248 423q53 0 53 70t-51 70q-26 0 -39.5 -18t-13.5 -52q0 -36 12.5 -53t38.5 -17z" />
    <glyph glyph-name="nine.pnum" horiz-adv-x="501" 
d="M299 290q-20 -19 -47.5 -30.5t-54.5 -11.5q-81 0 -127.5 58.5t-46.5 159.5q0 115 59 179.5t163 64.5q117 0 172 -82t55 -256q0 -197 -58 -293.5t-176 -96.5q-92 0 -144 53.5t-62 158.5h164q7 -55 45 -55q28 0 40.5 29.5t16.5 105.5zM243 390q51 0 51 79q0 86 -49 86
q-50 0 -50 -86q0 -79 48 -79z" />
    <glyph glyph-name="hyphen.case" horiz-adv-x="332" 
d="M20 269v184h292v-184h-292z" />
    <glyph glyph-name="endash.case" horiz-adv-x="390" 
d="M0 274v174h390v-174h-390z" />
    <glyph glyph-name="emdash.case" horiz-adv-x="780" 
d="M0 274v174h780v-174h-780z" />
    <glyph glyph-name="parenleft.case" horiz-adv-x="329" 
d="M159 -72q-118 210 -118 429t118 429h167q-97 -219 -97 -429t97 -429h-167z" />
    <glyph glyph-name="parenright.case" horiz-adv-x="329" 
d="M3 -72q97 219 97 429t-97 429h167q118 -210 118 -429t-118 -429h-167z" />
    <glyph glyph-name="slash.case" horiz-adv-x="383" 
d="M2 -9l201 734h178l-201 -734h-178z" />
    <glyph glyph-name="backslash.case" horiz-adv-x="383" 
d="M381 -9h-178l-201 734h178z" />
    <glyph glyph-name="bracketleft.case" horiz-adv-x="350" 
d="M58 -72v858h286v-156h-104v-546h104v-156h-286z" />
    <glyph glyph-name="bracketright.case" horiz-adv-x="350" 
d="M292 -72h-286v156h104v546h-104v156h286v-858z" />
    <glyph glyph-name="braceleft.case" horiz-adv-x="355" 
d="M258 -72q-172 0 -172 182v106q0 32 -12 47.5t-37 15.5h-12v156h12q25 0 37 15.5t12 47.5v106q0 182 172 182h92v-156h-45q-44 0 -44 -52v-106q0 -45 -18.5 -73t-57.5 -42q39 -14 57.5 -42t18.5 -73v-106q0 -52 44 -52h45v-156h-92z" />
    <glyph glyph-name="braceright.case" horiz-adv-x="355" 
d="M269 110q0 -182 -172 -182h-92v156h45q44 0 44 52v106q0 45 18.5 73t57.5 42q-39 14 -57.5 42t-18.5 73v106q0 52 -44 52h-45v156h92q172 0 172 -182v-106q0 -32 12 -47.5t37 -15.5h12v-156h-12q-25 0 -37 -15.5t-12 -47.5v-106z" />
    <glyph glyph-name="bullet.case" horiz-adv-x="358" 
d="M179 195q-66 0 -109.5 45.5t-43.5 116.5t43 116.5t110 45.5t110 -45.5t43 -116.5t-43.5 -116.5t-109.5 -45.5z" />
    <glyph glyph-name="guilsinglleft.case" horiz-adv-x="321" 
d="M110 128l-92 228l91 230h188l-90 -229l90 -229h-187z" />
    <glyph glyph-name="guilsinglright.case" horiz-adv-x="321" 
d="M24 128l90 229l-90 229h187l92 -228l-91 -230h-188z" />
    <glyph glyph-name="guillemotleft.case" horiz-adv-x="559" 
d="M110 128l-92 228l91 230h188l-90 -229l90 -229h-187zM348 128l-92 228l91 230h188l-90 -229l90 -229h-187z" />
    <glyph glyph-name="guillemotright.case" horiz-adv-x="559" 
d="M24 128l90 229l-90 229h187l92 -228l-91 -230h-188zM262 128l90 229l-90 229h187l92 -228l-91 -230h-188z" />
    <glyph glyph-name="at.case" horiz-adv-x="840" 
d="M671 60q-53 -85 -134.5 -132t-176.5 -47q-101 0 -177.5 47t-118.5 137t-42 213q0 152 57 277.5t161.5 200t237.5 74.5q97 0 174 -45t121.5 -128t44.5 -191q0 -99 -31 -181.5t-87.5 -132.5t-127.5 -50q-67 0 -102 60q-8 14 -16 33q-24 -48 -51 -70.5t-61 -22.5
q-55 0 -86 50t-31 139q0 78 21.5 145.5t60.5 109.5t87 42q28 0 49.5 -14.5t32.5 -41.5l7 46h148l-47 -286q-3 -21 -3 -30q0 -40 23 -40q22 0 42.5 32t34 88t13.5 119q0 121 -59.5 185.5t-170.5 64.5q-91 0 -162 -51.5t-111.5 -148.5t-40.5 -227q0 -135 59 -209.5t166 -74.5
q83 0 134 60h162zM442 368q5 45 5 56q0 32 -16 32q-17 0 -31 -45.5t-14 -102.5q0 -34 5 -48.5t15 -14.5q11 0 18 18.5t13 64.5z" />
    <glyph glyph-name="periodcentered.case" horiz-adv-x="238" 
d="M34 255v203h170v-203h-170z" />
    <glyph glyph-name="questiondown.case" horiz-adv-x="457" 
d="M453 210q-8 -107 -69 -164.5t-166 -57.5q-62 0 -110 22t-75 63t-27 96q0 47 18 85.5t61 83.5q33 35 46 65t13 70v13h161v-25q0 -57 -13 -92t-48 -74q-32 -34 -42.5 -52.5t-10.5 -40.5q0 -51 41 -51q24 0 37 18t16 56zM140 537v177h170v-177h-170z" />
    <glyph glyph-name="exclamdown.case" horiz-adv-x="238" 
d="M221 0h-204l22 486h160zM204 537h-170v177h170v-177z" />
    <glyph glyph-name="periodcentered.loclCAT" horiz-adv-x="238" 
d="M34 266v203h170v-203h-170z" />
    <glyph glyph-name="periodcentered.loclCAT.cap" horiz-adv-x="238" 
d="M34 339v203h170v-203h-170z" />
    <glyph glyph-name="i.locl" horiz-adv-x="257" 
d="M36 0v528h185v-528h-185zM36 585v129h185v-129h-185z" />
    <glyph glyph-name="Eng.locl" horiz-adv-x="642" 
d="M388 511q0 71 -56 71q-34 0 -56.5 -22t-22.5 -57v-503h-195v714h186v-72q33 44 76 67t90 23q80 0 127 -52.5t47 -141.5v-506q0 -120 -47 -178.5t-144 -58.5q-31 0 -66.5 6.5t-63.5 16.5l33 155q35 -9 58 -9q34 0 34 38v509z" />
    <glyph glyph-name="uni0327.cap" horiz-adv-x="0" 
d="M-92 -142q27 -4 53 -4q16 0 25.5 6.5t9.5 17.5q0 25 -40 25h-32l36 110l88 -13l-14 -44q86 -16 86 -91q0 -47 -36.5 -72.5t-102.5 -25.5q-35 0 -73 7v84z" />
    <glyph glyph-name="uni0326.cap" horiz-adv-x="0" 
d="M-176 -251l78 185h195l-118 -185h-155z" />
    <glyph glyph-name="uni0328.cap" horiz-adv-x="0" 
d="M94 -205q-41 -7 -74 -7q-127 0 -127 90q0 33 22 66.5t62 61.5l120 -6q-34 -22 -47.5 -38t-13.5 -33q0 -28 33 -28q16 0 25 2v-108z" />
    <glyph glyph-name="uni0328.round" horiz-adv-x="0" 
d="M77 -204q-32 -7 -70 -7q-121 0 -121 91q0 70 86 126l101 -6q-49 -32 -49 -71q0 -28 28 -28q12 0 25 2v-107z" />
    <glyph glyph-name="uni0328.round.cap" horiz-adv-x="0" 
d="M94 -205q-41 -7 -74 -7q-127 0 -127 90q0 33 23.5 66.5t67.5 61.5l109 -6q-29 -19 -43 -36t-14 -35q0 -28 33 -28q16 0 25 2v-108z" />
    <glyph glyph-name="iogonek.dotless" horiz-adv-x="257" 
d="M36 0v528h185v-528h-185zM217 -204q-32 -7 -70 -7q-121 0 -121 91q0 33 20 65.5t58 60.5l117 -6q-32 -23 -44.5 -38.5t-12.5 -32.5q0 -28 28 -28q12 0 25 2v-107z" />
    <glyph glyph-name="acutecomb.cap" horiz-adv-x="0" 
d="M-110 772l108 166h199l-150 -166h-157z" />
    <glyph glyph-name="uni030B.cap" horiz-adv-x="0" 
d="M-177 772l92 166h163l-121 -166h-134zM22 772l92 166h163l-121 -166h-134z" />
    <glyph glyph-name="gravecomb.cap" horiz-adv-x="0" 
d="M-47 772l-150 166h199l108 -166h-157z" />
    <glyph glyph-name="uni0302.cap" horiz-adv-x="0" 
d="M39 772l-41 76l-41 -76h-148l107 166h168l107 -166h-152z" />
    <glyph glyph-name="tildecomb.cap" horiz-adv-x="0" 
d="M-178 763q2 84 29.5 127t77.5 43q33 0 72 -25q27 -16 40 -16q26 0 26 43h111q-2 -84 -29.5 -127t-77.5 -43q-33 0 -72 25q-27 16 -40 16q-26 0 -26 -43h-111z" />
    <glyph glyph-name="uni030C.cap" horiz-adv-x="0" 
d="M-84 772l-107 166h152l41 -76l41 76h148l-107 -166h-168z" />
    <glyph glyph-name="uni0315.short" horiz-adv-x="0" 
d="M-74 580l16 198h132l-42 -198h-106z" />
    <glyph glyph-name="uni0304.cap" horiz-adv-x="0" 
d="M-141 777v140h282v-140h-282z" />
    <glyph glyph-name="uni0308.cap" horiz-adv-x="0" 
d="M-194 775v150h167v-150h-167zM27 775v150h167v-150h-167z" />
    <glyph glyph-name="uni0306.cap" horiz-adv-x="0" 
d="M167 940q0 -81 -44 -126.5t-123 -45.5t-123 45.5t-44 126.5h127q0 -63 40 -63t40 63h127z" />
    <glyph glyph-name="uni0307.cap" horiz-adv-x="0" 
d="M-95 775v150h190v-150h-190z" />
    <glyph glyph-name="uni030A.cap" horiz-adv-x="0" 
d="M0 737q-54 0 -88 36.5t-34 94.5t34 94.5t88 36.5t88 -36.5t34 -94.5t-34 -94.5t-88 -36.5zM0 822q16 0 24.5 12t8.5 34t-8.5 34t-24.5 12t-24.5 -12t-8.5 -34t8.5 -34t24.5 -12z" />
    </font>
</defs>
</svg>
